<?xml version="1.0" encoding="utf-8"?>
<!-- Generator: Adobe Illustrator 25.3.0, SVG Export Plug-In . SVG Version: 6.00 Build 0)  -->
<svg version="1.1" id="Layer_1" xmlns="http://www.w3.org/2000/svg" xmlns:xlink="http://www.w3.org/1999/xlink" x="0px" y="0px"
	 viewBox="0 0 161.4 119" style="enable-background:new 0 0 161.4 119;" xml:space="preserve">
<style type="text/css">
	.st0{fill:#C4C4C4;fill-opacity:0.5;stroke:#102132;stroke-width:2;stroke-miterlimit:10;}
	.st1{opacity:0.95;clip-path:url(#SVGID_2_);}
	.st2{fill:#939598;}
	.st3{fill:#102132;}
	.st4{fill:#595A5B;}
	.st5{fill:#E7E7E8;}
	.st6{fill:#C4C4C4;}
	.st7{opacity:0.85;}
</style>
<circle class="st0" cx="68" cy="54" r="52"/>
<g>
	<defs>
		<rect id="SVGID_1_" x="13" width="109" height="108"/>
	</defs>
	<clipPath id="SVGID_2_">
		<use xlink:href="#SVGID_1_"  style="overflow:visible;"/>
	</clipPath>
	<g class="st1">
		<path class="st2" d="M44.1,63c0,3-1.5,5.7-3.1,7.2c-0.7,0.7-1.3,1.9-2.2,1.9c-1.9,0-6.4-7-6-9.7c0.6-4.5,1.8-8.2,3.7-8.2
			C39.2,54.3,44.1,58.5,44.1,63z"/>
		<path class="st3" d="M38.8,72.5c-0.6,0-1.5-0.6-2.5-1.7c-1.8-2.1-4.2-6.4-3.9-8.5c0.5-3.9,1.6-8.5,4.1-8.5c3,0,8,4.5,8,9.2
			c0,3.3-1.7,6-3.2,7.5c-0.2,0.2-0.4,0.4-0.6,0.7C40.1,71.9,39.6,72.5,38.8,72.5z M36.5,54.7c-1.5,0-2.7,2.9-3.3,7.8
			c-0.2,1.7,1.9,5.7,3.7,7.8c1.2,1.3,1.7,1.4,1.8,1.4c0.4,0,0.9-0.5,1.3-1c0.2-0.2,0.4-0.5,0.7-0.8c1.4-1.3,3-3.9,3-6.9
			C43.7,58.8,39.1,54.7,36.5,54.7z"/>
		<path class="st2" d="M91.9,63c0,3,1.5,5.7,3.1,7.2c0.7,0.7,1.3,1.9,2.2,1.9c1.9,0,6.4-7,6-9.7c-0.6-4.5-1.8-8.2-3.7-8.2
			C96.7,54.3,91.9,58.5,91.9,63z"/>
		<path class="st3" d="M97.2,72.5c-0.8,0-1.4-0.7-1.9-1.3c-0.2-0.2-0.4-0.5-0.6-0.7c-1.6-1.5-3.2-4.2-3.2-7.5c0-4.7,5-9.2,8-9.2
			c2.5,0,3.6,4.7,4.1,8.5c0.3,2.2-2.1,6.4-3.9,8.5C98.7,71.9,97.9,72.5,97.2,72.5z M99.5,54.7c-2.6,0-7.2,4.1-7.2,8.4
			c0,3,1.6,5.6,3,6.9c0.2,0.2,0.5,0.5,0.7,0.8c0.4,0.5,0.8,1,1.3,1c0.1,0,0.7-0.1,1.8-1.4c1.9-2.2,4-6.1,3.7-7.8
			C102.2,57.6,100.9,54.7,99.5,54.7z"/>
		<path class="st2" d="M92.4,30C87.1,21.7,77,16.4,67.9,16.4c-9.1,0-19.1,5.3-24.4,13.7c-4,6.3-4.4,14.4-4.4,23.2
			c0,8.6,1,21.5,5.8,27.6c6.2,7.8,15.4,15,23.1,15s16.8-7.1,23.1-15c4.8-6.1,5.8-18.9,5.8-27.6C96.8,44.4,96.4,36.4,92.4,30z"/>
		<path class="st3" d="M67.9,96.2c-8.4,0-17.9-8.2-23.4-15.1c-5.2-6.5-5.9-20.3-5.9-27.9c0-8.2,0.3-16.8,4.5-23.4
			c5.3-8.3,15.3-13.9,24.9-13.9c9.6,0,19.6,5.6,24.9,13.9c4.2,6.6,4.5,15.2,4.5,23.4c0,7.6-0.8,21.4-5.9,27.9
			C85.8,88.1,76.4,96.2,67.9,96.2z M67.9,16.9c-9.1,0-19,5.5-24,13.5c-4,6.4-4.4,14.8-4.4,22.9c0,7.5,0.7,21,5.7,27.3
			c5.4,6.8,14.6,14.8,22.7,14.8c8.1,0,17.3-8,22.7-14.8c5-6.3,5.7-19.8,5.7-27.3c0-8.1-0.3-16.5-4.4-22.9
			C87,22.4,77.1,16.9,67.9,16.9z"/>
		<path class="st3" d="M47.4,41.9l11.5-0.5c0.2,0,0.4-0.2,0.4-0.4v-4.4c0-0.3-0.2-0.5-0.5-0.4l-11.3,2.3c-0.2,0-0.3,0.2-0.3,0.4
			L47,41.5C46.9,41.7,47.2,41.9,47.4,41.9z"/>
		<path class="st3" d="M60.3,41.4c-0.2,0-0.4-0.2-0.4-0.4v-4.4c0-0.2,0.2-0.4,0.4-0.4c0.2,0,0.4,0.2,0.4,0.4v4.4
			C60.7,41.2,60.5,41.4,60.3,41.4z"/>
		<path class="st3" d="M61.6,41.4c-0.2,0-0.4-0.2-0.4-0.4v-4.4c0-0.2,0.2-0.4,0.4-0.4c0.2,0,0.4,0.2,0.4,0.4v4.4
			C62.1,41.2,61.9,41.4,61.6,41.4z"/>
		<path class="st3" d="M88.5,41.4L77,40.8c-0.2,0-0.4-0.2-0.4-0.4V36c0-0.3,0.2-0.5,0.5-0.4l11.3,2.3c0.2,0,0.3,0.2,0.3,0.4l0.1,2.6
			C89,41.1,88.8,41.4,88.5,41.4z"/>
		<path class="st3" d="M75.7,40.8c0.2,0,0.4-0.2,0.4-0.4v-4.4c0-0.2-0.2-0.4-0.4-0.4c-0.2,0-0.4,0.2-0.4,0.4v4.4
			C75.2,40.6,75.4,40.8,75.7,40.8z"/>
		<path class="st3" d="M74.3,40.8c0.2,0,0.4-0.2,0.4-0.4v-4.4c0-0.2-0.2-0.4-0.4-0.4c-0.2,0-0.4,0.2-0.4,0.4v4.4
			C73.9,40.6,74.1,40.8,74.3,40.8z"/>
		<path class="st3" d="M72.7,55.6c-0.1,0-0.2,0-0.2-0.2c0-0.1-1.1-3.5-4.5-3.5c-3.5,0-4.5,3.3-4.5,3.5c0,0.1-0.2,0.2-0.3,0.1
			c-0.1,0-0.2-0.2-0.1-0.3c0,0,1.2-3.8,5-3.8c3.8,0,5,3.8,5,3.8C73,55.4,72.9,55.5,72.7,55.6C72.8,55.5,72.8,55.6,72.7,55.6z"/>
		<path class="st3" d="M61.9,61.1c-0.3,0-1.3-0.1-1.8-1.5c-0.7-1.6,0.2-2.4,0.3-2.5c0.1-0.1,0.2-0.1,0.3,0c0.1,0.1,0.1,0.2,0,0.3
			c0,0-0.7,0.6-0.2,2c0.5,1.3,1.4,1.2,1.4,1.2c0.1,0,0.2,0.1,0.3,0.2c0,0.1,0,0.2-0.2,0.3C62,61.1,62,61.1,61.9,61.1z"/>
		<path class="st3" d="M65.4,59l-0.3,0.1c-0.1-0.5-0.7-1-1.4-1.1c-0.9-0.1-1.7,0.3-1.8,1c-0.1,0.7,0.5,1.3,1.4,1.5
			c0.7,0.1,1.3-0.2,1.6-0.6C65.5,59.5,65.4,59,65.4,59z"/>
		<path class="st3" d="M74,61.1c-0.1,0-0.1,0-0.1,0c-0.1,0-0.2-0.1-0.2-0.3c0-0.1,0.1-0.2,0.3-0.2c0,0,0.9,0.1,1.4-1.2
			c0.5-1.3-0.1-1.9-0.2-2c-0.1-0.1-0.1-0.2,0-0.3c0.1-0.1,0.2-0.1,0.3,0c0,0,1,0.9,0.3,2.5C75.2,60.9,74.4,61.1,74,61.1z"/>
		<path class="st3" d="M70.5,59l0.3,0.1c0.1-0.5,0.7-1,1.4-1.1c0.9-0.1,1.7,0.3,1.8,1c0.1,0.7-0.5,1.3-1.4,1.5
			c-0.7,0.1-1.3-0.2-1.6-0.6C70.4,59.5,70.5,59,70.5,59z"/>
		<path class="st3" d="M68,83.4c-15.2,0-17.9-13.8-17.9-13.8h35.8C85.9,69.6,83.1,83.4,68,83.4z"/>
		<path class="st4" d="M67.9,81c4.5,0,8.2-1.7,8.2-3.7s-3.7-3.7-8.2-3.7c-4.5,0-8.2,1.7-8.2,3.7S63.4,81,67.9,81z"/>
		<path class="st5" d="M67.9,82.8c-8.4,0-14-5.9-14.5-6.8c-0.3-0.5-0.2-0.9-0.1-1.2c0.4-0.7,1.7-0.8,2.1-0.8h0.1l0.1,0.1
			c0,0,5.4,4.8,12.3,4.8c8.5,0,12.2-4.7,12.2-4.7l0.1-0.1h0.2c0.8,0,2.2,0,2.2,1.5v0.1l0,0.1C82.6,75.8,78.4,82.8,67.9,82.8z"/>
		<path class="st3" d="M80.5,74.4c1,0,1.8,0.1,1.8,1.2c0,0-4,6.9-14.3,6.9c-7.9,0-13.5-5.5-14.2-6.6c-0.6-1.1,0.6-1.4,1.7-1.4
			c0,0,5.4,4.9,12.5,4.9C76.8,79.3,80.5,74.4,80.5,74.4z M80.5,73.7h-0.4L79.9,74c0,0.1-3.6,4.6-11.9,4.6c-6.7,0-12-4.7-12.1-4.7
			l-0.2-0.2h-0.3c-0.5,0-1.9,0.1-2.4,1c-0.1,0.2-0.3,0.8,0.1,1.6c0.9,1.5,6.8,7,14.8,7c10.7,0,14.8-7,15-7.2l0.1-0.2v-0.2
			C83.1,73.7,81.2,73.7,80.5,73.7z"/>
		<path class="st5" d="M67.7,75.2c-0.2,0-0.6,0.1-1.1,0.1h-0.7c-0.7,0-1.2-0.1-1.4-0.3c-0.2,0-0.6,0.1-1.3,0.1c-0.6,0-1-0.1-1.2-0.3
			c-0.5,0.3-0.7,0.3-0.8,0.3c0,0-0.1,0-0.2,0l0,0.1l-0.7-0.1c-2.2-0.2-5.2-0.8-5.2-2.9c0-1.5,0.5-2.2,1.8-2.2h3.3v0.2
			c0.2-0.1,0.4-0.2,0.7-0.2c0.5,0,0.8,0.2,1.1,0.5l0,0l0,0c0.3-0.2,0.7-0.5,1.3-0.5c0.6,0,1.1,0.3,1.4,0.5c0.3-0.2,0.8-0.5,1.6-0.5
			c0.7,0,1.3,0.3,1.6,0.6c0.3-0.2,0.8-0.6,1.6-0.6c0.7,0,1.2,0.3,1.6,0.5c0.3-0.2,0.7-0.5,1.4-0.5c0.6,0,1,0.3,1.3,0.5
			c0.2-0.2,0.6-0.5,1.1-0.5c0.3,0,0.5,0.1,0.7,0.2V70h3.7c0.9,0,1.5,0.3,1.5,2.2c0,2.1-3,2.6-5.2,2.9l-0.7,0.1l0-0.1
			c-0.1,0-0.2,0-0.2,0c-0.2,0-0.5-0.1-0.8-0.3c-0.2,0.1-0.6,0.3-1.2,0.3c-0.6,0-1,0-1.3-0.1c-0.1,0.1-0.4,0.3-1.4,0.3h-0.7
			c-0.5,0-0.9,0-1.2-0.1L68,75.8L67.7,75.2z"/>
		<path class="st3" d="M79.2,70.4c0.6,0,1.1,0.1,1.1,1.8c0,1.5-1.9,2.2-4.9,2.5l0.5-0.8c0,0-1.1,0.9-1.3,0.9c-0.2,0-0.9-0.4-0.9-0.4
			v0.2v-0.3c0,0,0,0.5-1.1,0.5c-1.5,0-1.5-0.3-1.5-0.3l0,0.3c0,0-0.2,0.2-1.1,0.2c-0.2,0-0.4,0-0.6,0c-1.2,0-1.4-0.2-1.4-0.2
			c0,0-0.2,0.2-1.3,0.2c-0.2,0-0.5,0-0.7,0c-1.1,0-1.1-0.2-1.1-0.2l0-0.2c0,0,0,0.3-1.5,0.3c-1.1,0-1.1-0.5-1.1-0.5v0.1
			c-0.1,0.1-0.6,0.4-0.8,0.4S60.2,74,60.2,74l0.5,0.8c-2.9-0.3-4.8-1-4.8-2.5c0-1.6,0.6-1.8,1.4-1.8h3v0.7c0,0,0.4-0.7,1.1-0.7
			c0.6,0,1,0.6,1.1,0.7c0-0.1,0.6-0.7,1.3-0.7c0.8,0,1.4,0.7,1.4,0.7s0.6-0.7,1.6-0.7c1,0,1.6,0.7,1.6,0.7s0.6-0.7,1.6-0.7
			c1,0,1.6,0.7,1.6,0.7s0.5-0.7,1.4-0.7c0.8,0,1.4,0.7,1.4,0.7s0.4-0.7,1.1-0.7c0.7,0,1.1,0.7,1.1,0.7v-0.7L79.2,70.4
			C79,70.4,79.1,70.4,79.2,70.4z M79.2,69.7h-0.1h-0.1h-3h-0.7v0c-0.1,0-0.2,0-0.3,0c-0.5,0-0.8,0.2-1.1,0.4
			c-0.3-0.2-0.8-0.4-1.3-0.4c-0.6,0-1.1,0.2-1.4,0.4c-0.3-0.2-0.9-0.4-1.5-0.4c-0.7,0-1.2,0.2-1.6,0.5c-0.3-0.2-0.9-0.5-1.6-0.5
			c-0.6,0-1.2,0.2-1.5,0.4c-0.3-0.2-0.8-0.4-1.4-0.4c-0.5,0-0.9,0.1-1.2,0.3l-0.1-0.2L62.2,70c-0.2-0.2-0.6-0.3-1-0.3
			c-0.1,0-0.2,0-0.3,0v0h-0.7h-3c-1.5,0-2.1,0.8-2.1,2.5c0,2.3,3.1,3,5.5,3.2l1.4,0.1l-0.1-0.2c0.1,0,0.2-0.1,0.4-0.2
			c0.3,0.1,0.6,0.2,1.2,0.2c0.5,0,0.9,0,1.2-0.1c0.4,0.2,1,0.3,1.4,0.3c0.2,0,0.4,0,0.7,0c0.3,0,0.6,0,0.9,0l0.4,1.2l0.4-1.2
			c0.2,0,0.5,0,0.9,0c0.2,0,0.4,0,0.6,0c0.7,0,1.2-0.1,1.5-0.3c0.3,0,0.7,0.1,1.2,0.1c0.5,0,0.9-0.1,1.2-0.2
			c0.1,0.1,0.3,0.1,0.4,0.2l-0.1,0.2l1.4-0.1c2.4-0.2,5.5-0.9,5.5-3.2C81.1,70.4,80.5,69.7,79.2,69.7z"/>
		<path class="st3" d="M87.3,71.1c0.2,0,0.3-0.1,0.4-0.3c0.1-0.2,0-0.5-0.2-0.6c-0.3-0.1-1.2-0.6-1.5-0.8c-0.3-0.2-1.1-0.9-1.3-1.2
			c-0.2-0.2-0.5-0.2-0.7,0c-0.2,0.2-0.2,0.5,0,0.7c0.1,0.1,1,1,1.5,1.3c0.4,0.3,1.5,0.8,1.7,0.9C87.2,71.1,87.3,71.1,87.3,71.1z"/>
		<path class="st3" d="M48.9,71.1c-0.2,0-0.3-0.1-0.4-0.3c-0.1-0.2,0-0.5,0.2-0.6c0.3-0.1,1.2-0.6,1.5-0.8c0.3-0.2,1.1-0.9,1.3-1.2
			c0.2-0.2,0.5-0.2,0.7,0c0.2,0.2,0.2,0.5,0,0.7c-0.1,0.1-1,1-1.5,1.3c-0.4,0.3-1.5,0.8-1.7,0.9C49.1,71.1,49,71.1,48.9,71.1z"/>
		<path class="st3" d="M60.5,47.9c0,0-2.1-1.2-5.8-1.2c-3.6,0-6.1,1.2-6.1,1.2c-0.3,0-0.6-0.3-0.6-0.6c0-0.3,0.3-0.6,0.6-0.6
			c0,0,2.3-1.2,6.1-1.2s5.8,1.2,5.8,1.2c0.3,0,0.6,0.3,0.6,0.6C61.2,47.6,60.9,47.9,60.5,47.9z"/>
		<path class="st3" d="M87.3,47.9c0,0-2.1-1.2-5.8-1.2c-3.6,0-6.1,1.2-6.1,1.2c-0.3,0-0.6-0.3-0.6-0.6c0-0.3,0.3-0.6,0.6-0.6
			c0,0,2.3-1.2,6.1-1.2c3.7,0,5.8,1.2,5.8,1.2c0.3,0,0.6,0.3,0.6,0.6C87.9,47.6,87.6,47.9,87.3,47.9z"/>
	</g>
</g>
<g>
	<g>
		<path class="st6" d="M160.9,54c0-2.2-1.8-4-4-4h-44.1c-2.2,0-4,1.8-4,4c0,0.5,0,0.9,0,1.3c0,1.6-1.9,2.9-1.9,4.5s1.9,2.9,1.9,4.5
			c0,0.2,0,0.5,0,0.7c0,2.2,1.8,4,4,4h44.1c2.2,0,4-1.8,4-4V54z"/>
	</g>
	<g class="st7">
		<path class="st3" d="M156.9,69h-44.1c-2.2,0-4-1.8-4-4v-0.7c0-0.8-0.5-1.6-0.9-2.2c-0.5-0.8-1-1.5-1-2.3s0.5-1.5,0.9-2.2
			c0.5-0.7,0.9-1.4,0.9-2.2v-1.2c0-2.3,1.8-4.1,4-4.1h44.1c2.2,0,4,1.8,4,4v11C160.9,67.2,159.1,69,156.9,69z M112.8,51
			c-1.7,0-3,1.3-3,3v1.2c0,1.2-0.6,2.1-1.1,2.8c-0.5,0.8-0.8,1.3-0.8,1.7s0.3,1,0.8,1.7c0.5,0.8,1.1,1.7,1.1,2.8V65c0,1.7,1.3,3,3,3
			h44.1c1.7,0,3-1.3,3-3V54c0-1.7-1.3-3-3-3H112.8z"/>
	</g>
</g>
<g>
	<path class="st3" d="M125.9,63.7c-0.8,0-1.6-0.2-2.2-0.5c-0.6-0.4-1.1-0.8-1.5-1.5s-0.5-1.3-0.5-2.2c0-0.8,0.2-1.5,0.5-2.2
		c0.3-0.6,0.8-1.1,1.4-1.5s1.3-0.5,2.1-0.5c0.8,0,1.4,0.2,2,0.5c0.6,0.3,1,0.8,1.3,1.4s0.4,1.3,0.4,2.1c0,0.2-0.1,0.3-0.2,0.5
		s-0.3,0.2-0.5,0.2h-6v-1.2h6l-0.6,0.4c0-0.5-0.1-0.9-0.3-1.3c-0.2-0.4-0.5-0.7-0.8-0.9s-0.8-0.3-1.3-0.3c-0.6,0-1.1,0.1-1.5,0.4
		c-0.4,0.2-0.7,0.6-0.9,1c-0.2,0.4-0.3,0.9-0.3,1.5c0,0.6,0.1,1,0.4,1.5c0.2,0.4,0.6,0.8,1,1c0.4,0.2,0.9,0.4,1.5,0.4
		c0.3,0,0.6-0.1,1-0.2c0.3-0.1,0.6-0.2,0.8-0.4c0.1-0.1,0.3-0.2,0.5-0.2c0.2,0,0.3,0,0.5,0.2c0.2,0.1,0.3,0.3,0.3,0.5
		c0,0.2-0.1,0.3-0.2,0.5c-0.3,0.3-0.8,0.5-1.3,0.7S126.3,63.7,125.9,63.7z"/>
	<path class="st3" d="M134.4,63.7c-0.7,0-1.4-0.2-2-0.5c-0.6-0.4-1-0.9-1.4-1.5c-0.3-0.6-0.5-1.3-0.5-2.1c0-0.8,0.2-1.5,0.5-2.1
		s0.9-1.1,1.5-1.5c0.6-0.4,1.3-0.5,2.1-0.5c0.8,0,1.5,0.2,2.1,0.5c0.6,0.4,1.1,0.9,1.5,1.5s0.5,1.3,0.5,2.1h-0.6
		c0,0.8-0.2,1.5-0.5,2.1c-0.3,0.6-0.8,1.1-1.4,1.5C135.8,63.5,135.2,63.7,134.4,63.7z M134.7,62.3c0.5,0,1-0.1,1.4-0.4
		c0.4-0.2,0.7-0.6,0.9-1c0.2-0.4,0.3-0.9,0.3-1.4c0-0.5-0.1-1-0.3-1.4c-0.2-0.4-0.5-0.8-0.9-1c-0.4-0.2-0.9-0.4-1.4-0.4
		c-0.5,0-1,0.1-1.4,0.4c-0.4,0.2-0.7,0.6-1,1c-0.2,0.4-0.4,0.9-0.4,1.4c0,0.5,0.1,1,0.4,1.4c0.2,0.4,0.6,0.8,1,1
		C133.8,62.2,134.2,62.3,134.7,62.3z M138.1,63.6c-0.2,0-0.4-0.1-0.5-0.2c-0.1-0.1-0.2-0.3-0.2-0.5v-2.3l0.3-1.6l1.2,0.5v3.3
		c0,0.2-0.1,0.4-0.2,0.5C138.5,63.5,138.3,63.6,138.1,63.6z"/>
	<path class="st3" d="M145,63.7c-0.8,0-1.6-0.2-2.2-0.5c-0.6-0.4-1.1-0.8-1.5-1.5s-0.5-1.3-0.5-2.2c0-0.8,0.2-1.5,0.5-2.2
		c0.3-0.6,0.8-1.1,1.4-1.5s1.3-0.5,2.1-0.5c0.8,0,1.4,0.2,2,0.5c0.6,0.3,1,0.8,1.3,1.4s0.4,1.3,0.4,2.1c0,0.2-0.1,0.3-0.2,0.5
		S148,60,147.8,60h-6v-1.2h6l-0.6,0.4c0-0.5-0.1-0.9-0.3-1.3c-0.2-0.4-0.5-0.7-0.8-0.9s-0.8-0.3-1.3-0.3c-0.6,0-1.1,0.1-1.5,0.4
		c-0.4,0.2-0.7,0.6-0.9,1c-0.2,0.4-0.3,0.9-0.3,1.5c0,0.6,0.1,1,0.4,1.5c0.2,0.4,0.6,0.8,1,1c0.4,0.2,0.9,0.4,1.5,0.4
		c0.3,0,0.6-0.1,1-0.2c0.3-0.1,0.6-0.2,0.8-0.4c0.1-0.1,0.3-0.2,0.5-0.2c0.2,0,0.3,0,0.5,0.2c0.2,0.1,0.3,0.3,0.3,0.5
		c0,0.2-0.1,0.3-0.2,0.5c-0.3,0.3-0.8,0.5-1.3,0.7S145.5,63.7,145,63.7z"/>
</g>
</svg>
