<?xml version="1.0" encoding="utf-8"?>
<!-- Generator: Adobe Illustrator 25.3.0, SVG Export Plug-In . SVG Version: 6.00 Build 0)  -->
<svg version="1.1" id="Layer_1" xmlns="http://www.w3.org/2000/svg" xmlns:xlink="http://www.w3.org/1999/xlink" x="0px" y="0px"
	 viewBox="0 0 272.8 272.2" style="enable-background:new 0 0 272.8 272.2;" xml:space="preserve">
<style type="text/css">
	.st0{fill:#112233;stroke:#000000;stroke-width:1.2;stroke-miterlimit:10;}
	.st1{fill:#EDF3F8;stroke:#000000;stroke-width:0.55;stroke-miterlimit:10;}
	.st2{fill:#112233;}
	.st3{display:none;}
	.st4{display:inline;fill:#112233;}
	.st5{display:inline;}
	.st6{fill:#58595B;}
	.st7{fill:#EDF3F8;}
	.st8{display:none;fill:#112233;}
	.st9{fill:#EDF3F8;stroke:#333333;stroke-width:0.5;stroke-linecap:round;stroke-miterlimit:10;}
	.st10{display:inline;fill:#EDF3F8;}
</style>
<g id="Layer_2_1_">
	<g id="Layer_1-2">
		<path id="corpo" class="st0" d="M252.5,101.3c-21-34-39-44-44.7-47.9c-1.5-4.9-5.6-12.6-7.9-16.9c14.3-20.4-11.1-44-30.4-28.2
			C148.6-2,124.1-2,103.3,8.4C96.1,2.5,87.9,2.1,81.4,5c-0.8,0.4,0.8,4.3,0,4.8c-0.6,0.4-3.7-2.8-4.2-2.3C69,13.7,65.3,25.6,73,36.6
			c-2.4,4.2-6.4,12-7.9,16.8c-5.8,3.9-23.8,13.9-44.8,47.9c-24.9,40.3-24.5,75-8.3,77.4c5.9-1,8.8-7.8,10-10c1.9-3.9,5.3-4.3,7,0.3
			c2.3,17.6,7.7,34.6,15.9,50.4c16,30,47.4,55.8,59.4,51.8c10.9-4,13-24.6,32.1-25.4c19.1,0.8,21.2,21.4,32.1,25.4
			c12,4,43.4-21.9,59.4-51.9c8.2-15.8,13.6-32.8,15.9-50.4c1.7-4.6,5.1-4.2,7-0.3c1.2,2.2,4.1,9,10,10
			C276.9,176.3,277.4,141.7,252.5,101.3z"/>
		<path id="barriga" class="st1" d="M198.4,62.1c-7.5-34.2-41.3-55.9-75.5-48.4C98.6,19,79.7,37.9,74.4,62.1
			c-42,34.2-48.4,96-14.1,138.1s96,48.4,138.1,14.1s48.4-96,14.1-138.1C208.3,71.1,203.5,66.3,198.4,62.1z"/>
		<g id="gola">
			<path class="st2" d="M123.7,103.2c-2.6-2.9-5.8-6.7-8.5-7.7s-4.4-1.4-6.8-2.5c-14.3-6.3-26.1-17-33.8-30.6c-0.1,0.5-1.9,1.5-2,2
				c-1.7,7.4-2.8,14.9-3.4,22.5c-0.6,8.6-0.5,17.2,0.3,25.8c6-4.9,12.6-9,19.7-12.3c7.8-3.5,18.4-5.3,23.4-3.9
				c4.4,1.2,7.2,5.6,9.7,8.2c4.2,4.4,8,9,11.6,13.9c0.3,0.5,0.6,1.1,0.7,1.7c0,0.1,1,104.8,1.1,116c0,0.3,2,0.3,2,0
				c-0.1-11.3-1-115.9-1.1-116c-0.2-0.9-0.6-1.8-1-2.6C134.2,115.7,125.8,105.6,123.7,103.2z"/>
			<path class="st2" d="M149.6,103.2c2.6-2.9,5.8-6.7,8.5-7.7s4.4-1.4,6.8-2.5c14.3-6.3,26.1-17,33.8-30.6c0.1,0.5,1.9,1.5,2,2
				c1.7,7.4,2.8,14.9,3.4,22.5c0.6,8.6,0.5,17.2-0.3,25.8c-6-4.9-12.6-9-19.7-12.3c-7.8-3.5-18.4-5.3-23.4-3.9
				c-4.4,1.2-7.2,5.6-9.7,8.2c-4.2,4.4-8,9-11.6,13.9c-0.3,0.5-0.6,1.1-0.7,1.7c0,0.1-0.9,104.8-1.1,116c0,0.3-2,0.3-2,0
				c0.1-11.3,1-115.9,1.1-116c0.2-0.9,0.6-1.8,1-2.6C139.1,115.7,147.5,105.6,149.6,103.2z"/>
		</g>
		<path id="nariz" class="st2" d="M142.2,53c0,2.2-4.3,5.3-5.9,5.3s-5.9-3.1-5.9-5.3s2.3-2.7,5.9-2.7S142.2,50.8,142.2,53z"/>
		<g>
			<g id="sorriso" class="st3">
				<path class="st4" d="M135.4,98.3c-31.2,0-36.8-28.2-36.8-28.2h73.7C172.2,70.1,166.5,98.3,135.4,98.3z"/>
				<g class="st5">
					<ellipse class="st6" cx="135.3" cy="85.8" rx="16.8" ry="7.6"/>
					<g>
						<path class="st7" d="M135.3,97.2c-17.3,0-28.7-12-29.8-13.8c-0.7-1.1-0.5-1.9-0.2-2.4c0.9-1.5,3.5-1.6,4.3-1.6h0.3l0.2,0.2
							c0.1,0.1,11.2,9.8,25.3,9.8c17.5,0,25.1-9.6,25.1-9.7l0.2-0.3h0.4c1.6,0,4.6,0,4.6,3.1v0.2l-0.1,0.2
							C165.5,82.9,156.8,97.2,135.3,97.2L135.3,97.2z"/>
						<path class="st2" d="M161.1,80c2.1,0,3.8,0.2,3.8,2.4c0,0-8.2,14-29.5,14l0,0c-16.3,0-27.8-11.2-29.2-13.5
							c-1.3-2.2,1.3-2.9,3.4-2.9c0,0,11.2,10,25.8,10C153.5,90,161.1,80,161.1,80 M161.1,78.5h-0.8l-0.4,0.6
							c-0.1,0.2-7.5,9.4-24.5,9.4c-13.8,0-24.7-9.5-24.8-9.6l-0.4-0.4h-0.6c-1.1,0-3.9,0.2-5,2c-0.3,0.5-0.7,1.7,0.2,3.2
							c1.9,3.1,13.9,14.2,30.4,14.2c21.9,0,30.5-14.2,30.9-14.8l0.2-0.4v-0.4C166.4,78.5,162.5,78.5,161.1,78.5L161.1,78.5z"/>
					</g>
					<g>
						<path class="st7" d="M134.9,81.7c-0.5,0.1-1.2,0.2-2.3,0.2h-1.4c-1.5-0.1-2.4-0.3-2.8-0.7c-0.5,0.1-1.3,0.3-2.6,0.3
							c-1.2,0-2-0.3-2.4-0.6c-1.1,0.6-1.5,0.6-1.7,0.6c-0.1,0-0.2,0-0.4-0.1l0.1,0.2l-1.5-0.2c-4.5-0.5-10.6-1.7-10.6-5.9
							c0-3,1.1-4.4,3.7-4.4h6.8v0.4c0.4-0.2,0.9-0.4,1.4-0.4c1,0,1.7,0.5,2.2,1l0.1-0.1l0.1,0.1c0.6-0.5,1.5-1,2.6-1
							c1.3,0,2.2,0.6,2.8,1.1c0.6-0.5,1.7-1.1,3.2-1.1s2.6,0.7,3.2,1.2c0.6-0.5,1.7-1.2,3.2-1.2c1.4,0,2.5,0.6,3.2,1.1
							c0.6-0.5,1.5-1.1,2.8-1.1c1.2,0,2.1,0.6,2.7,1.1c0.5-0.5,1.2-1.1,2.3-1.1c0.6,0,1,0.2,1.4,0.4v-0.4h7.6c1.9,0,3,0.7,3,4.4
							c0,4.2-6.1,5.4-10.7,5.9l-1.5,0.2l0.1-0.2c-0.2,0.1-0.4,0.1-0.4,0.1c-0.4,0-1.1-0.3-1.7-0.7c-0.4,0.3-1.2,0.7-2.4,0.7
							c-1.3,0-2.1-0.1-2.6-0.3c-0.3,0.3-0.9,0.6-2.8,0.7h-1.4c-1.1,0-1.9-0.1-2.4-0.2l-0.4,1.1L134.9,81.7z"/>
						<path class="st2" d="M158.5,71.9c1.3,0,2.3,0.2,2.3,3.7c0,3.1-4,4.5-10.1,5.1l1-1.7c0,0-2.3,1.8-2.7,1.8s-1.8-0.8-1.8-0.8v0.4
							v-0.6c0,0-0.1,1-2.3,1c-3.1,0-3-0.6-3-0.6l0,0l-0.1,0.6c-0.1,0.1-0.5,0.4-2.3,0.5c-0.4,0-0.9,0-1.3,0c-2.4,0-2.8-0.4-2.8-0.5
							l0,0l0,0l0,0l0,0c0,0.1-0.4,0.5-2.7,0.5c-0.5,0-1,0-1.4,0c-2.2-0.1-2.2-0.5-2.2-0.5l0,0l-0.1-0.5l0,0l0,0c0,0,0.1,0.6-3,0.6
							c-2.2,0-2.3-1-2.3-1v0.2c-0.3,0.2-1.3,0.8-1.7,0.8c-0.4,0-2.7-1.8-2.7-1.8l1,1.7c-6-0.7-9.9-2.1-9.9-5.1
							c0-3.2,1.3-3.7,2.9-3.7h6.1v1.4c0,0,0.8-1.4,2.2-1.4c1.2,0,2,1.2,2.2,1.4l0,0l0,0l0,0l0,0c0.1-0.2,1.2-1.4,2.7-1.4
							c1.7,0,2.8,1.4,2.8,1.4s1.2-1.4,3.2-1.4s3.2,1.4,3.2,1.4s1.2-1.4,3.2-1.4s3.2,1.4,3.2,1.4s1.1-1.4,2.8-1.4s2.8,1.4,2.8,1.4
							s0.8-1.4,2.2-1.4s2.2,1.4,2.2,1.4V72h6.2C158.1,71.9,158.3,71.9,158.5,71.9 M158.5,70.4h-0.3h-0.3h-6.2h-1.5v0.1
							c-0.2,0-0.5-0.1-0.7-0.1c-1,0-1.7,0.4-2.3,0.8c-0.7-0.4-1.6-0.8-2.7-0.8c-1.2,0-2.2,0.5-2.8,0.9c-0.7-0.5-1.8-0.9-3.1-0.9
							c-1.4,0-2.5,0.5-3.2,1c-0.7-0.5-1.8-1-3.2-1c-1.3,0-2.4,0.5-3.1,0.9c-0.7-0.5-1.6-0.9-2.8-0.9c-1,0-1.8,0.3-2.4,0.7l-0.2-0.4
							l-0.3,0.3c-0.5-0.4-1.2-0.6-2-0.6c-0.2,0-0.5,0-0.7,0.1v-0.1h-1.5h-6.1c-3,0-4.4,1.7-4.4,5.2c0,4.8,6.4,6.1,11.3,6.6l2.9,0.3
							l-0.2-0.4c0.2-0.1,0.5-0.2,0.8-0.4c0.6,0.3,1.3,0.5,2.4,0.5c1,0,1.8-0.1,2.5-0.2c0.8,0.5,2.1,0.6,2.9,0.6l0,0l0,0
							c0.5,0,0.9,0,1.4,0c0.7,0,1.3-0.1,1.9-0.1l0.9,2.5l0.9-2.5c0.5,0.1,1.1,0.1,1.9,0.1c0.5,0,0.9,0,1.3,0c1.5-0.1,2.4-0.3,3-0.6
							c0.6,0.1,1.4,0.2,2.4,0.2c1.1,0,1.9-0.2,2.5-0.5c0.3,0.2,0.6,0.3,0.9,0.4l-0.2,0.4l2.9-0.3c4.9-0.5,11.4-1.8,11.4-6.6
							C162.3,71.9,161.2,70.4,158.5,70.4L158.5,70.4z"/>
					</g>
				</g>
				<g class="st5">
					<path class="st2" d="M175.2,73.3c0.4,0,0.7-0.2,0.9-0.6c0.2-0.5,0-1.1-0.5-1.3c-0.7-0.3-2.5-1.2-3.1-1.7
						c-0.7-0.5-2.2-1.9-2.7-2.4c-0.4-0.4-1-0.4-1.4,0s-0.4,1,0,1.4c0.2,0.2,2.1,2,3,2.6s3.1,1.7,3.4,1.9
						C174.9,73.2,175.1,73.3,175.2,73.3z"/>
				</g>
				<g class="st5">
					<path class="st2" d="M96.2,73.3c-0.4,0-0.7-0.2-0.9-0.6c-0.2-0.5,0-1.1,0.5-1.3c0.7-0.3,2.5-1.2,3.1-1.7
						c0.7-0.5,2.2-1.9,2.7-2.4c0.4-0.4,1-0.4,1.4,0s0.4,1,0,1.4c-0.2,0.2-2.1,2-3,2.6s-3.1,1.7-3.4,1.9
						C96.5,73.2,96.3,73.3,96.2,73.3z"/>
				</g>
			</g>
			<g id="boca" class="st3">
				<path class="st4" d="M147.8,73.4c-5.1,0-8.1-1.6-9.3-2.4c-0.4-0.3-1-0.4-1.5-0.1c-2.4,1.1-9.4,4-15.2,1.6
					c-4.6-2-4.3-5.6-3.6-7.9c0.2-0.5,0.7-0.8,1.2-0.6c0.2,0.1,0.4,0.2,0.5,0.4c1.1,1.9,2.9,3.4,4.9,4.1c3.8,1.5,9.3,0.2,11.7-0.6
					c0.8-0.2,1.6-0.1,2.3,0.3c2.7,1.7,5.8,2.5,8.9,2.3c2.1-0.2,4.2-0.9,6-2.1c0.3-0.2,0.8-0.2,1,0.2c0.2,0.2,0.2,0.6,0,0.8
					C153.5,71.9,150.8,73.5,147.8,73.4z"/>
			</g>
			<g id="boca2" class="st3">
				<path class="st4" d="M107.4,80.8c-0.5,0-1-0.4-1-1s0.4-1,1-1l58-2c0.5,0,1,0.4,1,1s-0.4,1-1,1L107.4,80.8
					C107.5,80.8,107.5,80.8,107.4,80.8z"/>
			</g>
			<path id="boca3" class="st8" d="M158.6,76.3c0-0.1,0.1-0.1,0.1-0.2s0-0.1,0-0.2v-0.1c0,0,0,0,0-0.1s0-0.1-0.1-0.2
				c0-0.1,0-0.1-0.1-0.2c0,0,0,0,0-0.1c0,0-2.2-3.6-3.3-7.7c-1-4.1-1.4-7.8-1.4-7.8c-0.1-0.4-0.4-0.9-0.9-0.8
				c-0.4,0.1-0.9,0.4-0.8,0.9c0,0.2,0.3,3.8,1.4,8c0.7,2.8,2,5.4,2.8,6.9L135,75.6c-6,0.3-21.1,2.1-21.7,2.2
				c-0.4,0.1-0.8,0.5-0.8,0.9c0.1,0.4,0.4,0.8,0.9,0.8h0.1c0.2,0,15.7-1.9,21.5-2.2l22.8-0.9l0,0c0.1,0,0.2,0,0.3-0.1h0.1
				c0,0,0,0,0.1,0l0.1-0.1c0.1,0,0.1-0.1,0.2-0.1C158.5,76.4,158.5,76.3,158.6,76.3z"/>
			<path id="boca4" class="st2" d="M158.6,77.3c0-0.1,0.1-0.1,0.1-0.2s0-0.1,0-0.2v-0.1c0,0,0,0,0-0.1s0-0.1-0.1-0.2
				c0-0.1,0-0.1-0.1-0.2c0,0,0,0,0-0.1c0,0-2.2-3.6-3.3-7.7c-1-4.1-1.4-7.8-1.4-7.8c-0.1-0.4-0.4-0.9-0.9-0.8
				c-0.4,0.1-0.9,0.4-0.8,0.9c0,0.2,0.3,3.8,1.4,8c0.7,2.8,2,5.4,2.8,6.9c0,0-8.8,3.2-21.3,4.1s-21.1-2.2-21.7-2.1
				c-0.4,0.1-0.8,0.5-0.8,0.9c0.1,0.4,0.4,0.8,0.9,0.8c0,0,10.1,3.1,21.8,2.2s22.5-4.2,22.5-4.2l0,0c0.1,0,0.2,0,0.3-0.1h0.1
				c0,0,0,0,0.1,0l0.1-0.1c0.1,0,0.1-0.1,0.2-0.1S158.5,77.3,158.6,77.3z"/>
		</g>
		<path class="st9" d="M140.9,41.4c-0.1-1.8-2.1-3.2-4.4-3.3c-2.5,0-4.6,1.3-4.6,3.3"/>
		<g>
			<g id="olhos">
				<path class="st2" d="M109.9,60.2C99.8,59.9,96.1,53,95.9,47c-0.2-4.9,0.9-11.9,6.8-14c5.2-1.8,20.7-3.5,25.6,3
					C132.2,41.3,120.8,60.5,109.9,60.2z"/>
				<path class="st2" d="M162.9,60.2c10.1-0.3,13.8-7.2,14-13.2c0.2-4.9-1-11.9-6.8-14c-5.2-1.8-20.7-3.5-25.6,3
					C140.5,41.3,152,60.5,162.9,60.2z"/>
			</g>
			<g id="olhos_1_">
				<path class="st7" d="M121.9,46.3c0,0-4.2-2.4-11.3-2.4s-11.9,2.4-11.9,2.4c-0.7,0-1.2-0.6-1.2-1.2l0,0c0-0.7,0.6-1.2,1.2-1.2
					c0,0,4.6-2.4,11.9-2.4s11.3,2.4,11.3,2.4c0.7,0,1.2,0.6,1.2,1.2l0,0C123.1,45.7,122.6,46.3,121.9,46.3z"/>
				<path class="st7" d="M174.1,46.3c0,0-4.2-2.4-11.3-2.4s-11.9,2.4-11.9,2.4c-0.7,0-1.2-0.6-1.2-1.2l0,0c0-0.7,0.6-1.2,1.2-1.2
					c0,0,4.6-2.4,11.9-2.4c7.3,0,11.3,2.4,11.3,2.4c0.7,0,1.2,0.6,1.2,1.2l0,0C175.3,45.7,174.7,46.3,174.1,46.3z"/>
			</g>
			<g id="olhos3" class="st3">
				<path class="st10" d="M121.5,40.5H99.9c-0.5,0-0.9,0.4-0.9,0.9s0.4,0.9,0.9,0.9h20.7v4.1c0,0.5,0.4,0.9,0.9,0.9s0.9-0.4,0.9-0.9
					v-5C122.4,40.9,121.9,40.5,121.5,40.5z"/>
				<path class="st10" d="M169.3,40.5h-21.6c-0.5,0-0.9,0.4-0.9,0.9s0.4,0.9,0.9,0.9h20.7v4.1c0,0.5,0.4,0.9,0.9,0.9
					s0.9-0.4,0.9-0.9v-5C170.1,40.9,169.7,40.5,169.3,40.5z"/>
			</g>
			<g id="olhos4" class="st3">
				<path class="st4" d="M101.5,51.9H117c4.6-2,7.7-5.8,7.3-9.6c-0.2-1.7-1-3.2-2.3-4.4h-22c-2.6,2.1-4,4.8-3.8,7.6
					C96.5,48.2,98.5,50.5,101.5,51.9z"/>
				<path class="st4" d="M171.6,51.9h-15.5c-4.6-2-7.7-5.8-7.3-9.6c0.2-1.7,1-3.2,2.3-4.4h22c2.6,2.1,4,4.8,3.8,7.6
					C176.5,48.2,174.5,50.5,171.6,51.9z"/>
			</g>
		</g>
	</g>
</g>
</svg>
