<svg xmlns="http://www.w3.org/2000/svg" viewBox="0 0 229.4 23.8">
    <defs>
        <style>
            .cls-1 {
                isolation:isolate;
                }
                .cls-3 {
                    fill:#c4c9cc;
                }
        </style>
    </defs>
    <g class="cls-1">
        <path id="corpo" class="cls-3" d="M212.76,8.84A375.36,375.36,0,0,0,175,4.64c-1.26-.43-4.7-1.11-6.71-1.48C180.36,1.37,159-.7,142.63.69c-17.58-.92-38.28-.92-55.85,0A148.75,148.75,0,0,0,68.25.39c-.72,0,.66.38,0,.42S65.17.57,64.69.61c-6.91.54-10.07,1.59-3.53,2.55-2,.37-5.45,1.06-6.71,1.48a374.59,374.59,0,0,0-37.81,4.2c-21,3.55-20.66,6.59-7,6.8a41,41,0,0,0,8.45-.88,15.85,15.85,0,0,1,5.91,0c2,1.54,6.52,3,13.43,4.42,13.52,2.63,40.07,4.9,50.2,4.55,9.21-.35,11-2.16,27.09-2.23s17.88,1.88,27.09,2.23c10.14.35,36.69-1.92,50.2-4.55,6.91-1.38,11.45-2.88,13.43-4.42a15.9,15.9,0,0,1,5.92,0,40.61,40.61,0,0,0,8.44.88C233.43,15.43,233.81,12.39,212.76,8.84Z"/>
    </g>
</svg>