<svg xmlns="http://www.w3.org/2000/svg" viewBox="0 0 223.79 254.73"><defs><style>.cls-1{opacity:0.33;}.cls-2{fill:#4d4d4d;}.cls-3{opacity:0.11;}</style></defs><g id="Layer_2" data-name="Layer 2"><g id="Layer_1-2" data-name="Layer 1"><g class="cls-1"><path class="cls-2" d="M110.65,36.1a2.54,2.54,0,0,0-1.25.33l-12.13,7a2.5,2.5,0,0,0,1.26,4.67,2.44,2.44,0,0,0,1.24-.34l10.56-6.09h0l0,0h0l0,0h.09l0,0h.17l0,0h0l.05,0h0l0,0h0l.07,0h0l.07,0h0l0,0h0l0,0h0l0,0h0l.06,0h0l0,0h0l0,0h0l0,0h0l0,0h0l0,0h0l.27-.16h0l.14-.08h0a2.7,2.7,0,0,0,.39-.27,2.44,2.44,0,0,0,1,1.08l12.12,7a2.45,2.45,0,0,0,1.25.34,2.5,2.5,0,0,0,1.25-4.67l-12.12-7a2.6,2.6,0,0,0-1.25-.33,2.51,2.51,0,0,0-1.65.61.7.7,0,0,0-.09-.17,2.49,2.49,0,0,0-2.16-1.25ZM86.4,50.1a2.54,2.54,0,0,0-1.25.33L73,57.43a2.5,2.5,0,0,0,2.5,4.34l12.13-7A2.5,2.5,0,0,0,86.4,50.1Zm-24.25,14a2.54,2.54,0,0,0-1.25.33l-12.12,7A2.5,2.5,0,0,0,50,76.1a2.53,2.53,0,0,0,1.24-.33l8.82-5.09h0l.24-.15h0l0,0h0l0,0h0l2.92-1.69a2.49,2.49,0,0,0,.92-3.41,2.52,2.52,0,0,0-2.17-1.25ZM37.9,78.1a2.57,2.57,0,0,0-1.25.33L34.4,79.74a5,5,0,0,0-2.5,4.33V95.46a2.5,2.5,0,0,0,5,0V84.07h0l2.25-1.31a2.49,2.49,0,0,0,.92-3.41A2.52,2.52,0,0,0,37.9,78.1ZM34.4,107a2.5,2.5,0,0,0-2.5,2.5v14a2.5,2.5,0,0,0,5,0v-14a2.5,2.5,0,0,0-2.5-2.5Zm0,28a2.5,2.5,0,0,0-2.5,2.5v14a2.5,2.5,0,0,0,5,0v-14a2.5,2.5,0,0,0-2.5-2.5Zm0,28a2.5,2.5,0,0,0-2.5,2.5v5.21A5,5,0,0,0,34.4,175L42,179.4a2.6,2.6,0,0,0,1.25.33,2.5,2.5,0,0,0,1.25-4.66l-4.09-2.37h0l-.19-.1h0l-.11-.06h0l0,0h0l0,0h0l-.07-.05h0l0,0h-.07l0,0h0l0,0h-.09l0,0h0l0,0h-.22l-.06,0h0l0,0h0l0,0h0l0,0h0l0,0h0l0,0H39l-.07,0h0l-.08,0h0l-.08-.05h0l0,0h-.06l-.27-.16h0l-.06,0h0l-.06,0h0l-.06,0h0l0,0h0l-.06,0h0l-.06,0h0l-.12-.07h0l-.23-.14h0l-.37-.21h0l-.32-.19v-5.21a2.5,2.5,0,0,0-2.5-2.5Zm21,18.77a2.5,2.5,0,0,0-1.25,4.67l12.12,7a2.6,2.6,0,0,0,1.25.33,2.52,2.52,0,0,0,2.17-1.25,2.49,2.49,0,0,0-.92-3.41L61,184.57h-.06l0,0h-.18l0,0h0l0,0h0l0,0h0l-.05,0h0l-.06,0h0l-3.83-2.22a2.6,2.6,0,0,0-1.25-.33Zm24.25,14a2.5,2.5,0,0,0-1.25,4.67l12.12,7a2.6,2.6,0,0,0,1.25.33,2.52,2.52,0,0,0,2.17-1.25,2.49,2.49,0,0,0-.92-3.41l-4.93-2.85h0l-.14-.08h0l-.14-.08h0l-.27-.16,0,0h0l0,0h0l-.06,0h0l0,0h-.08l-.05,0h-.06l-6.26-3.61a2.5,2.5,0,0,0-1.25-.34Zm24.25,14a2.5,2.5,0,0,0-1.25,4.67l6.76,3.9a4.93,4.93,0,0,0,2.5.67,5,5,0,0,0,2.5-.67l5.36-3.1a2.49,2.49,0,0,0,.92-3.41,2.52,2.52,0,0,0-2.17-1.25,2.6,2.6,0,0,0-1.25.33L111.9,214l-.08,0h0l-.09-.06h0l-.06,0h0l0,0h-.21l-6.24-3.6a2.5,2.5,0,0,0-1.25-.34Zm38.87-13.19a2.5,2.5,0,0,0-1.24.33l-12,6.92h0l-.1,0h0l0,0h0a2.5,2.5,0,0,0,1.26,4.67,2.44,2.44,0,0,0,1.24-.34l12.13-7a2.5,2.5,0,0,0-1.25-4.66Zm24.25-14a2.54,2.54,0,0,0-1.25.33l-12.13,7a2.5,2.5,0,0,0,1.26,4.66,2.44,2.44,0,0,0,1.24-.34l12.13-7a2.5,2.5,0,0,0-1.25-4.66Zm22.39-18a2.5,2.5,0,0,0-2.5,2.5v3.59h0l-9,5.21a2.5,2.5,0,0,0,1.26,4.66,2.45,2.45,0,0,0,1.25-.34l9-5.2a5,5,0,0,0,2.5-4.33v-3.59a2.5,2.5,0,0,0-2.5-2.5Zm0-28a2.5,2.5,0,0,0-2.5,2.5v14a2.5,2.5,0,0,0,5,0v-14a2.5,2.5,0,0,0-2.5-2.5Zm0-28a2.5,2.5,0,0,0-2.5,2.5v14a2.5,2.5,0,1,0,5,0v-14a2.5,2.5,0,0,0-2.5-2.5Zm-2.11-29.67A2.5,2.5,0,0,0,186,83.57l.83.48h0v13a2.5,2.5,0,1,0,5,0v-13a5,5,0,0,0-2.5-4.33l-.86-.5a2.54,2.54,0,0,0-1.25-.33Zm-24.24-14a2.5,2.5,0,0,0-1.26,4.66l12.13,7a2.45,2.45,0,0,0,1.25.34,2.5,2.5,0,0,0,1.25-4.67l-12.13-7a2.53,2.53,0,0,0-1.24-.33Zm-24.25-14a2.5,2.5,0,0,0-1.26,4.66l12.13,7a2.45,2.45,0,0,0,1.25.34,2.5,2.5,0,0,0,1.25-4.67l-12.13-7a2.53,2.53,0,0,0-1.24-.33Z"/></g><g class="cls-3"><path class="cls-2" d="M93.83,76.83a1.53,1.53,0,0,0-.75.2l-8.66,5a1.5,1.5,0,0,0,.75,2.8,1.42,1.42,0,0,0,.74-.2l8.67-5a1.5,1.5,0,0,0-.75-2.8Zm-17.32,10a1.53,1.53,0,0,0-.75.2L67.1,92a1.5,1.5,0,0,0,.75,2.8,1.42,1.42,0,0,0,.74-.2l8.67-5a1.5,1.5,0,0,0-.75-2.8ZM60.4,99.26a1.5,1.5,0,0,0-1.5,1.5v10a1.5,1.5,0,0,0,3,0v-10a1.5,1.5,0,0,0-1.5-1.5Zm0,20a1.5,1.5,0,0,0-1.5,1.5v10a1.5,1.5,0,0,0,3,0v-10a1.5,1.5,0,0,0-1.5-1.5Zm0,20a1.5,1.5,0,0,0-1.5,1.5v10a1.5,1.5,0,0,0,3,0v-10a1.5,1.5,0,0,0-1.5-1.5Zm4.67,19a1.5,1.5,0,0,0-.75,2.8l8.66,5a1.56,1.56,0,0,0,.75.2,1.5,1.5,0,0,0,.76-2.8l-8.67-5a1.48,1.48,0,0,0-.75-.2Zm17.32,10a1.5,1.5,0,0,0-.75,2.8l8.66,5a1.59,1.59,0,0,0,.75.2,1.5,1.5,0,0,0,.75-2.8l-8.66-5a1.46,1.46,0,0,0-.75-.2Zm17.32,10a1.5,1.5,0,0,0-.75,2.8l8.66,5a1.59,1.59,0,0,0,.75.2,1.5,1.5,0,0,0,.76-2.8l-8.67-5a1.46,1.46,0,0,0-.75-.2Zm27.48-1.8a1.59,1.59,0,0,0-.75.2l-8.66,5a1.49,1.49,0,0,0,.75,2.79,1.43,1.43,0,0,0,.75-.2l8.66-5a1.5,1.5,0,0,0-.75-2.8Zm17.32-10a1.52,1.52,0,0,0-.74.2l-8.44,4.87h0l-.06,0h-.15a1.49,1.49,0,0,0,.75,2.79,1.43,1.43,0,0,0,.75-.2l8.66-5a1.5,1.5,0,0,0-.75-2.8Zm17.32-10a1.52,1.52,0,0,0-.74.2l-8.67,5a1.49,1.49,0,0,0,.75,2.79,1.43,1.43,0,0,0,.75-.2l8.66-5a1.5,1.5,0,0,0-.75-2.8Zm1.57-20.82a1.5,1.5,0,0,0-1.5,1.5v10a1.5,1.5,0,0,0,3,0v-10a1.5,1.5,0,0,0-1.5-1.5Zm0-20a1.5,1.5,0,0,0-1.5,1.5v10a1.5,1.5,0,1,0,3,0v-10a1.5,1.5,0,0,0-1.5-1.5ZM161.5,95a1.5,1.5,0,0,0-.75,2.8l1.11.64h0v8.68a1.5,1.5,0,1,0,3,0V98.5a3,3,0,0,0-1.5-2.6l-1.15-.66a1.46,1.46,0,0,0-.75-.2ZM144.18,85a1.5,1.5,0,0,0-.76,2.79l4.31,2.49h0l0,0h0l4.3,2.48a1.56,1.56,0,0,0,.75.2,1.5,1.5,0,0,0,.75-2.8l-8.66-5a1.46,1.46,0,0,0-.75-.2ZM126.86,75a1.5,1.5,0,0,0-.75,2.8l8.66,5a1.59,1.59,0,0,0,.75.2,1.5,1.5,0,0,0,.75-2.8l-8.66-5a1.48,1.48,0,0,0-.75-.2Zm-14.21-8.21a1.53,1.53,0,0,0-.75.2,1.51,1.51,0,0,0-1.5,0l-8.66,5a1.5,1.5,0,0,0,.75,2.8,1.48,1.48,0,0,0,.75-.2l5.3-3.06h0l.87-.5h0l.23-.13h0l.08,0h.07l0,0h0l0,0h0l0,0h.12l0,0h.05l.06,0h0l0,0h.27l0,0h.16l0,0h0l0,0h0l0,0h0l.06,0h0l.07,0h0l.07,0h0l.06,0h0l.2-.12h0l.19-.11h0l.37-.22h0l5.55,3.21a1.56,1.56,0,0,0,.75.2,1.5,1.5,0,0,0,.75-2.8L113.4,67a1.59,1.59,0,0,0-.75-.2Z"/></g><path class="cls-2" d="M217.85,59.33l-100-57.74a11.93,11.93,0,0,0-11.9,0L6,59.33A11.89,11.89,0,0,0,0,69.63V185.1a11.92,11.92,0,0,0,6,10.31l100,57.73a11.93,11.93,0,0,0,11.9,0l100-57.73a11.91,11.91,0,0,0,5.94-10.31V69.63A11.88,11.88,0,0,0,217.85,59.33ZM111.9,11.9l97.5,56.29-97.5,56.29L14.4,68.19ZM11.9,185.1V72.52l97.5,56.29V241.39Zm102.5,56.29V128.81l97.5-56.29V185.1Z"/></g></g></svg>