<?xml version="1.0" encoding="utf-8"?>
<!-- Generator: Adobe Illustrator 25.3.0, SVG Export Plug-In . SVG Version: 6.00 Build 0)  -->
<svg version="1.1" id="Background" xmlns="http://www.w3.org/2000/svg" xmlns:xlink="http://www.w3.org/1999/xlink" x="0px" y="0px"
	 viewBox="0 0 2475 1650" style="enable-background:new 0 0 2475 1650;" xml:space="preserve">
<style type="text/css">
	.st0{fill:#ECF3F8;}
	.st1{fill:#91B3FA;}
	.st2{fill:#EDF3F8;stroke:#000000;stroke-width:0.55;stroke-miterlimit:10;}
	.st3{fill:#25557C;}
	.st4{fill:#ABB0B7;}
	.st5{fill:#D4DBE7;}
	.st6{fill:url(#SVGID_1_);}
	.st7{fill:url(#SVGID_2_);}
	.st8{fill:url(#SVGID_3_);}
	.st9{fill:#7D97F4;}
	.st10{fill:url(#SVGID_4_);}
	.st11{fill:url(#SVGID_5_);}
	.st12{fill:url(#SVGID_6_);}
	.st13{fill:url(#SVGID_7_);}
	.st14{fill:url(#SVGID_8_);}
	.st15{fill:url(#SVGID_9_);}
	.st16{fill:url(#SVGID_10_);}
	.st17{fill:url(#SVGID_11_);}
	.st18{fill:url(#SVGID_12_);}
	.st19{fill:url(#SVGID_13_);}
	.st20{fill:url(#SVGID_14_);}
	.st21{fill:url(#SVGID_15_);}
	.st22{fill:url(#SVGID_16_);}
	.st23{fill:url(#SVGID_17_);}
	.st24{fill:url(#SVGID_18_);}
	.st25{fill:url(#SVGID_19_);}
	.st26{fill:url(#SVGID_20_);}
	.st27{fill:url(#SVGID_21_);}
	.st28{fill:url(#SVGID_22_);}
	.st29{fill:url(#SVGID_23_);}
	.st30{fill:url(#SVGID_24_);}
	.st31{fill:url(#SVGID_25_);}
	.st32{fill:url(#SVGID_26_);}
	.st33{fill:url(#SVGID_27_);}
	.st34{fill:url(#SVGID_28_);}
	.st35{fill:url(#SVGID_29_);}
	.st36{fill:url(#SVGID_30_);}
	.st37{fill:url(#SVGID_31_);}
	.st38{fill:url(#SVGID_32_);}
	.st39{fill:url(#SVGID_33_);}
	.st40{fill:url(#SVGID_34_);}
	.st41{fill:url(#SVGID_35_);}
	.st42{fill:url(#SVGID_36_);}
	.st43{fill:url(#SVGID_37_);}
	.st44{fill:url(#SVGID_38_);}
	.st45{fill:url(#SVGID_39_);}
	.st46{fill:url(#SVGID_40_);}
	.st47{fill:url(#SVGID_41_);}
	.st48{fill:url(#SVGID_42_);}
	.st49{fill:url(#SVGID_43_);}
	.st50{fill:url(#SVGID_44_);}
	.st51{fill:url(#SVGID_45_);}
	.st52{fill:url(#SVGID_46_);}
	.st53{fill:url(#SVGID_47_);}
	.st54{fill:url(#SVGID_48_);}
	.st55{fill:url(#SVGID_49_);}
	.st56{fill:url(#SVGID_50_);}
	.st57{fill:url(#SVGID_51_);}
	.st58{fill:url(#SVGID_52_);}
	.st59{fill:url(#SVGID_53_);}
	.st60{fill:url(#SVGID_54_);}
	.st61{fill:url(#SVGID_55_);}
	.st62{fill:url(#SVGID_56_);}
	.st63{fill:url(#SVGID_57_);}
	.st64{fill:url(#SVGID_58_);}
	.st65{fill:url(#SVGID_59_);}
	.st66{fill:url(#SVGID_60_);}
	.st67{fill:url(#SVGID_61_);}
	.st68{fill:url(#SVGID_62_);}
	.st69{fill:url(#SVGID_63_);}
	.st70{fill:url(#SVGID_64_);}
	.st71{fill:url(#SVGID_65_);}
	.st72{fill:url(#SVGID_66_);}
	.st73{fill:url(#SVGID_67_);}
	.st74{fill:url(#SVGID_68_);}
	.st75{fill:url(#SVGID_69_);}
	.st76{fill:url(#SVGID_70_);}
	.st77{fill:url(#SVGID_71_);}
	.st78{fill:url(#SVGID_72_);}
	.st79{fill:url(#SVGID_73_);}
	.st80{fill:url(#SVGID_74_);}
	.st81{fill:url(#SVGID_75_);}
	.st82{fill:url(#SVGID_76_);}
	.st83{fill:url(#SVGID_77_);}
	.st84{fill:url(#SVGID_78_);}
	.st85{fill:url(#SVGID_79_);}
	.st86{fill:url(#SVGID_80_);}
	.st87{fill:url(#SVGID_81_);}
	.st88{fill:url(#SVGID_82_);}
	.st89{fill:url(#SVGID_83_);}
	.st90{fill:url(#SVGID_84_);}
	.st91{fill:url(#SVGID_85_);}
	.st92{fill:url(#SVGID_86_);}
	.st93{fill:url(#SVGID_87_);}
	.st94{fill:url(#SVGID_88_);}
	.st95{fill:url(#SVGID_89_);}
	.st96{fill:url(#SVGID_90_);}
	.st97{fill:url(#SVGID_91_);}
	.st98{fill:url(#SVGID_92_);}
	.st99{fill:url(#SVGID_93_);}
	.st100{fill:url(#SVGID_94_);}
	.st101{fill:url(#SVGID_95_);}
	.st102{fill:url(#SVGID_96_);}
	.st103{fill:url(#SVGID_97_);}
	.st104{fill:url(#SVGID_98_);}
	.st105{fill:url(#SVGID_99_);}
	.st106{fill:url(#SVGID_100_);}
	.st107{fill:url(#SVGID_101_);}
	.st108{fill:url(#SVGID_102_);}
	.st109{fill:url(#SVGID_103_);}
	.st110{fill:url(#SVGID_104_);}
	.st111{fill:url(#SVGID_105_);}
	.st112{fill:url(#SVGID_106_);}
	.st113{fill:url(#SVGID_107_);}
	.st114{fill:url(#SVGID_108_);}
	.st115{fill:url(#SVGID_109_);}
	.st116{fill:url(#SVGID_110_);}
	.st117{fill:url(#SVGID_111_);}
	.st118{fill:url(#SVGID_112_);}
	.st119{fill:url(#SVGID_113_);}
	.st120{fill:url(#SVGID_114_);}
	.st121{fill:url(#SVGID_115_);}
	.st122{fill:url(#SVGID_116_);}
	.st123{fill:url(#SVGID_117_);}
	.st124{fill:url(#SVGID_118_);}
	.st125{fill:url(#SVGID_119_);}
	.st126{fill:url(#SVGID_120_);}
	.st127{fill:url(#SVGID_121_);}
	.st128{fill:url(#SVGID_122_);}
	.st129{fill:url(#SVGID_123_);}
	.st130{fill:url(#SVGID_124_);}
	.st131{fill:url(#SVGID_125_);}
	.st132{fill:url(#SVGID_126_);}
	.st133{fill:url(#SVGID_127_);}
	.st134{fill:url(#SVGID_128_);}
	.st135{fill:url(#SVGID_129_);}
	.st136{fill:#112233;stroke:#000000;stroke-width:1.2;stroke-miterlimit:10;}
	.st137{fill:#112233;}
	.st138{display:none;}
	.st139{display:inline;fill:#112233;}
	.st140{display:inline;}
	.st141{fill:#58595B;}
	.st142{fill:#EDF3F8;}
	.st143{display:none;fill:#112233;}
	.st144{fill:#EDF3F8;stroke:#333333;stroke-width:0.5;stroke-linecap:round;stroke-miterlimit:10;}
	.st145{display:inline;fill:#EDF3F8;}
	.st146{fill:#102132;}
	.st147{fill:#1E3865;}
	.st148{fill:#FF912B;}
	.st149{fill:#162D3F;stroke:#000000;stroke-width:1.2;stroke-miterlimit:10;}
</style>
<g id="Illustration">
	<g>
		<path class="st0" d="M2227.5,742.2c-63.9-61-171.4-69-157.5-177.4c4.1-32.1,17.2-62.4,27.3-93.3c10.5-32.2,13.1-61.2,9.3-87
			c-14-94.5-113.5-147.7-224.2-170.1c-88.6-17.9-179.7-23.5-270.2-21.7c-63.5,1.3-126.8,6.2-189.9,12.9
			c-82.9,8.8-157.3,21.4-241.5,17.7c-86.3-3.8-172.3-14.6-256.6-32.3c-74.6-15.6-148.2-36.6-224.2-43.8
			c-89.9-8.4-311.6,18.2-265.8,151.3c8.3,24.1,13.5,51.1-16.1,65.5c-22,10.7-50.5,6.8-74.1,14.6c-45.2,15.1-83.4,49-99.7,91.3
			c-18.7,48.9-9.7,102.7,0.3,153.7c13.6,69.6,67.3,122.6,80.1,191.7c13.1,70.8-34.2,114.5-67,172c-50.6,88.8-23.5,206.4,47.1,281.3
			c44.2,46.9,104.2,79.7,168.3,100.1c74.1,0,148.1,0,222.2,0c161.6,0,323.2,0,484.8,0c158.4,0,316.8,0,475.3,0
			c85.7,0,176,0.5,259.3-24.4c83.4-24.9,172-84.4,195.3-167.4c10-35.5,6.9-73,14.6-108.9c9.6-45,35.9-86.4,65.6-122.5
			c27.7-33.6,63.9-49.8,72.8-96.2C2270.3,811.2,2256.7,770.1,2227.5,742.2z"/>
		<g>
			<path class="st1" d="M1309.1,853c1.4,9.5-3.7,18-13.1,19.4c-9.5,1.4-18.2-5.1-19.6-14.6c-1.4-9.5,2.9-18.8,12.4-20.2
				C1298.2,836.2,1307.7,843.6,1309.1,853z"/>
		</g>
		<g>
			<g>
				<g>
					<path class="st2" d="M200.1,1364.9l395.9,0v-79.2l-395.9,0C208.5,1285.7,208.5,1364.9,200.1,1364.9z"/>
					<path class="st3" d="M595.9,1345.1v-36.3c0-12.8-7.8-23.1-17.5-23.1H201.7c-7.6,0-13.7-6.2-13.7-13.7v0c0-2.3,1.9-4.2,4.2-4.2
						h411.7c9.4,0,24.4,14.8,24.4,33.2v50.6c0,17.3-14.6,31.3-23.5,31.3H194.3c-3.5,0-6.3-2.8-6.3-6.3c0-6.4,5.2-11.6,11.6-11.6H581
						C589.2,1364.9,595.9,1356,595.9,1345.1z"/>
				</g>
				<path class="st3" d="M585,1302.9H213.8c-0.5,0-0.9-0.4-0.9-0.9s0.4-0.9,0.9-0.9H585c0.5,0,0.9,0.4,0.9,0.9
					S585.5,1302.9,585,1302.9z"/>
				<path class="st3" d="M585,1314.6H213.8c-0.5,0-0.9-0.4-0.9-0.9s0.4-0.9,0.9-0.9H585c0.5,0,0.9,0.4,0.9,0.9
					S585.5,1314.6,585,1314.6z"/>
				<path class="st3" d="M585,1326.4H213.8c-0.5,0-0.9-0.4-0.9-0.9c0-0.5,0.4-0.9,0.9-0.9H585c0.5,0,0.9,0.4,0.9,0.9
					C585.9,1326,585.5,1326.4,585,1326.4z"/>
				<path class="st3" d="M585,1338.2H213.8c-0.5,0-0.9-0.4-0.9-0.9c0-0.5,0.4-0.9,0.9-0.9H585c0.5,0,0.9,0.4,0.9,0.9
					C585.9,1337.7,585.5,1338.2,585,1338.2z"/>
				<path class="st3" d="M585,1349.9H213.8c-0.5,0-0.9-0.4-0.9-0.9c0-0.5,0.4-0.9,0.9-0.9H585c0.5,0,0.9,0.4,0.9,0.9
					C585.9,1349.5,585.5,1349.9,585,1349.9z"/>
			</g>
			<g>
				<path class="st4" d="M258.1,1267.4h318.3c10.5,0,19-8.5,19-19v-48c0-10.5-8.5-19-19-19H258.1c-10.5,0-19,8.5-19,19v48
					C239.2,1258.9,247.7,1267.4,258.1,1267.4z"/>
				<path class="st5" d="M520.1,1257.5h28.2c3.8,0,6.8-3.1,6.8-6.8v-52.5c0-3.8-3.1-6.8-6.8-6.8h-28.2c-3.8,0-6.8,3.1-6.8,6.8v52.5
					C513.3,1254.5,516.3,1257.5,520.1,1257.5z"/>
				<path class="st5" d="M494.9,1257.5h8.8c1.9,0,3.5-1.6,3.5-3.5v-59.3c0-1.9-1.6-3.5-3.5-3.5h-8.8c-1.9,0-3.5,1.6-3.5,3.5v59.3
					C491.4,1256,493,1257.5,494.9,1257.5z"/>
			</g>
		</g>
		<g>
			<g>
				<linearGradient id="SVGID_1_" gradientUnits="userSpaceOnUse" x1="1401.6743" y1="451.7047" x2="1517.9822" y2="451.7047">
					<stop  offset="0" style="stop-color:#DAE3FE"/>
					<stop  offset="1" style="stop-color:#E9EFFD"/>
				</linearGradient>
				<path class="st6" d="M1459.5,509.9c-0.1,0-0.2,0-0.3,0l-12.6-1.5c-1.2-0.1-2.1-1-2.4-2.2l-2-9.4c-4.2-1.6-8.2-3.9-11.8-6.6
					l-9.1,3.1c-1.1,0.4-2.4,0-3.1-0.9l-7.9-10c-0.7-0.9-0.8-2.2-0.1-3.2l5.2-8c-1.8-4.2-3-8.5-3.6-13l-8.6-4.2
					c-1.1-0.5-1.7-1.6-1.5-2.8l1.5-12.6c0.1-1.2,1-2.1,2.2-2.4l9.4-2c1.6-4.2,3.9-8.2,6.6-11.8l-3.1-9.1c-0.4-1.1,0-2.3,0.9-3.1
					l10-7.9c0.9-0.7,2.2-0.8,3.2-0.1l8,5.2c4.2-1.8,8.5-3,13-3.6l4.2-8.6c0.5-1.1,1.6-1.7,2.8-1.5l12.6,1.5c1.2,0.1,2.1,1,2.4,2.2
					l2,9.4c4.2,1.6,8.2,3.9,11.8,6.6l9.1-3.1c1.1-0.4,2.3,0,3.1,0.9l7.9,10c0.7,0.9,0.8,2.2,0.1,3.2l-5.2,8c1.8,4.2,3,8.5,3.6,13
					l8.6,4.2c1.1,0.5,1.7,1.6,1.5,2.8l-1.5,12.6c-0.1,1.2-1,2.1-2.2,2.4l-9.4,2c-1.6,4.2-3.9,8.2-6.6,11.8l3.1,9.1
					c0.4,1.1,0,2.3-0.9,3.1l-10,7.9c-0.9,0.7-2.2,0.8-3.2,0.1l-8-5.2c-4.2,1.8-8.5,3-13,3.6l-4.2,8.6
					C1461.5,509.3,1460.6,509.9,1459.5,509.9z M1447.7,504.6l11.2,1.4l4.8-9.8l1-0.1c4.8-0.5,9.4-1.8,13.8-3.9l0.9-0.4l9.2,5.9
					l8.9-7l-3.6-10.3l0.7-0.8c3-3.8,5.4-8,7.1-12.5l0.4-1l10.7-2.3l1.4-11.2l-9.8-4.8l-0.1-1c-0.5-4.8-1.8-9.4-3.9-13.8l-0.4-0.9
					l5.9-9.2l-7-8.9l-10.3,3.6l-0.8-0.7c-3.8-3-8-5.4-12.5-7.1l-1-0.4l-2.3-10.7l-11.2-1.4l-4.8,9.8l-1,0.1
					c-4.8,0.5-9.4,1.8-13.8,3.9l-0.9,0.4l-9.2-5.9l-8.9,7l3.6,10.3l-0.7,0.8c-3,3.8-5.4,8-7.1,12.5l-0.4,1l-10.7,2.3l-1.4,11.2
					l9.8,4.8l0.1,1c0.5,4.8,1.8,9.4,3.9,13.8l0.4,0.9l-5.9,9.2l7,8.9l10.3-3.6l0.8,0.7c3.8,3,8,5.4,12.5,7.1l1,0.4L1447.7,504.6z
					 M1447,504.6L1447,504.6C1447,504.6,1447,504.6,1447,504.6z M1513.5,463.7C1513.5,463.7,1513.5,463.7,1513.5,463.7L1513.5,463.7
					z M1405.1,438.7L1405.1,438.7L1405.1,438.7z M1460.1,484.2c-1.3,0-2.6-0.1-3.9-0.2c-5.9-0.7-11.4-3-16.1-6.6
					c-0.8-0.6-1-1.8-0.3-2.7c0.6-0.8,1.8-1,2.7-0.3c4.1,3.2,9,5.2,14.2,5.8c15.8,1.9,30.2-9.4,32.1-25.2
					c1.9-15.8-9.4-30.2-25.2-32.1c-15.8-1.9-30.2,9.4-32.1,25.2c-0.2,2-0.3,4.1-0.1,6.1c0.1,1-0.7,2-1.7,2.1c-1,0.1-2-0.7-2.1-1.7
					c-0.2-2.3-0.2-4.6,0.1-6.9c2.2-17.8,18.4-30.6,36.3-28.4c17.8,2.2,30.6,18.4,28.4,36.3C1490.4,472,1476.3,484.2,1460.1,484.2z"
					/>
				<linearGradient id="SVGID_2_" gradientUnits="userSpaceOnUse" x1="1446.6277" y1="451.705" x2="1473.0287" y2="451.705">
					<stop  offset="0" style="stop-color:#DAE3FE"/>
					<stop  offset="1" style="stop-color:#E9EFFD"/>
				</linearGradient>
				<path class="st7" d="M1459.8,464.9c-1.6,0-3.2-0.3-4.8-0.9c-3.3-1.3-5.9-3.7-7.3-7c-1.4-3.2-1.5-6.8-0.2-10.1
					c1.3-3.3,3.7-5.9,7-7.3c3.2-1.4,6.8-1.5,10.1-0.2c3.3,1.3,5.9,3.7,7.3,7c1.4,3.2,1.5,6.8,0.2,10.1c-1.3,3.3-3.7,5.9-7,7.3
					C1463.5,464.5,1461.7,464.9,1459.8,464.9z M1459.8,442.3c-1.3,0-2.6,0.3-3.8,0.8c-2.3,1-4.1,2.9-5,5.2l0,0
					c-0.9,2.3-0.8,4.9,0.2,7.2c1,2.3,2.9,4.1,5.2,5c2.3,0.9,4.9,0.8,7.2-0.2c2.3-1,4.1-2.9,5-5.2c0.9-2.3,0.8-4.9-0.2-7.2
					c-1-2.3-2.9-4.1-5.2-5C1462.1,442.5,1461,442.3,1459.8,442.3z M1449.3,447.6L1449.3,447.6L1449.3,447.6z"/>
			</g>
			<g>
				<linearGradient id="SVGID_3_" gradientUnits="userSpaceOnUse" x1="1505.6536" y1="377.066" x2="1560.8905" y2="377.066">
					<stop  offset="0" style="stop-color:#DAE3FE"/>
					<stop  offset="1" style="stop-color:#E9EFFD"/>
				</linearGradient>
				<path class="st8" d="M1540,404.7c-0.5,0-1-0.2-1.4-0.7l-2.8-3.3c-2,0.2-4.1,0.2-6.1-0.1l-2.9,3.2c-0.5,0.6-1.4,0.7-2.1,0.4
					l-5.6-2.5c-0.7-0.3-1.2-1.1-1.1-1.8l0.4-4.3c-1.6-1.3-3-2.8-4.2-4.4l-4.3,0.2c-0.8,0-1.5-0.4-1.8-1.2l-2.2-5.7
					c-0.3-0.7-0.1-1.6,0.5-2.1l3.3-2.8c-0.2-2-0.2-4.1,0.1-6.1l-3.2-2.9c-0.6-0.5-0.7-1.4-0.4-2.1l2.5-5.6c0.3-0.7,1.1-1.2,1.8-1.1
					l4.3,0.4c1.3-1.6,2.8-3,4.4-4.2l-0.2-4.3c0-0.8,0.4-1.5,1.2-1.8l5.7-2.2c0.7-0.3,1.6-0.1,2.1,0.5l2.8,3.3c2-0.2,4.1-0.2,6.1,0.1
					l2.9-3.2c0.5-0.6,1.4-0.7,2.1-0.4l5.6,2.5c0.7,0.3,1.2,1.1,1.1,1.8l-0.4,4.3c1.6,1.3,3,2.8,4.2,4.4l4.3-0.2
					c0.8,0,1.5,0.4,1.8,1.2l2.2,5.7c0.3,0.7,0.1,1.6-0.5,2.1l-3.3,2.8c0.2,2,0.2,4.1-0.1,6.1l3.2,2.9c0.6,0.5,0.7,1.4,0.4,2.1
					l-2.5,5.6c-0.3,0.7-1.1,1.2-1.8,1.1l-4.3-0.4c-1.3,1.6-2.8,3-4.4,4.2l0.2,4.3c0,0.8-0.4,1.5-1.2,1.8l-5.7,2.2
					C1540.4,404.6,1540.2,404.7,1540,404.7z M1539.6,401.9C1539.6,401.9,1539.6,401.9,1539.6,401.9L1539.6,401.9z M1524.7,401.8
					C1524.7,401.8,1524.7,401.8,1524.7,401.8L1524.7,401.8z M1536.9,397.7l3.3,4l4.4-1.7l-0.2-5.2l0.6-0.4c1.9-1.3,3.5-2.9,4.9-4.7
					l0.5-0.6l5.2,0.4l1.9-4.3l-3.8-3.5l0.1-0.8c0.4-2.2,0.5-4.5,0.2-6.7l-0.1-0.8l4-3.3l-1.7-4.4l-5.2,0.2l-0.4-0.6
					c-1.3-1.9-2.9-3.5-4.7-4.9l-0.6-0.5l0.4-5.2l-4.3-1.9l-3.5,3.8l-0.8-0.1c-2.2-0.4-4.5-0.5-6.7-0.2l-0.8,0.1l-3.3-4l-4.4,1.7
					l0.2,5.2l-0.6,0.4c-1.9,1.3-3.5,2.9-4.9,4.7l-0.5,0.6l-5.2-0.4l-1.9,4.3l3.8,3.5l-0.1,0.8c-0.4,2.2-0.5,4.5-0.2,6.7l0.1,0.8
					l-4,3.3l1.7,4.4l5.2-0.2l0.4,0.6c1.3,1.9,2.9,3.5,4.7,4.9l0.6,0.5l-0.4,5.2l4.3,1.9l3.5-3.8l0.8,0.1c2.2,0.4,4.5,0.5,6.7,0.2
					L1536.9,397.7z M1525.8,401.6L1525.8,401.6C1525.8,401.6,1525.8,401.6,1525.8,401.6z M1520.2,399.1L1520.2,399.1
					C1520.2,399.1,1520.2,399.1,1520.2,399.1z M1556.3,389.6L1556.3,389.6C1556.3,389.6,1556.3,389.6,1556.3,389.6z M1508.4,383.4
					L1508.4,383.4L1508.4,383.4z M1558.1,370.7L1558.1,370.7L1558.1,370.7z M1508.5,368.5L1508.5,368.5
					C1508.5,368.5,1508.5,368.5,1508.5,368.5z M1510.2,364.6C1510.2,364.6,1510.2,364.6,1510.2,364.6L1510.2,364.6z M1546.4,355
					C1546.4,355,1546.4,355,1546.4,355L1546.4,355z M1545.8,354C1545.8,354,1545.8,354,1545.8,354L1545.8,354z M1540.7,352.5
					C1540.8,352.5,1540.8,352.5,1540.7,352.5L1540.7,352.5z M1541.9,352.3L1541.9,352.3C1541.9,352.3,1541.9,352.3,1541.9,352.3z
					 M1533.4,393.2c-2.2,0-4.4-0.5-6.5-1.4c-2.7-1.2-5-3.1-6.7-5.5c-0.5-0.6-0.3-1.5,0.3-2c0.6-0.5,1.5-0.3,2,0.3
					c1.4,2,3.3,3.5,5.5,4.5c3.3,1.4,6.9,1.5,10.2,0.2c3.3-1.3,6-3.8,7.4-7.1c1.4-3.3,1.5-6.9,0.2-10.2c-1.3-3.3-3.8-6-7.1-7.4
					c-3.3-1.4-6.9-1.5-10.2-0.2c-3.3,1.3-6,3.8-7.4,7.1c-0.4,0.9-0.7,1.8-0.9,2.7c-0.2,0.8-0.9,1.3-1.7,1.1
					c-0.8-0.2-1.3-0.9-1.1-1.7c0.2-1.1,0.6-2.2,1.1-3.3c1.7-4,4.9-7,9-8.6c4-1.6,8.4-1.5,12.4,0.3c4,1.7,7,4.9,8.6,9
					c1.6,4,1.5,8.4-0.3,12.4c-1.7,4-4.9,7-9,8.6C1537.4,392.9,1535.4,393.2,1533.4,393.2z"/>
			</g>
			<g>
				<g>
					<path class="st9" d="M1346,366.9c-0.2,0-0.4-0.1-0.6-0.2c-0.6-0.5-1.2-1-1.9-1.5c-0.4-0.3-0.5-0.9-0.1-1.3
						c0.3-0.4,0.9-0.5,1.3-0.1c0.6,0.5,1.2,1,1.8,1.5c0.4,0.3,0.5,0.9,0.2,1.3C1346.6,366.7,1346.3,366.9,1346,366.9z"/>
					<path class="st9" d="M1340.6,362.3c-0.2,0-0.5-0.1-0.6-0.2c-1.2-1.1-2.3-2.2-3.5-3.3c-0.4-0.4-0.4-1,0-1.3c0.4-0.4,1-0.4,1.3,0
						c1.1,1.1,2.2,2.2,3.4,3.3c0.4,0.4,0.4,0.9,0.1,1.3C1341.1,362.2,1340.9,362.3,1340.6,362.3z M1333.9,355.5
						c-0.3,0-0.5-0.1-0.7-0.3c-1.1-1.2-2.1-2.4-3.1-3.6c-0.3-0.4-0.3-1,0.1-1.3c0.4-0.3,1-0.3,1.3,0.1c1,1.2,2,2.4,3.1,3.6
						c0.4,0.4,0.3,1-0.1,1.3C1334.4,355.5,1334.1,355.5,1333.9,355.5z M1327.9,348.2c-0.3,0-0.6-0.1-0.8-0.4
						c-0.9-1.3-1.9-2.6-2.8-3.9c-0.3-0.4-0.2-1,0.3-1.3c0.4-0.3,1-0.2,1.3,0.3c0.9,1.3,1.8,2.6,2.7,3.8c0.3,0.4,0.2,1-0.2,1.3
						C1328.3,348.1,1328.1,348.2,1327.9,348.2z M1322.5,340.3c-0.3,0-0.6-0.2-0.8-0.5c-0.8-1.4-1.6-2.8-2.4-4.2
						c-0.3-0.5-0.1-1,0.4-1.3c0.5-0.3,1-0.1,1.3,0.4c0.8,1.4,1.5,2.7,2.4,4.1c0.3,0.4,0.1,1-0.3,1.3
						C1322.9,340.3,1322.7,340.3,1322.5,340.3z M1318,332c-0.4,0-0.7-0.2-0.8-0.5c-0.7-1.4-1.4-2.9-2-4.4c-0.2-0.5,0-1,0.5-1.2
						c0.5-0.2,1,0,1.2,0.5c0.6,1.4,1.3,2.9,2,4.3c0.2,0.5,0,1-0.4,1.3C1318.2,332,1318.1,332,1318,332z M1314.2,323.3
						c-0.4,0-0.7-0.2-0.9-0.6c-0.6-1.5-1.1-3-1.6-4.5c-0.2-0.5,0.1-1,0.6-1.2c0.5-0.2,1,0.1,1.2,0.6c0.5,1.5,1,3,1.6,4.4
						c0.2,0.5-0.1,1-0.6,1.2C1314.4,323.2,1314.3,323.3,1314.2,323.3z M1311.3,314.2c-0.4,0-0.8-0.3-0.9-0.7
						c-0.4-1.5-0.8-3.1-1.1-4.7c-0.1-0.5,0.2-1,0.7-1.1c0.5-0.1,1,0.2,1.1,0.7c0.3,1.5,0.7,3.1,1.1,4.6c0.1,0.5-0.2,1-0.7,1.2
						C1311.4,314.2,1311.4,314.2,1311.3,314.2z M1309.2,304.9c-0.5,0-0.9-0.3-0.9-0.8c-0.3-1.6-0.5-3.2-0.7-4.7
						c-0.1-0.5,0.3-1,0.8-1.1c0.5-0.1,1,0.3,1.1,0.8c0.2,1.6,0.4,3.1,0.7,4.7c0.1,0.5-0.3,1-0.8,1.1
						C1309.3,304.9,1309.3,304.9,1309.2,304.9z M1308.1,295.5c-0.5,0-0.9-0.4-0.9-0.9c-0.1-1.6-0.2-3.2-0.2-4.8c0-0.5,0.4-1,0.9-1
						c0.5,0,1,0.4,1,0.9c0,1.6,0.1,3.1,0.2,4.7C1309.1,295,1308.7,295.5,1308.1,295.5C1308.1,295.5,1308.1,295.5,1308.1,295.5z
						 M1307.8,286C1307.8,286,1307.8,286,1307.8,286c-0.5,0-1-0.4-0.9-1c0-1.6,0.1-3.2,0.2-4.8c0-0.5,0.5-0.9,1-0.9
						c0.5,0,0.9,0.5,0.9,1c-0.1,1.6-0.2,3.1-0.2,4.7C1308.8,285.6,1308.4,286,1307.8,286z M1308.5,276.5c0,0-0.1,0-0.1,0
						c-0.5-0.1-0.9-0.5-0.8-1c0.2-1.6,0.4-3.2,0.7-4.8c0.1-0.5,0.6-0.9,1.1-0.8c0.5,0.1,0.9,0.6,0.8,1.1c-0.3,1.5-0.5,3.1-0.7,4.7
						C1309.4,276.2,1309,276.5,1308.5,276.5z M1310,267.1c-0.1,0-0.1,0-0.2,0c-0.5-0.1-0.8-0.6-0.7-1.1c0.3-1.6,0.7-3.1,1.1-4.7
						c0.1-0.5,0.6-0.8,1.2-0.7c0.5,0.1,0.8,0.6,0.7,1.2c-0.4,1.5-0.8,3.1-1.1,4.6C1310.9,266.8,1310.5,267.1,1310,267.1z
						 M1312.5,257.9c-0.1,0-0.2,0-0.3,0c-0.5-0.2-0.8-0.7-0.6-1.2c0.5-1.5,1-3,1.5-4.5c0.2-0.5,0.7-0.7,1.2-0.6
						c0.5,0.2,0.7,0.7,0.6,1.2c-0.5,1.5-1,3-1.5,4.5C1313.2,257.7,1312.9,257.9,1312.5,257.9z M1315.7,249c-0.1,0-0.2,0-0.4-0.1
						c-0.5-0.2-0.7-0.8-0.5-1.2c0.6-1.5,1.3-2.9,2-4.4c0.2-0.5,0.8-0.7,1.3-0.4c0.5,0.2,0.7,0.8,0.4,1.3c-0.7,1.4-1.3,2.9-1.9,4.3
						C1316.5,248.8,1316.1,249,1315.7,249z M1319.8,240.5c-0.2,0-0.3,0-0.4-0.1c-0.5-0.2-0.6-0.8-0.4-1.3c0.8-1.4,1.6-2.8,2.4-4.2
						c0.3-0.4,0.8-0.6,1.3-0.3c0.4,0.3,0.6,0.8,0.3,1.3c-0.8,1.3-1.6,2.7-2.3,4.1C1320.5,240.3,1320.2,240.5,1319.8,240.5z
						 M1324.7,232.3c-0.2,0-0.4-0.1-0.5-0.2c-0.4-0.3-0.6-0.9-0.3-1.3c0.9-1.3,1.8-2.6,2.8-3.9c0.3-0.4,0.9-0.5,1.3-0.2
						c0.4,0.3,0.5,0.9,0.2,1.3c-0.9,1.3-1.8,2.6-2.7,3.9C1325.3,232.2,1325,232.3,1324.7,232.3z M1330.4,224.7
						c-0.2,0-0.4-0.1-0.6-0.2c-0.4-0.3-0.5-0.9-0.1-1.3c1-1.2,2.1-2.5,3.1-3.6c0.3-0.4,0.9-0.4,1.3-0.1c0.4,0.3,0.4,0.9,0.1,1.3
						c-1,1.2-2.1,2.4-3.1,3.6C1330.9,224.5,1330.6,224.7,1330.4,224.7z M1336.7,217.6c-0.2,0-0.5-0.1-0.7-0.3c-0.4-0.4-0.4-1,0-1.3
						c1.1-1.1,2.3-2.2,3.4-3.3c0.4-0.4,1-0.3,1.3,0.1c0.4,0.4,0.3,1-0.1,1.3c-1.2,1.1-2.3,2.2-3.4,3.3
						C1337.2,217.5,1336.9,217.6,1336.7,217.6z M1343.7,211.2c-0.3,0-0.5-0.1-0.7-0.3c-0.3-0.4-0.3-1,0.1-1.3c1.2-1,2.5-2,3.8-3
						c0.4-0.3,1-0.2,1.3,0.2c0.3,0.4,0.2,1-0.2,1.3c-1.2,0.9-2.5,1.9-3.7,2.9C1344.1,211.1,1343.9,211.2,1343.7,211.2z
						 M1351.2,205.4c-0.3,0-0.6-0.1-0.8-0.4c-0.3-0.4-0.2-1,0.2-1.3c1.3-0.9,2.7-1.8,4-2.6c0.4-0.3,1-0.1,1.3,0.3
						c0.3,0.4,0.1,1-0.3,1.3c-1.3,0.8-2.7,1.7-3.9,2.6C1351.6,205.4,1351.4,205.4,1351.2,205.4z M1359.3,200.4
						c-0.3,0-0.7-0.2-0.8-0.5c-0.3-0.5-0.1-1,0.4-1.3c1.4-0.8,2.8-1.5,4.2-2.2c0.5-0.2,1,0,1.3,0.4c0.2,0.5,0,1-0.4,1.3
						c-1.4,0.7-2.8,1.4-4.2,2.2C1359.6,200.4,1359.5,200.4,1359.3,200.4z M1367.8,196.2c-0.4,0-0.7-0.2-0.9-0.6
						c-0.2-0.5,0-1,0.5-1.2c1.5-0.6,2.9-1.3,4.4-1.8c0.5-0.2,1,0.1,1.2,0.5c0.2,0.5-0.1,1-0.5,1.2c-1.5,0.6-2.9,1.2-4.4,1.8
						C1368.1,196.1,1368,196.2,1367.8,196.2z M1376.7,192.8c-0.4,0-0.8-0.3-0.9-0.6c-0.2-0.5,0.1-1,0.6-1.2c1.5-0.5,3.1-1,4.6-1.4
						c0.5-0.1,1,0.2,1.2,0.7c0.1,0.5-0.2,1-0.7,1.2c-1.5,0.4-3,0.9-4.5,1.4C1376.9,192.7,1376.8,192.8,1376.7,192.8z M1385.9,190.2
						c-0.4,0-0.8-0.3-0.9-0.7c-0.1-0.5,0.2-1,0.7-1.1c1.6-0.4,3.1-0.7,4.7-1c0.5-0.1,1,0.3,1.1,0.8c0.1,0.5-0.3,1-0.8,1.1
						c-1.5,0.3-3.1,0.6-4.6,0.9C1386,190.2,1385.9,190.2,1385.9,190.2z M1395.2,188.5c-0.5,0-0.9-0.3-0.9-0.8
						c-0.1-0.5,0.3-1,0.8-1.1c1.6-0.2,3.2-0.4,4.8-0.5c0.5,0,1,0.3,1,0.9c0,0.5-0.3,1-0.9,1c-1.6,0.1-3.1,0.3-4.7,0.5
						C1395.3,188.5,1395.3,188.5,1395.2,188.5z"/>
					<path class="st9" d="M1404.7,187.8c-0.5,0-0.9-0.4-0.9-0.9c0-0.5,0.4-1,0.9-1c0.8,0,1.6,0,2.4-0.1c0,0,0,0,0,0
						c0.5,0,0.9,0.4,0.9,0.9c0,0.5-0.4,0.9-0.9,1C1406.3,187.7,1405.5,187.7,1404.7,187.8C1404.8,187.8,1404.7,187.8,1404.7,187.8z"
						/>
				</g>
				<g>
					<path class="st9" d="M1478.5,216.4c-0.2,0-0.5-0.1-0.7-0.3c-0.6-0.5-1.1-1.1-1.7-1.6c-0.4-0.4-0.4-1,0-1.3c0.4-0.4,1-0.4,1.3,0
						c0.6,0.5,1.2,1.1,1.7,1.7c0.4,0.4,0.4,1,0,1.3C1479,216.3,1478.7,216.4,1478.5,216.4z"/>
					<path class="st9" d="M1411.7,388.4c-0.5,0-0.9-0.4-0.9-0.9c0-0.5,0.4-1,0.9-1c1.5-0.1,3.1-0.1,4.6-0.3c0.5,0,1,0.3,1,0.9
						c0,0.5-0.3,1-0.9,1C1414.9,388.2,1413.3,388.3,1411.7,388.4C1411.7,388.4,1411.7,388.4,1411.7,388.4z M1421,387.6
						c-0.5,0-0.9-0.3-0.9-0.8c-0.1-0.5,0.3-1,0.8-1.1c1.5-0.2,3.1-0.4,4.6-0.7c0.5-0.1,1,0.3,1.1,0.8c0.1,0.5-0.3,1-0.8,1.1
						c-1.6,0.3-3.1,0.5-4.7,0.7C1421.1,387.6,1421.1,387.6,1421,387.6z M1430.2,386c-0.4,0-0.8-0.3-0.9-0.7c-0.1-0.5,0.2-1,0.7-1.1
						c1.5-0.3,3-0.7,4.5-1.1c0.5-0.1,1,0.2,1.2,0.7c0.1,0.5-0.2,1-0.7,1.2c-1.5,0.4-3,0.8-4.6,1.1C1430.4,386,1430.3,386,1430.2,386
						z M1439.3,383.5c-0.4,0-0.8-0.3-0.9-0.7c-0.2-0.5,0.1-1,0.6-1.2c1.5-0.5,2.9-1,4.4-1.5c0.5-0.2,1,0.1,1.2,0.5
						c0.2,0.5-0.1,1-0.5,1.2c-1.5,0.6-3,1.1-4.5,1.6C1439.5,383.5,1439.4,383.5,1439.3,383.5z M1448,380.2c-0.4,0-0.7-0.2-0.9-0.6
						c-0.2-0.5,0-1,0.5-1.2c1.4-0.6,2.8-1.3,4.2-1.9c0.5-0.2,1,0,1.3,0.4c0.2,0.5,0,1-0.4,1.3c-1.4,0.7-2.9,1.4-4.3,2
						C1448.3,380.1,1448.1,380.2,1448,380.2z M1456.4,376c-0.3,0-0.7-0.2-0.8-0.5c-0.3-0.5-0.1-1,0.4-1.3c1.3-0.7,2.7-1.5,4-2.3
						c0.4-0.3,1-0.1,1.3,0.3c0.3,0.4,0.1,1-0.3,1.3c-1.3,0.8-2.7,1.6-4.1,2.4C1456.7,376,1456.6,376,1456.4,376z M1464.4,371.2
						c-0.3,0-0.6-0.1-0.8-0.4c-0.3-0.4-0.2-1,0.3-1.3c1.3-0.9,2.6-1.8,3.8-2.7c0.4-0.3,1-0.2,1.3,0.2c0.3,0.4,0.2,1-0.2,1.3
						c-1.3,0.9-2.5,1.9-3.8,2.7C1464.8,371.1,1464.6,371.2,1464.4,371.2z M1471.9,365.6c-0.3,0-0.5-0.1-0.7-0.3
						c-0.3-0.4-0.3-1,0.1-1.3c1.2-1,2.4-2,3.5-3c0.4-0.3,1-0.3,1.3,0.1c0.3,0.4,0.3,1-0.1,1.3c-1.2,1-2.4,2.1-3.6,3.1
						C1472.3,365.5,1472.1,365.6,1471.9,365.6z M1478.8,359.3c-0.2,0-0.5-0.1-0.7-0.3c-0.4-0.4-0.4-1,0-1.3c1.1-1.1,2.2-2.2,3.2-3.3
						c0.4-0.4,0.9-0.4,1.3-0.1c0.4,0.4,0.4,1,0.1,1.3c-1.1,1.1-2.2,2.3-3.3,3.4C1479.3,359.2,1479.1,359.3,1478.8,359.3z
						 M1485.2,352.5c-0.2,0-0.4-0.1-0.6-0.2c-0.4-0.3-0.5-0.9-0.1-1.3c1-1.2,2-2.4,2.9-3.6c0.3-0.4,0.9-0.5,1.3-0.2
						c0.4,0.3,0.5,0.9,0.2,1.3c-1,1.3-1.9,2.5-2.9,3.7C1485.7,352.3,1485.4,352.5,1485.2,352.5z M1490.8,345c-0.2,0-0.4-0.1-0.5-0.2
						c-0.4-0.3-0.5-0.9-0.2-1.3c0.9-1.3,1.7-2.6,2.5-3.9c0.3-0.4,0.9-0.6,1.3-0.3c0.4,0.3,0.6,0.9,0.3,1.3c-0.8,1.3-1.7,2.7-2.6,3.9
						C1491.4,344.9,1491.1,345,1490.8,345z M1495.8,337.1c-0.2,0-0.3,0-0.5-0.1c-0.5-0.3-0.6-0.8-0.4-1.3c0.8-1.3,1.5-2.7,2.2-4.1
						c0.2-0.5,0.8-0.7,1.3-0.4c0.5,0.2,0.7,0.8,0.4,1.3c-0.7,1.4-1.4,2.8-2.2,4.2C1496.4,336.9,1496.1,337.1,1495.8,337.1z
						 M1499.9,328.7c-0.1,0-0.3,0-0.4-0.1c-0.5-0.2-0.7-0.8-0.5-1.2c0.6-1.4,1.2-2.8,1.8-4.3c0.2-0.5,0.7-0.7,1.2-0.5
						c0.5,0.2,0.7,0.7,0.5,1.2c-0.6,1.5-1.2,2.9-1.8,4.4C1500.6,328.5,1500.3,328.7,1499.9,328.7z M1503.3,320c-0.1,0-0.2,0-0.3,0
						c-0.5-0.2-0.8-0.7-0.6-1.2c0.5-1.5,0.9-2.9,1.4-4.4c0.1-0.5,0.7-0.8,1.2-0.7c0.5,0.1,0.8,0.7,0.6,1.2c-0.4,1.5-0.9,3-1.4,4.5
						C1504.1,319.7,1503.7,320,1503.3,320z M1505.9,311c-0.1,0-0.1,0-0.2,0c-0.5-0.1-0.8-0.6-0.7-1.1c0.4-1.5,0.7-3,1-4.5
						c0.1-0.5,0.6-0.8,1.1-0.8c0.5,0.1,0.9,0.6,0.8,1.1c-0.3,1.5-0.6,3.1-1,4.6C1506.7,310.7,1506.3,311,1505.9,311z M1507.6,301.8
						c0,0-0.1,0-0.1,0c-0.5-0.1-0.9-0.5-0.8-1.1c0.2-1.5,0.4-3.1,0.5-4.6c0-0.5,0.5-0.9,1-0.9c0.5,0,0.9,0.5,0.9,1
						c-0.1,1.6-0.3,3.1-0.5,4.7C1508.5,301.5,1508,301.8,1507.6,301.8z M1508.4,292.5C1508.4,292.5,1508.4,292.5,1508.4,292.5
						c-0.6,0-1-0.5-0.9-1c0.1-1.5,0.1-3,0.1-4.5v-0.1c0-0.5,0.4-0.9,0.9-0.9s0.9,0.4,0.9,0.9v0.1c0,1.5,0,3.1-0.1,4.6
						C1509.4,292.1,1508.9,292.5,1508.4,292.5z M1508.4,283.1c-0.5,0-0.9-0.4-0.9-0.9c-0.1-1.5-0.2-3.1-0.3-4.6c0-0.5,0.3-1,0.9-1
						c0.5-0.1,1,0.3,1,0.9c0.1,1.6,0.3,3.1,0.3,4.7C1509.4,282.7,1509,283.1,1508.4,283.1C1508.5,283.1,1508.4,283.1,1508.4,283.1z
						 M1507.5,273.8c-0.5,0-0.9-0.3-0.9-0.8c-0.2-1.5-0.5-3.1-0.8-4.6c-0.1-0.5,0.2-1,0.8-1.1c0.5-0.1,1,0.2,1.1,0.8
						c0.3,1.5,0.6,3.1,0.8,4.7c0.1,0.5-0.3,1-0.8,1.1C1507.6,273.8,1507.6,273.8,1507.5,273.8z M1505.8,264.6
						c-0.4,0-0.8-0.3-0.9-0.7c-0.4-1.5-0.8-3-1.2-4.5c-0.1-0.5,0.1-1,0.6-1.2c0.5-0.1,1,0.1,1.2,0.6c0.4,1.5,0.8,3,1.2,4.6
						c0.1,0.5-0.2,1-0.7,1.1C1505.9,264.6,1505.9,264.6,1505.8,264.6z M1503.2,255.7c-0.4,0-0.8-0.2-0.9-0.6c-0.5-1.5-1-2.9-1.6-4.4
						c-0.2-0.5,0-1,0.5-1.2c0.5-0.2,1,0,1.2,0.5c0.6,1.5,1.1,2.9,1.6,4.4c0.2,0.5-0.1,1-0.6,1.2
						C1503.4,255.6,1503.3,255.7,1503.2,255.7z M1499.7,247c-0.4,0-0.7-0.2-0.9-0.6c-0.6-1.4-1.3-2.8-2-4.2c-0.2-0.5-0.1-1,0.4-1.3
						c0.5-0.2,1,0,1.3,0.4c0.7,1.4,1.4,2.8,2,4.3c0.2,0.5,0,1-0.5,1.2C1500,246.9,1499.9,247,1499.7,247z M1495.5,238.6
						c-0.3,0-0.6-0.2-0.8-0.5c-0.5-1-1.1-1.9-1.7-2.9c-0.2-0.4-0.5-0.8-0.7-1.1c-0.3-0.4-0.1-1,0.3-1.3c0.4-0.3,1-0.1,1.3,0.3
						c0.2,0.4,0.5,0.8,0.7,1.1c0.6,1,1.2,1.9,1.7,2.9c0.3,0.5,0.1,1-0.4,1.3C1495.8,238.6,1495.7,238.6,1495.5,238.6z M1490.5,230.7
						c-0.3,0-0.6-0.1-0.8-0.4c-0.9-1.3-1.8-2.5-2.7-3.7c-0.3-0.4-0.2-1,0.2-1.3c0.4-0.3,1-0.2,1.3,0.2c1,1.2,1.9,2.5,2.8,3.8
						c0.3,0.4,0.2,1-0.2,1.3C1490.9,230.6,1490.7,230.7,1490.5,230.7z M1484.8,223.3c-0.3,0-0.5-0.1-0.7-0.3c-1-1.2-2-2.3-3.1-3.5
						c-0.4-0.4-0.3-1,0.1-1.3c0.4-0.4,1-0.3,1.3,0.1c1.1,1.1,2.1,2.3,3.1,3.5c0.3,0.4,0.3,1-0.1,1.3
						C1485.3,223.2,1485,223.3,1484.8,223.3z"/>
					<path class="st9" d="M1407,388.4C1407,388.4,1407,388.4,1407,388.4c-0.8,0-1.6,0-2.4-0.1c-0.5,0-0.9-0.5-0.9-1
						c0-0.5,0.5-0.9,1-0.9c0.8,0,1.6,0,2.3,0.1c0.5,0,0.9,0.4,0.9,1C1407.9,388,1407.5,388.4,1407,388.4z"/>
				</g>
				<g>
					<path class="st9" d="M1393.8,375.3c0.6,0.2,1.2-0.1,1.5-0.6l9.6-14c7.9,0.3,16-0.6,23.8-3l12.7,11.2c0.4,0.4,1.1,0.5,1.6,0.2
						l17.7-10.1c0.5-0.3,0.8-0.9,0.7-1.5l-3.1-16.7c6-5.5,10.9-12,14.7-18.9l17-1.1c0.6,0,1.1-0.4,1.3-1l5.4-19.6
						c0.2-0.6-0.1-1.2-0.6-1.5l-14-9.6c0.3-7.9-0.6-16-3-23.8l11.2-12.7c0.4-0.4,0.5-1.1,0.2-1.6l-10.1-17.7
						c-0.3-0.5-0.9-0.8-1.5-0.7l-16.7,3.1c-5.5-6-12-10.9-18.9-14.7l-1.1-17c0-0.6-0.4-1.1-1-1.3l-19.6-5.4
						c-0.6-0.2-1.2,0.1-1.5,0.6l-9.6,14c-7.9-0.3-16,0.6-23.8,3l-12.7-11.2c-0.4-0.4-1.1-0.5-1.6-0.2l-17.7,10.1
						c-0.5,0.3-0.8,0.9-0.7,1.5l3.1,16.7c-6,5.5-10.9,12-14.7,18.9l-17,1.1c-0.6,0-1.1,0.4-1.3,1l-5.4,19.6
						c-0.2,0.6,0.1,1.2,0.6,1.5l14,9.6c-0.3,7.9,0.6,16,3,23.8L1325,320c-0.4,0.4-0.5,1.1-0.2,1.6l10.1,17.7
						c0.3,0.5,0.9,0.8,1.5,0.7l16.7-3.1c5.5,6,12,10.9,18.9,14.7l1.1,17c0,0.6,0.4,1.1,1,1.3L1393.8,375.3z"/>
					<g>
						<path class="st1" d="M1407.7,305.4c-0.1,0-0.3,0-0.4,0c-5.1-0.1-9.8-2.2-13.3-5.9c-3.5-3.7-5.4-8.5-5.3-13.6
							c0.1-5.1,2.2-9.8,5.9-13.3c3.7-3.5,8.5-5.4,13.6-5.3c5.1,0.1,9.8,2.2,13.3,5.9c3.5,3.7,5.4,8.5,5.3,13.6
							c-0.1,5.1-2.2,9.8-5.9,13.3C1417.3,303.5,1412.7,305.4,1407.7,305.4z M1407.7,269.2c-4.4,0-8.6,1.7-11.9,4.8
							c-3.3,3.2-5.2,7.4-5.3,12c-0.1,4.6,1.6,8.9,4.8,12.2c3.2,3.3,7.4,5.2,12,5.3c4.6,0.1,8.9-1.6,12.2-4.8l0,0
							c3.3-3.2,5.2-7.4,5.3-12c0.1-4.6-1.6-8.9-4.8-12.2c-3.2-3.3-7.4-5.2-12-5.3C1408,269.2,1407.8,269.2,1407.7,269.2z"/>
					</g>
					<path class="st1" d="M1422.5,333.8c-0.4,0-0.8-0.3-0.9-0.7c0-0.1,0-0.2,0-0.3c0-0.4,0.3-0.8,0.7-0.9c3.3-1,6.4-2.4,9.4-4.1l0,0
						c1.8-1,3.5-2.1,5.1-3.3l0,0c0,0,0,0,0,0c7.9-5.9,13.8-14.1,16.9-23.6c0.2-0.7,0.5-1.5,0.7-2.2c1.2-4.3,1.8-8.6,1.8-12.9
						c0-8.2-2.1-16.4-6.3-23.8c-13.1-23.1-42.6-31.3-65.8-18.1c-15.6,8.9-24.4,25.2-24.4,42c0,8.1,2,16.2,6.3,23.7
						c4.3,7.6,10.6,13.9,18.2,18.2c0.3,0.2,0.5,0.5,0.5,0.8c0,0.2,0,0.3-0.1,0.5c-0.3,0.5-0.8,0.6-1.3,0.4
						c-7.9-4.4-14.4-11-18.9-18.9c-4.4-7.8-6.5-16.3-6.5-24.7c0-17.5,9.1-34.4,25.4-43.7c24-13.7,54.7-5.2,68.3,18.8
						c4.3,7.7,6.6,16.1,6.6,24.7c0,4.5-0.6,9-1.8,13.4c-3.6,12.9-11.9,23.7-23.6,30.3c-2.9,1.6-5.9,3-9,4c-0.2,0.1-0.5,0.2-0.7,0.2
						C1422.7,333.8,1422.6,333.8,1422.5,333.8z"/>
				</g>
			</g>
		</g>
		<g>
			<linearGradient id="SVGID_4_" gradientUnits="userSpaceOnUse" x1="1664.6875" y1="628.8206" x2="1667.9827" y2="628.8206">
				<stop  offset="0" style="stop-color:#DAE3FE"/>
				<stop  offset="1" style="stop-color:#E9EFFD"/>
			</linearGradient>
			<path class="st10" d="M1667.9,628l-1.3,2.5l0,0c-0.3,0.5-0.8,0.6-1.3,0.4c-0.5-0.3-0.6-0.8-0.4-1.3c0,0,0,0,0,0l1.4-2.5
				c0.3-0.5,0.8-0.6,1.3-0.4C1668,627,1668.1,627.6,1667.9,628L1667.9,628z"/>
			<linearGradient id="SVGID_5_" gradientUnits="userSpaceOnUse" x1="1660.5227" y1="637.2696" x2="1663.7323" y2="637.2696">
				<stop  offset="0" style="stop-color:#DAE3FE"/>
				<stop  offset="1" style="stop-color:#E9EFFD"/>
			</linearGradient>
			<path class="st11" d="M1663.6,636.4l-1.1,2.6l0,0c-0.2,0.5-0.8,0.8-1.4,0.5c-0.5-0.2-0.8-0.8-0.5-1.4c0,0,0,0,0,0l1.2-2.6
				c0.2-0.5,0.8-0.7,1.3-0.5C1663.6,635.3,1663.9,635.8,1663.6,636.4L1663.6,636.4z"/>
			<linearGradient id="SVGID_6_" gradientUnits="userSpaceOnUse" x1="1657.1272" y1="646.0588" x2="1660.2407" y2="646.0588">
				<stop  offset="0" style="stop-color:#DAE3FE"/>
				<stop  offset="1" style="stop-color:#E9EFFD"/>
			</linearGradient>
			<path class="st12" d="M1660.2,645.1l-0.9,2.7l0,0c-0.2,0.6-0.8,0.9-1.4,0.7c-0.6-0.2-0.9-0.8-0.7-1.4c0,0,0,0,0,0l0.9-2.7
				c0.2-0.6,0.8-0.9,1.4-0.7C1660.1,643.9,1660.4,644.5,1660.2,645.1L1660.2,645.1z"/>
			<linearGradient id="SVGID_7_" gradientUnits="userSpaceOnUse" x1="1654.5171" y1="655.1103" x2="1657.5282" y2="655.1103">
				<stop  offset="0" style="stop-color:#DAE3FE"/>
				<stop  offset="1" style="stop-color:#E9EFFD"/>
			</linearGradient>
			<path class="st13" d="M1657.5,654l-0.7,2.7l0,0c-0.2,0.6-0.8,1-1.4,0.9c-0.6-0.2-1-0.8-0.9-1.4c0,0,0,0,0,0l0.7-2.8
				c0.2-0.6,0.8-1,1.4-0.8C1657.3,652.8,1657.6,653.4,1657.5,654L1657.5,654z"/>
			<linearGradient id="SVGID_8_" gradientUnits="userSpaceOnUse" x1="1652.6862" y1="664.36" x2="1655.5704" y2="664.36">
				<stop  offset="0" style="stop-color:#DAE3FE"/>
				<stop  offset="1" style="stop-color:#E9EFFD"/>
			</linearGradient>
			<path class="st14" d="M1655.6,663.2l-0.4,2.8l0,0c-0.1,0.7-0.7,1.1-1.4,1c-0.7-0.1-1.1-0.7-1-1.4c0,0,0,0,0,0l0.5-2.8
				c0.1-0.7,0.7-1.1,1.4-1C1655.2,661.9,1655.7,662.5,1655.6,663.2L1655.6,663.2z"/>
			<linearGradient id="SVGID_9_" gradientUnits="userSpaceOnUse" x1="1651.5923" y1="673.7313" x2="1654.3608" y2="673.7313">
				<stop  offset="0" style="stop-color:#DAE3FE"/>
				<stop  offset="1" style="stop-color:#E9EFFD"/>
			</linearGradient>
			<path class="st15" d="M1654.4,672.4l-0.2,2.8l0,0c-0.1,0.7-0.7,1.2-1.4,1.2c-0.7-0.1-1.2-0.7-1.2-1.4c0,0,0,0,0,0l0.3-2.8
				c0.1-0.7,0.7-1.2,1.4-1.1C1653.9,671.1,1654.4,671.7,1654.4,672.4L1654.4,672.4z"/>
			<linearGradient id="SVGID_10_" gradientUnits="userSpaceOnUse" x1="1651.1914" y1="683.1629" x2="1653.8589" y2="683.1629">
				<stop  offset="0" style="stop-color:#DAE3FE"/>
				<stop  offset="1" style="stop-color:#E9EFFD"/>
			</linearGradient>
			<path class="st16" d="M1653.9,681.8l0,2.8l0,0c0,0.7-0.6,1.3-1.3,1.3c-0.7,0-1.3-0.6-1.3-1.3c0,0,0,0,0,0l0.1-2.9
				c0-0.7,0.6-1.3,1.3-1.3C1653.3,680.4,1653.9,681,1653.9,681.8L1653.9,681.8z"/>
			<linearGradient id="SVGID_11_" gradientUnits="userSpaceOnUse" x1="1651.2942" y1="692.6019" x2="1654.1824" y2="692.6019">
				<stop  offset="0" style="stop-color:#DAE3FE"/>
				<stop  offset="1" style="stop-color:#E9EFFD"/>
			</linearGradient>
			<path class="st17" d="M1654,691.1l0.2,2.8l0,0c0,0.8-0.5,1.4-1.3,1.5c-0.8,0-1.4-0.5-1.5-1.3l0,0l-0.1-2.9c0-0.8,0.5-1.4,1.3-1.4
				C1653.3,689.8,1654,690.3,1654,691.1L1654,691.1z"/>
			<linearGradient id="SVGID_12_" gradientUnits="userSpaceOnUse" x1="1651.9481" y1="702.0087" x2="1655.1117" y2="702.0087">
				<stop  offset="0" style="stop-color:#DAE3FE"/>
				<stop  offset="1" style="stop-color:#E9EFFD"/>
			</linearGradient>
			<path class="st18" d="M1654.8,700.4l0.3,2.8l0,0c0.1,0.8-0.5,1.5-1.2,1.6c-0.8,0.1-1.5-0.5-1.6-1.2c0,0,0,0,0,0l-0.3-2.8
				c-0.1-0.8,0.5-1.5,1.3-1.6C1654,699.1,1654.7,699.6,1654.8,700.4L1654.8,700.4z"/>
			<linearGradient id="SVGID_13_" gradientUnits="userSpaceOnUse" x1="1653.1494" y1="711.3519" x2="1656.5721" y2="711.3519">
				<stop  offset="0" style="stop-color:#DAE3FE"/>
				<stop  offset="1" style="stop-color:#E9EFFD"/>
			</linearGradient>
			<path class="st19" d="M1656.1,709.7l0.5,2.8l0,0c0.1,0.8-0.4,1.6-1.2,1.7c-0.8,0.1-1.6-0.4-1.7-1.2c0,0,0,0,0,0l-0.5-2.8
				c-0.1-0.8,0.4-1.6,1.2-1.7C1655.2,708.4,1655.9,708.9,1656.1,709.7L1656.1,709.7z"/>
			<linearGradient id="SVGID_14_" gradientUnits="userSpaceOnUse" x1="1654.8469" y1="720.6154" x2="1658.5137" y2="720.6154">
				<stop  offset="0" style="stop-color:#DAE3FE"/>
				<stop  offset="1" style="stop-color:#E9EFFD"/>
			</linearGradient>
			<path class="st20" d="M1657.8,718.9l0.6,2.7l0,0c0.2,0.8-0.3,1.6-1.2,1.8c-0.8,0.2-1.6-0.3-1.8-1.2c0,0,0,0,0,0l-0.6-2.8
				c-0.2-0.8,0.3-1.6,1.2-1.8C1656.9,717.6,1657.7,718.1,1657.8,718.9L1657.8,718.9z"/>
			<linearGradient id="SVGID_15_" gradientUnits="userSpaceOnUse" x1="1656.9927" y1="729.7838" x2="1660.8898" y2="729.7838">
				<stop  offset="0" style="stop-color:#DAE3FE"/>
				<stop  offset="1" style="stop-color:#E9EFFD"/>
			</linearGradient>
			<path class="st21" d="M1660.1,728l0.7,2.7l0,0c0.2,0.8-0.3,1.7-1.1,1.9s-1.7-0.3-1.9-1.1c0,0,0,0,0,0l-0.7-2.8
				c-0.2-0.8,0.3-1.7,1.1-1.9C1659,726.7,1659.8,727.2,1660.1,728L1660.1,728z"/>
			<linearGradient id="SVGID_16_" gradientUnits="userSpaceOnUse" x1="1659.5488" y1="738.8392" x2="1663.6445" y2="738.8392">
				<stop  offset="0" style="stop-color:#DAE3FE"/>
				<stop  offset="1" style="stop-color:#E9EFFD"/>
			</linearGradient>
			<path class="st22" d="M1662.7,737l0.9,2.7l0,0c0.3,0.9-0.2,1.8-1.1,2c-0.9,0.3-1.8-0.2-2-1.1l0,0l-0.9-2.7
				c-0.3-0.8,0.2-1.8,1.1-2C1661.5,735.7,1662.4,736.1,1662.7,737L1662.7,737z"/>
			<linearGradient id="SVGID_17_" gradientUnits="userSpaceOnUse" x1="1662.4854" y1="747.7875" x2="1666.7476" y2="747.7875">
				<stop  offset="0" style="stop-color:#DAE3FE"/>
				<stop  offset="1" style="stop-color:#E9EFFD"/>
			</linearGradient>
			<path class="st23" d="M1665.7,745.9l1,2.6l0,0c0.3,0.9-0.1,1.8-1,2.1c-0.9,0.3-1.8-0.1-2.1-1l0,0l-1-2.7c-0.3-0.9,0.1-1.8,1-2.1
				C1664.4,744.6,1665.4,745,1665.7,745.9L1665.7,745.9z"/>
			<linearGradient id="SVGID_18_" gradientUnits="userSpaceOnUse" x1="1665.7538" y1="756.6187" x2="1670.1731" y2="756.6187">
				<stop  offset="0" style="stop-color:#DAE3FE"/>
				<stop  offset="1" style="stop-color:#E9EFFD"/>
			</linearGradient>
			<path class="st24" d="M1669,754.7l1.1,2.6l0,0c0.3,0.9-0.1,1.8-0.9,2.2c-0.9,0.3-1.8-0.1-2.2-0.9l0,0l-1-2.7
				c-0.3-0.9,0.1-1.8,0.9-2.2C1667.7,753.4,1668.6,753.8,1669,754.7L1669,754.7z"/>
			<linearGradient id="SVGID_19_" gradientUnits="userSpaceOnUse" x1="1669.3242" y1="765.3315" x2="1673.8926" y2="765.3315">
				<stop  offset="0" style="stop-color:#DAE3FE"/>
				<stop  offset="1" style="stop-color:#E9EFFD"/>
			</linearGradient>
			<path class="st25" d="M1672.6,763.3l1.1,2.6l0,0c0.4,0.9,0,1.9-0.9,2.3c-0.9,0.4-1.9,0-2.3-0.9l0,0l-1.1-2.6
				c-0.4-0.9,0-1.9,0.9-2.2C1671.2,762.1,1672.2,762.5,1672.6,763.3L1672.6,763.3z"/>
			<linearGradient id="SVGID_20_" gradientUnits="userSpaceOnUse" x1="1673.1709" y1="773.9251" x2="1677.8811" y2="773.9251">
				<stop  offset="0" style="stop-color:#DAE3FE"/>
				<stop  offset="1" style="stop-color:#E9EFFD"/>
			</linearGradient>
			<path class="st26" d="M1676.5,771.9l1.2,2.5l0,0c0.4,0.9,0,1.9-0.8,2.3c-0.9,0.4-1.9,0-2.3-0.8l0,0l-1.2-2.6
				c-0.4-0.9,0-1.9,0.8-2.3C1675,770.7,1676.1,771,1676.5,771.9L1676.5,771.9z"/>
			<linearGradient id="SVGID_21_" gradientUnits="userSpaceOnUse" x1="1677.2716" y1="782.4" x2="1682.1173" y2="782.4">
				<stop  offset="0" style="stop-color:#DAE3FE"/>
				<stop  offset="1" style="stop-color:#E9EFFD"/>
			</linearGradient>
			<path class="st27" d="M1680.6,780.3l1.3,2.5l0,0c0.4,0.9,0.1,1.9-0.8,2.4c-0.9,0.4-1.9,0.1-2.4-0.8l0,0l-1.3-2.5
				c-0.4-0.9-0.1-1.9,0.8-2.4C1679.1,779.1,1680.2,779.5,1680.6,780.3L1680.6,780.3z"/>
			<linearGradient id="SVGID_22_" gradientUnits="userSpaceOnUse" x1="1681.6069" y1="790.7568" x2="1686.5831" y2="790.7568">
				<stop  offset="0" style="stop-color:#DAE3FE"/>
				<stop  offset="1" style="stop-color:#E9EFFD"/>
			</linearGradient>
			<path class="st28" d="M1685,788.6l1.4,2.5l0,0c0.5,0.9,0.2,2-0.7,2.5c-0.9,0.5-2,0.2-2.5-0.7l0,0l-1.4-2.5
				c-0.5-0.9-0.1-2,0.7-2.4C1683.4,787.4,1684.5,787.8,1685,788.6L1685,788.6z"/>
			<linearGradient id="SVGID_23_" gradientUnits="userSpaceOnUse" x1="1686.1604" y1="798.9965" x2="1691.2626" y2="798.9965">
				<stop  offset="0" style="stop-color:#DAE3FE"/>
				<stop  offset="1" style="stop-color:#E9EFFD"/>
			</linearGradient>
			<path class="st29" d="M1689.6,796.8l1.4,2.4l0,0c0.5,0.9,0.2,2-0.7,2.5c-0.9,0.5-2,0.2-2.5-0.7l0,0l-1.4-2.5
				c-0.5-0.9-0.2-2,0.7-2.5C1688,795.7,1689.1,796,1689.6,796.8L1689.6,796.8z"/>
			<linearGradient id="SVGID_24_" gradientUnits="userSpaceOnUse" x1="1690.9209" y1="807.1238" x2="1696.1426" y2="807.1238">
				<stop  offset="0" style="stop-color:#DAE3FE"/>
				<stop  offset="1" style="stop-color:#E9EFFD"/>
			</linearGradient>
			<path class="st30" d="M1694.4,804.9l1.5,2.4l0,0c0.5,0.9,0.3,2-0.6,2.6c-0.9,0.5-2,0.3-2.6-0.6l0,0l-1.5-2.4
				c-0.5-0.9-0.2-2,0.6-2.6C1692.7,803.8,1693.8,804.1,1694.4,804.9L1694.4,804.9z"/>
			<linearGradient id="SVGID_25_" gradientUnits="userSpaceOnUse" x1="1695.8361" y1="815.1638" x2="1701.145" y2="815.1638">
				<stop  offset="0" style="stop-color:#DAE3FE"/>
				<stop  offset="1" style="stop-color:#E9EFFD"/>
			</linearGradient>
			<path class="st31" d="M1699.3,812.9l1.5,2.4l0,0c0.6,0.9,0.3,2.1-0.6,2.6c-0.9,0.6-2.1,0.3-2.6-0.6l0,0l-1.5-2.4
				c-0.6-0.9-0.3-2.1,0.6-2.6C1697.6,811.8,1698.8,812.1,1699.3,812.9L1699.3,812.9z"/>
			<linearGradient id="SVGID_26_" gradientUnits="userSpaceOnUse" x1="1700.8273" y1="823.1574" x2="1706.2161" y2="823.1574">
				<stop  offset="0" style="stop-color:#DAE3FE"/>
				<stop  offset="1" style="stop-color:#E9EFFD"/>
			</linearGradient>
			<path class="st32" d="M1704.4,820.9l1.5,2.4c0.6,0.9,0.3,2.1-0.6,2.7c-0.9,0.6-2.1,0.3-2.7-0.6l0,0l-1.5-2.4
				c-0.6-0.9-0.3-2.1,0.6-2.7C1702.6,819.8,1703.8,820,1704.4,820.9z"/>
			<linearGradient id="SVGID_27_" gradientUnits="userSpaceOnUse" x1="1705.8667" y1="831.1224" x2="1711.3267" y2="831.1224">
				<stop  offset="0" style="stop-color:#DAE3FE"/>
				<stop  offset="1" style="stop-color:#E9EFFD"/>
			</linearGradient>
			<path class="st33" d="M1709.5,828.9l1.5,2.4c0.6,0.9,0.3,2.1-0.6,2.7c-0.9,0.6-2.1,0.3-2.7-0.6l0,0l-1.5-2.4
				c-0.6-0.9-0.3-2.1,0.6-2.7C1707.7,827.7,1708.9,828,1709.5,828.9z"/>
			<linearGradient id="SVGID_28_" gradientUnits="userSpaceOnUse" x1="1710.9257" y1="839.0778" x2="1716.4495" y2="839.0778">
				<stop  offset="0" style="stop-color:#DAE3FE"/>
				<stop  offset="1" style="stop-color:#E9EFFD"/>
			</linearGradient>
			<path class="st34" d="M1714.6,836.8l1.5,2.4c0.6,0.9,0.3,2.2-0.6,2.8c-0.9,0.6-2.2,0.3-2.8-0.6l0,0l-1.5-2.4
				c-0.6-0.9-0.3-2.2,0.6-2.8C1712.8,835.6,1714,835.9,1714.6,836.8z"/>
			<linearGradient id="SVGID_29_" gradientUnits="userSpaceOnUse" x1="1715.9766" y1="847.0406" x2="1721.5574" y2="847.0406">
				<stop  offset="0" style="stop-color:#DAE3FE"/>
				<stop  offset="1" style="stop-color:#E9EFFD"/>
			</linearGradient>
			<path class="st35" d="M1719.7,844.7l1.5,2.4c0.6,0.9,0.3,2.2-0.6,2.8c-0.9,0.6-2.2,0.3-2.8-0.6l0,0l-1.5-2.4
				c-0.6-0.9-0.3-2.2,0.6-2.8C1717.9,843.5,1719.1,843.8,1719.7,844.7z"/>
			<linearGradient id="SVGID_30_" gradientUnits="userSpaceOnUse" x1="1720.9916" y1="855.0197" x2="1726.6124" y2="855.0197">
				<stop  offset="0" style="stop-color:#DAE3FE"/>
				<stop  offset="1" style="stop-color:#E9EFFD"/>
			</linearGradient>
			<path class="st36" d="M1724.8,852.7l1.5,2.4c0.6,1,0.3,2.2-0.6,2.8c-1,0.6-2.2,0.3-2.8-0.6l0,0l0,0l-1.5-2.4l0,0
				c-0.6-1-0.3-2.2,0.7-2.8S1724.2,851.8,1724.8,852.7z"/>
			<linearGradient id="SVGID_31_" gradientUnits="userSpaceOnUse" x1="1725.967" y1="863.0484" x2="1731.5858" y2="863.0484">
				<stop  offset="0" style="stop-color:#DAE3FE"/>
				<stop  offset="1" style="stop-color:#E9EFFD"/>
			</linearGradient>
			<path class="st37" d="M1729.8,860.8l1.5,2.4c0.6,1,0.3,2.2-0.7,2.8c-1,0.6-2.2,0.3-2.8-0.7l0,0l0,0l-1.5-2.4l0,0
				c-0.6-1-0.3-2.2,0.7-2.8C1727.9,859.5,1729.2,859.8,1729.8,860.8z"/>
			<linearGradient id="SVGID_32_" gradientUnits="userSpaceOnUse" x1="1730.8521" y1="871.1351" x2="1736.46" y2="871.1351">
				<stop  offset="0" style="stop-color:#DAE3FE"/>
				<stop  offset="1" style="stop-color:#E9EFFD"/>
			</linearGradient>
			<path class="st38" d="M1734.7,868.8l1.5,2.4c0.6,1,0.3,2.3-0.7,2.9s-2.3,0.3-2.9-0.7l0,0l0,0l-1.4-2.4l0,0
				c-0.6-1-0.3-2.3,0.7-2.8C1732.9,867.5,1734.1,867.9,1734.7,868.8z"/>
			<linearGradient id="SVGID_33_" gradientUnits="userSpaceOnUse" x1="1735.6168" y1="879.2957" x2="1741.2048" y2="879.2957">
				<stop  offset="0" style="stop-color:#DAE3FE"/>
				<stop  offset="1" style="stop-color:#E9EFFD"/>
			</linearGradient>
			<path class="st39" d="M1739.5,877l1.4,2.5c0.6,1,0.2,2.3-0.8,2.9c-1,0.6-2.3,0.2-2.9-0.8l0,0l0,0l-1.4-2.5l0,0
				c-0.6-1-0.2-2.3,0.8-2.8C1737.7,875.7,1738.9,876,1739.5,877z"/>
			<linearGradient id="SVGID_34_" gradientUnits="userSpaceOnUse" x1="1740.2302" y1="887.5455" x2="1745.7883" y2="887.5455">
				<stop  offset="0" style="stop-color:#DAE3FE"/>
				<stop  offset="1" style="stop-color:#E9EFFD"/>
			</linearGradient>
			<path class="st40" d="M1744.2,885.3l1.4,2.5c0.6,1,0.2,2.3-0.8,2.8c-1,0.6-2.3,0.2-2.8-0.8l0,0l0,0l-1.3-2.5l0,0
				c-0.6-1-0.2-2.3,0.8-2.8C1742.3,883.9,1743.6,884.3,1744.2,885.3z"/>
			<linearGradient id="SVGID_35_" gradientUnits="userSpaceOnUse" x1="1744.6587" y1="895.8983" x2="1750.1764" y2="895.8983">
				<stop  offset="0" style="stop-color:#DAE3FE"/>
				<stop  offset="1" style="stop-color:#E9EFFD"/>
			</linearGradient>
			<path class="st41" d="M1748.6,893.7l1.3,2.5c0.5,1,0.1,2.3-0.9,2.8c-1,0.5-2.3,0.1-2.8-0.9l0,0l0,0l-1.3-2.5l0,0
				c-0.5-1-0.1-2.3,0.9-2.8C1746.8,892.2,1748.1,892.6,1748.6,893.7z"/>
			<linearGradient id="SVGID_36_" gradientUnits="userSpaceOnUse" x1="1748.8665" y1="904.3666" x2="1754.3323" y2="904.3666">
				<stop  offset="0" style="stop-color:#DAE3FE"/>
				<stop  offset="1" style="stop-color:#E9EFFD"/>
			</linearGradient>
			<path class="st42" d="M1752.9,902.2l1.2,2.6c0.5,1.1,0.1,2.3-1,2.8c-1.1,0.5-2.3,0.1-2.8-1l0,0l0,0l-1.2-2.5l0,0
				c-0.5-1.1-0.1-2.3,1-2.8C1751.1,900.7,1752.4,901.1,1752.9,902.2z"/>
			<linearGradient id="SVGID_37_" gradientUnits="userSpaceOnUse" x1="1752.8149" y1="912.9608" x2="1758.2168" y2="912.9608">
				<stop  offset="0" style="stop-color:#DAE3FE"/>
				<stop  offset="1" style="stop-color:#E9EFFD"/>
			</linearGradient>
			<path class="st43" d="M1756.9,910.8l1.1,2.6c0.5,1.1,0,2.3-1.1,2.8c-1.1,0.5-2.3,0-2.8-1.1l0,0l0,0l-1.1-2.6l0,0
				c-0.5-1.1,0-2.3,1.1-2.8C1755.2,909.2,1756.4,909.7,1756.9,910.8z"/>
			<linearGradient id="SVGID_38_" gradientUnits="userSpaceOnUse" x1="1756.4635" y1="921.6891" x2="1761.7893" y2="921.6891">
				<stop  offset="0" style="stop-color:#DAE3FE"/>
				<stop  offset="1" style="stop-color:#E9EFFD"/>
			</linearGradient>
			<path class="st44" d="M1760.6,919.6l1,2.7c0.4,1.1-0.1,2.3-1.2,2.8c-1.1,0.4-2.3-0.1-2.8-1.2l0,0l0,0l-1-2.6l0,0
				c-0.4-1.1,0.1-2.3,1.2-2.8C1758.9,917.9,1760.2,918.5,1760.6,919.6z"/>
			<linearGradient id="SVGID_39_" gradientUnits="userSpaceOnUse" x1="1759.7699" y1="930.5541" x2="1765.0039" y2="930.5541">
				<stop  offset="0" style="stop-color:#DAE3FE"/>
				<stop  offset="1" style="stop-color:#E9EFFD"/>
			</linearGradient>
			<path class="st45" d="M1764,928.5l0.9,2.7c0.4,1.1-0.2,2.3-1.3,2.7c-1.1,0.4-2.3-0.2-2.7-1.3l0,0l0,0l-0.9-2.7l0,0
				c-0.4-1.1,0.2-2.3,1.3-2.7C1762.3,926.8,1763.6,927.4,1764,928.5z"/>
			<linearGradient id="SVGID_40_" gradientUnits="userSpaceOnUse" x1="1762.6876" y1="939.5528" x2="1767.817" y2="939.5528">
				<stop  offset="0" style="stop-color:#DAE3FE"/>
				<stop  offset="1" style="stop-color:#E9EFFD"/>
			</linearGradient>
			<path class="st46" d="M1766.9,937.6l0.8,2.7c0.3,1.1-0.3,2.3-1.5,2.7c-1.1,0.3-2.3-0.3-2.7-1.5l0,0l0,0l-0.8-2.7l0,0
				c-0.3-1.1,0.3-2.3,1.5-2.7C1765.4,935.8,1766.6,936.4,1766.9,937.6z"/>
			<linearGradient id="SVGID_41_" gradientUnits="userSpaceOnUse" x1="1765.1731" y1="948.6793" x2="1770.1842" y2="948.6793">
				<stop  offset="0" style="stop-color:#DAE3FE"/>
				<stop  offset="1" style="stop-color:#E9EFFD"/>
			</linearGradient>
			<path class="st47" d="M1769.5,946.8l0.7,2.8c0.3,1.2-0.4,2.3-1.6,2.6c-1.2,0.3-2.3-0.4-2.6-1.6l0,0l0,0l-0.6-2.7l0,0
				c-0.3-1.2,0.4-2.3,1.6-2.6C1768,944.9,1769.2,945.6,1769.5,946.8z"/>
			<linearGradient id="SVGID_42_" gradientUnits="userSpaceOnUse" x1="1767.1833" y1="957.9201" x2="1772.0632" y2="957.9201">
				<stop  offset="0" style="stop-color:#DAE3FE"/>
				<stop  offset="1" style="stop-color:#E9EFFD"/>
			</linearGradient>
			<path class="st48" d="M1771.5,956.1l0.5,2.8c0.2,1.2-0.6,2.3-1.8,2.5c-1.2,0.2-2.3-0.6-2.5-1.8l0,0l0,0l-0.5-2.8l0,0
				c-0.2-1.2,0.6-2.3,1.8-2.5C1770.2,954.1,1771.3,954.9,1771.5,956.1z"/>
			<linearGradient id="SVGID_43_" gradientUnits="userSpaceOnUse" x1="1768.6793" y1="967.2552" x2="1773.4169" y2="967.2552">
				<stop  offset="0" style="stop-color:#DAE3FE"/>
				<stop  offset="1" style="stop-color:#E9EFFD"/>
			</linearGradient>
			<path class="st49" d="M1773,965.6l0.4,2.9c0.1,1.2-0.7,2.3-1.9,2.4c-1.2,0.1-2.3-0.7-2.4-1.9l0,0l0,0l-0.3-2.8l0,0
				c-0.1-1.2,0.7-2.3,1.9-2.4C1771.8,963.5,1772.9,964.4,1773,965.6z"/>
			<linearGradient id="SVGID_44_" gradientUnits="userSpaceOnUse" x1="1769.6282" y1="976.6594" x2="1774.2148" y2="976.6594">
				<stop  offset="0" style="stop-color:#DAE3FE"/>
				<stop  offset="1" style="stop-color:#E9EFFD"/>
			</linearGradient>
			<path class="st50" d="M1774,975.1l0.2,2.9c0.1,1.2-0.8,2.3-2.1,2.3c-1.2,0.1-2.3-0.8-2.3-2.1l0,0l0,0l-0.2-2.8l0,0
				c-0.1-1.2,0.8-2.3,2.1-2.3C1772.9,973,1774,973.9,1774,975.1z"/>
			<linearGradient id="SVGID_45_" gradientUnits="userSpaceOnUse" x1="1769.9896" y1="986.098" x2="1774.4224" y2="986.098">
				<stop  offset="0" style="stop-color:#DAE3FE"/>
				<stop  offset="1" style="stop-color:#E9EFFD"/>
			</linearGradient>
			<path class="st51" d="M1774.4,984.7l0,2.9c0,1.2-1,2.2-2.2,2.2c-1.2,0-2.2-1-2.2-2.2v0l0,0l0-2.8l0,0c0-1.2,1-2.2,2.2-2.2
				C1773.4,982.4,1774.4,983.4,1774.4,984.7z"/>
			<linearGradient id="SVGID_46_" gradientUnits="userSpaceOnUse" x1="1769.5763" y1="995.5358" x2="1774.2109" y2="995.5358">
				<stop  offset="0" style="stop-color:#DAE3FE"/>
				<stop  offset="1" style="stop-color:#E9EFFD"/>
			</linearGradient>
			<path class="st52" d="M1774.2,994.2l-0.2,2.9c-0.1,1.2-1.1,2.2-2.4,2.1c-1.2-0.1-2.2-1.1-2.1-2.4l0,0l0,0l0.2-2.8l0,0
				c0.1-1.2,1.1-2.2,2.4-2.1C1773.4,992,1774.3,993,1774.2,994.2z"/>
			<linearGradient id="SVGID_47_" gradientUnits="userSpaceOnUse" x1="1768.5812" y1="1004.9363" x2="1773.4124" y2="1004.9363">
				<stop  offset="0" style="stop-color:#DAE3FE"/>
				<stop  offset="1" style="stop-color:#E9EFFD"/>
			</linearGradient>
			<path class="st53" d="M1773.4,1003.8l-0.4,2.9c-0.2,1.2-1.3,2.1-2.5,1.9c-1.2-0.2-2.1-1.3-1.9-2.5l0,0l0,0l0.4-2.8l0,0
				c0.2-1.2,1.3-2.1,2.5-1.9C1772.7,1001.4,1773.6,1002.6,1773.4,1003.8z"/>
			<linearGradient id="SVGID_48_" gradientUnits="userSpaceOnUse" x1="1767.0242" y1="1014.2655" x2="1772.0454" y2="1014.2655">
				<stop  offset="0" style="stop-color:#DAE3FE"/>
				<stop  offset="1" style="stop-color:#E9EFFD"/>
			</linearGradient>
			<path class="st54" d="M1772,1013.3l-0.5,2.8c-0.2,1.2-1.4,2-2.6,1.8c-1.2-0.2-2-1.4-1.8-2.6l0,0l0,0l0.5-2.7l0,0
				c0.2-1.2,1.4-2,2.6-1.8C1771.4,1010.9,1772.2,1012,1772,1013.3z"/>
			<linearGradient id="SVGID_49_" gradientUnits="userSpaceOnUse" x1="1764.9269" y1="1023.4932" x2="1770.1315" y2="1023.4932">
				<stop  offset="0" style="stop-color:#DAE3FE"/>
				<stop  offset="1" style="stop-color:#E9EFFD"/>
			</linearGradient>
			<path class="st55" d="M1770.1,1022.6l-0.7,2.8c-0.3,1.2-1.5,2-2.7,1.7c-1.2-0.3-2-1.5-1.7-2.7l0,0l0,0l0.7-2.7l0,0
				c0.3-1.2,1.5-1.9,2.7-1.6C1769.6,1020.2,1770.4,1021.4,1770.1,1022.6z"/>
			<linearGradient id="SVGID_50_" gradientUnits="userSpaceOnUse" x1="1762.3254" y1="1032.5861" x2="1767.6848" y2="1032.5861">
				<stop  offset="0" style="stop-color:#DAE3FE"/>
				<stop  offset="1" style="stop-color:#E9EFFD"/>
			</linearGradient>
			<path class="st56" d="M1767.6,1031.9l-0.8,2.7c-0.4,1.2-1.6,1.9-2.8,1.5c-1.2-0.4-1.9-1.6-1.5-2.8l0,0l0.8-2.7l0,0
				c0.4-1.2,1.6-1.9,2.8-1.5C1767.3,1029.4,1768,1030.7,1767.6,1031.9L1767.6,1031.9z"/>
			<linearGradient id="SVGID_51_" gradientUnits="userSpaceOnUse" x1="1759.2317" y1="1041.5314" x2="1764.7269" y2="1041.5314">
				<stop  offset="0" style="stop-color:#DAE3FE"/>
				<stop  offset="1" style="stop-color:#E9EFFD"/>
			</linearGradient>
			<path class="st57" d="M1764.6,1041l-1,2.7c-0.4,1.2-1.7,1.8-2.9,1.3c-1.2-0.4-1.8-1.7-1.3-2.9l0,0l1-2.6l0,0
				c0.4-1.2,1.7-1.8,2.9-1.3C1764.4,1038.5,1765,1039.8,1764.6,1041L1764.6,1041z"/>
			<linearGradient id="SVGID_52_" gradientUnits="userSpaceOnUse" x1="1755.6646" y1="1050.3016" x2="1761.2891" y2="1050.3016">
				<stop  offset="0" style="stop-color:#DAE3FE"/>
				<stop  offset="1" style="stop-color:#E9EFFD"/>
			</linearGradient>
			<path class="st58" d="M1761.1,1049.9l-1.1,2.6c-0.5,1.1-1.8,1.7-2.9,1.2c-1.1-0.5-1.7-1.8-1.2-2.9l0,0l1.1-2.6l0,0
				c0.5-1.1,1.8-1.7,2.9-1.2C1761.1,1047.4,1761.6,1048.7,1761.1,1049.9L1761.1,1049.9z"/>
			<linearGradient id="SVGID_53_" gradientUnits="userSpaceOnUse" x1="1751.6465" y1="1058.8748" x2="1757.3925" y2="1058.8748">
				<stop  offset="0" style="stop-color:#DAE3FE"/>
				<stop  offset="1" style="stop-color:#E9EFFD"/>
			</linearGradient>
			<path class="st59" d="M1757.2,1058.6l-1.3,2.6c-0.5,1.1-1.9,1.6-3,1c-1.1-0.5-1.6-1.9-1-3l0,0l1.2-2.5l0,0c0.5-1.1,1.9-1.6,3-1
				C1757.3,1056.1,1757.7,1057.5,1757.2,1058.6L1757.2,1058.6z"/>
			<linearGradient id="SVGID_54_" gradientUnits="userSpaceOnUse" x1="1747.1963" y1="1067.2311" x2="1753.0602" y2="1067.2311">
				<stop  offset="0" style="stop-color:#DAE3FE"/>
				<stop  offset="1" style="stop-color:#E9EFFD"/>
			</linearGradient>
			<path class="st60" d="M1752.8,1067.1l-1.4,2.5c-0.6,1.1-2,1.5-3,0.9s-1.5-2-0.9-3l0,0l1.4-2.4l0,0c0.6-1.1,2-1.5,3-0.9
				C1753,1064.6,1753.4,1066,1752.8,1067.1L1752.8,1067.1z"/>
			<linearGradient id="SVGID_55_" gradientUnits="userSpaceOnUse" x1="1742.3278" y1="1075.3632" x2="1748.3042" y2="1075.3632">
				<stop  offset="0" style="stop-color:#DAE3FE"/>
				<stop  offset="1" style="stop-color:#E9EFFD"/>
			</linearGradient>
			<path class="st61" d="M1748,1075.3l-1.5,2.4c-0.7,1-2,1.4-3.1,0.7c-1-0.7-1.4-2-0.7-3.1l0,0l1.5-2.4l0,0c0.7-1,2-1.4,3.1-0.7
				C1748.3,1072.9,1748.6,1074.3,1748,1075.3L1748,1075.3z"/>
			<linearGradient id="SVGID_56_" gradientUnits="userSpaceOnUse" x1="1737.0638" y1="1083.2435" x2="1743.1472" y2="1083.2435">
				<stop  offset="0" style="stop-color:#DAE3FE"/>
				<stop  offset="1" style="stop-color:#E9EFFD"/>
			</linearGradient>
			<path class="st62" d="M1742.7,1083.3l-1.6,2.4c-0.7,1-2.1,1.3-3.1,0.5c-1-0.7-1.3-2.1-0.5-3.1l0,0l1.6-2.3l0,0
				c0.7-1,2.1-1.3,3.1-0.6C1743.2,1080.9,1743.4,1082.3,1742.7,1083.3L1742.7,1083.3z"/>
			<linearGradient id="SVGID_57_" gradientUnits="userSpaceOnUse" x1="1731.4192" y1="1090.8575" x2="1737.6045" y2="1090.8575">
				<stop  offset="0" style="stop-color:#DAE3FE"/>
				<stop  offset="1" style="stop-color:#E9EFFD"/>
			</linearGradient>
			<path class="st63" d="M1737.1,1091.1l-1.8,2.3c-0.7,1-2.1,1.1-3.1,0.4c-1-0.7-1.1-2.1-0.4-3.1l0,0l1.7-2.2l0,0
				c0.7-1,2.1-1.1,3.1-0.4C1737.7,1088.7,1737.9,1090.1,1737.1,1091.1L1737.1,1091.1z"/>
			<linearGradient id="SVGID_58_" gradientUnits="userSpaceOnUse" x1="1725.4098" y1="1098.187" x2="1731.6915" y2="1098.187">
				<stop  offset="0" style="stop-color:#DAE3FE"/>
				<stop  offset="1" style="stop-color:#E9EFFD"/>
			</linearGradient>
			<path class="st64" d="M1731.2,1098.5l-1.9,2.2c-0.8,0.9-2.2,1-3.1,0.2c-0.9-0.8-1-2.2-0.2-3.1l0,0l1.8-2.1l0,0
				c0.8-0.9,2.2-1,3.1-0.2C1731.8,1096.2,1732,1097.6,1731.2,1098.5L1731.2,1098.5z"/>
			<linearGradient id="SVGID_59_" gradientUnits="userSpaceOnUse" x1="1719.0479" y1="1105.2151" x2="1725.4213" y2="1105.2151">
				<stop  offset="0" style="stop-color:#DAE3FE"/>
				<stop  offset="1" style="stop-color:#E9EFFD"/>
			</linearGradient>
			<path class="st65" d="M1724.8,1105.7l-2,2.1c-0.8,0.9-2.2,0.9-3.1,0.1c-0.9-0.8-0.9-2.2-0.1-3.1l0,0l1.9-2l0,0
				c0.8-0.9,2.2-0.9,3.1-0.1C1725.6,1103.4,1725.7,1104.8,1724.8,1105.7L1724.8,1105.7z"/>
			<linearGradient id="SVGID_60_" gradientUnits="userSpaceOnUse" x1="1712.3644" y1="1111.9207" x2="1718.817" y2="1111.9207">
				<stop  offset="0" style="stop-color:#DAE3FE"/>
				<stop  offset="1" style="stop-color:#E9EFFD"/>
			</linearGradient>
			<path class="st66" d="M1718.1,1112.5l-2.1,2c-0.9,0.8-2.3,0.8-3.1-0.1c-0.8-0.9-0.8-2.3,0.1-3.1l0,0l2-1.9l0,0
				c0.9-0.8,2.3-0.8,3.1,0.1C1719,1110.3,1719,1111.7,1718.1,1112.5L1718.1,1112.5z"/>
			<linearGradient id="SVGID_61_" gradientUnits="userSpaceOnUse" x1="1705.3793" y1="1118.3162" x2="1711.9097" y2="1118.3162">
				<stop  offset="0" style="stop-color:#DAE3FE"/>
				<stop  offset="1" style="stop-color:#E9EFFD"/>
			</linearGradient>
			<path class="st67" d="M1711.2,1119l-2.2,1.9c-0.9,0.8-2.3,0.7-3.1-0.2c-0.8-0.9-0.7-2.3,0.2-3.1l0,0l2.1-1.9l0,0
				c0.9-0.8,2.3-0.7,3.1,0.2C1712.2,1116.8,1712.1,1118.2,1711.2,1119L1711.2,1119z"/>
			<linearGradient id="SVGID_62_" gradientUnits="userSpaceOnUse" x1="1698.1198" y1="1124.3971" x2="1704.7184" y2="1124.3971">
				<stop  offset="0" style="stop-color:#DAE3FE"/>
				<stop  offset="1" style="stop-color:#E9EFFD"/>
			</linearGradient>
			<path class="st68" d="M1703.9,1125.2l-2.2,1.8c-0.9,0.8-2.3,0.6-3.1-0.3c-0.8-0.9-0.6-2.3,0.3-3.1l0,0l2.2-1.8l0,0
				c0.9-0.8,2.3-0.6,3.1,0.3C1705,1123.1,1704.8,1124.4,1703.9,1125.2L1703.9,1125.2z"/>
			<linearGradient id="SVGID_63_" gradientUnits="userSpaceOnUse" x1="1690.6072" y1="1130.1602" x2="1697.2676" y2="1130.1602">
				<stop  offset="0" style="stop-color:#DAE3FE"/>
				<stop  offset="1" style="stop-color:#E9EFFD"/>
			</linearGradient>
			<path class="st69" d="M1696.4,1131.1l-2.3,1.7c-1,0.7-2.3,0.5-3-0.5c-0.7-1-0.5-2.3,0.5-3l0,0l2.3-1.7l0,0c1-0.7,2.3-0.5,3,0.5
				C1697.6,1129,1697.4,1130.4,1696.4,1131.1L1696.4,1131.1z"/>
			<linearGradient id="SVGID_64_" gradientUnits="userSpaceOnUse" x1="1682.8625" y1="1135.6041" x2="1689.5785" y2="1135.6041">
				<stop  offset="0" style="stop-color:#DAE3FE"/>
				<stop  offset="1" style="stop-color:#E9EFFD"/>
			</linearGradient>
			<path class="st70" d="M1688.6,1136.6l-2.4,1.6c-1,0.7-2.3,0.4-3-0.6c-0.7-1-0.4-2.3,0.6-3l0,0l2.3-1.6l0,0c1-0.7,2.3-0.4,3,0.6
				C1689.9,1134.6,1689.6,1135.9,1688.6,1136.6L1688.6,1136.6z"/>
			<linearGradient id="SVGID_65_" gradientUnits="userSpaceOnUse" x1="1674.9062" y1="1140.7303" x2="1681.6715" y2="1140.7303">
				<stop  offset="0" style="stop-color:#DAE3FE"/>
				<stop  offset="1" style="stop-color:#E9EFFD"/>
			</linearGradient>
			<path class="st71" d="M1680.6,1141.8l-2.4,1.5c-1,0.6-2.4,0.3-3-0.7c-0.6-1-0.3-2.4,0.7-3l0,0l2.4-1.5l0,0c1-0.6,2.4-0.3,3,0.7
				C1682,1139.9,1681.7,1141.2,1680.6,1141.8L1680.6,1141.8z"/>
			<linearGradient id="SVGID_66_" gradientUnits="userSpaceOnUse" x1="1666.7572" y1="1145.5409" x2="1673.5663" y2="1145.5409">
				<stop  offset="0" style="stop-color:#DAE3FE"/>
				<stop  offset="1" style="stop-color:#E9EFFD"/>
			</linearGradient>
			<path class="st72" d="M1672.5,1146.7l-2.5,1.4c-1,0.6-2.4,0.2-2.9-0.8c-0.6-1-0.2-2.4,0.8-2.9l0,0l2.4-1.4l0,0
				c1-0.6,2.4-0.2,2.9,0.8C1673.9,1144.8,1673.5,1146.1,1672.5,1146.7L1672.5,1146.7z"/>
			<linearGradient id="SVGID_67_" gradientUnits="userSpaceOnUse" x1="1658.4336" y1="1150.0386" x2="1665.2811" y2="1150.0386">
				<stop  offset="0" style="stop-color:#DAE3FE"/>
				<stop  offset="1" style="stop-color:#E9EFFD"/>
			</linearGradient>
			<path class="st73" d="M1664.1,1151.3l-2.5,1.3c-1.1,0.5-2.4,0.1-2.9-0.9c-0.5-1.1-0.1-2.4,0.9-2.9l0,0l2.5-1.3l0,0
				c1.1-0.5,2.4-0.1,2.9,0.9C1665.6,1149.4,1665.2,1150.7,1664.1,1151.3L1664.1,1151.3z"/>
			<linearGradient id="SVGID_68_" gradientUnits="userSpaceOnUse" x1="1649.9548" y1="1154.2268" x2="1656.8333" y2="1154.2268">
				<stop  offset="0" style="stop-color:#DAE3FE"/>
				<stop  offset="1" style="stop-color:#E9EFFD"/>
			</linearGradient>
			<path class="st74" d="M1655.6,1155.6l-2.6,1.2c-1.1,0.5-2.4,0-2.9-1c-0.5-1.1,0-2.4,1-2.9l0,0l2.5-1.2l0,0c1.1-0.5,2.4,0,2.9,1
				C1657.1,1153.8,1656.7,1155.1,1655.6,1155.6L1655.6,1155.6z"/>
			<linearGradient id="SVGID_69_" gradientUnits="userSpaceOnUse" x1="1641.3354" y1="1158.1089" x2="1648.2445" y2="1158.1089">
				<stop  offset="0" style="stop-color:#DAE3FE"/>
				<stop  offset="1" style="stop-color:#E9EFFD"/>
			</linearGradient>
			<path class="st75" d="M1646.9,1159.5l-2.6,1.1c-1.1,0.5-2.3,0-2.8-1.1c-0.5-1.1,0-2.3,1.1-2.8l0,0l2.6-1.1l0,0
				c1.1-0.5,2.3,0,2.8,1.1C1648.5,1157.8,1648,1159,1646.9,1159.5L1646.9,1159.5z"/>
			<linearGradient id="SVGID_70_" gradientUnits="userSpaceOnUse" x1="1632.5829" y1="1161.6935" x2="1639.5181" y2="1161.6935">
				<stop  offset="0" style="stop-color:#DAE3FE"/>
				<stop  offset="1" style="stop-color:#E9EFFD"/>
			</linearGradient>
			<path class="st76" d="M1638.2,1163.2l-2.7,1c-1.1,0.4-2.3-0.1-2.8-1.2c-0.4-1.1,0.1-2.3,1.2-2.8l0,0l2.6-1l0,0
				c1.1-0.4,2.3,0.1,2.8,1.2C1639.8,1161.5,1639.3,1162.7,1638.2,1163.2L1638.2,1163.2z"/>
			<linearGradient id="SVGID_71_" gradientUnits="userSpaceOnUse" x1="1623.7167" y1="1164.9823" x2="1630.6735" y2="1164.9823">
				<stop  offset="0" style="stop-color:#DAE3FE"/>
				<stop  offset="1" style="stop-color:#E9EFFD"/>
			</linearGradient>
			<path class="st77" d="M1629.2,1166.5l-2.7,0.9c-1.1,0.4-2.3-0.2-2.7-1.3c-0.4-1.1,0.2-2.3,1.3-2.7l0,0l2.7-0.9l0,0
				c1.1-0.4,2.3,0.2,2.7,1.3C1630.9,1164.9,1630.4,1166.1,1629.2,1166.5L1629.2,1166.5z"/>
			<linearGradient id="SVGID_72_" gradientUnits="userSpaceOnUse" x1="1614.7487" y1="1167.9797" x2="1621.7228" y2="1167.9797">
				<stop  offset="0" style="stop-color:#DAE3FE"/>
				<stop  offset="1" style="stop-color:#E9EFFD"/>
			</linearGradient>
			<path class="st78" d="M1620.2,1169.6l-2.7,0.9c-1.1,0.4-2.3-0.3-2.7-1.4c-0.4-1.1,0.3-2.3,1.4-2.7l0,0l2.7-0.9l0,0
				c1.1-0.4,2.3,0.3,2.7,1.4C1622,1168,1621.4,1169.2,1620.2,1169.6L1620.2,1169.6z"/>
			<linearGradient id="SVGID_73_" gradientUnits="userSpaceOnUse" x1="1605.6917" y1="1170.6895" x2="1612.6787" y2="1170.6895">
				<stop  offset="0" style="stop-color:#DAE3FE"/>
				<stop  offset="1" style="stop-color:#E9EFFD"/>
			</linearGradient>
			<path class="st79" d="M1611.1,1172.3l-2.7,0.8c-1.1,0.3-2.3-0.3-2.6-1.5c-0.3-1.1,0.3-2.3,1.5-2.6l0,0l2.7-0.8l0,0
				c1.1-0.3,2.3,0.3,2.6,1.5C1612.9,1170.9,1612.3,1172,1611.1,1172.3L1611.1,1172.3z"/>
			<linearGradient id="SVGID_74_" gradientUnits="userSpaceOnUse" x1="1596.5538" y1="1173.116" x2="1603.5493" y2="1173.116">
				<stop  offset="0" style="stop-color:#DAE3FE"/>
				<stop  offset="1" style="stop-color:#E9EFFD"/>
			</linearGradient>
			<path class="st80" d="M1601.9,1174.8l-2.8,0.7c-1.1,0.3-2.3-0.4-2.6-1.5s0.4-2.3,1.5-2.6l0,0l2.7-0.7l0,0
				c1.1-0.3,2.3,0.4,2.6,1.5C1603.8,1173.4,1603.1,1174.5,1601.9,1174.8L1601.9,1174.8z"/>
			<linearGradient id="SVGID_75_" gradientUnits="userSpaceOnUse" x1="1587.348" y1="1175.2603" x2="1594.3529" y2="1175.2603">
				<stop  offset="0" style="stop-color:#DAE3FE"/>
				<stop  offset="1" style="stop-color:#E9EFFD"/>
			</linearGradient>
			<path class="st81" d="M1592.7,1177l-2.8,0.6c-1.1,0.2-2.3-0.5-2.5-1.6c-0.2-1.1,0.5-2.3,1.6-2.5l0,0l2.8-0.6l0,0
				c1.1-0.2,2.3,0.5,2.5,1.6C1594.6,1175.6,1593.8,1176.8,1592.7,1177L1592.7,1177z"/>
			<linearGradient id="SVGID_76_" gradientUnits="userSpaceOnUse" x1="1578.0862" y1="1177.1217" x2="1585.0935" y2="1177.1217">
				<stop  offset="0" style="stop-color:#DAE3FE"/>
				<stop  offset="1" style="stop-color:#E9EFFD"/>
			</linearGradient>
			<path class="st82" d="M1583.4,1178.9l-2.8,0.5c-1.1,0.2-2.2-0.5-2.4-1.7c-0.2-1.1,0.5-2.2,1.7-2.4l0,0l2.8-0.5l0,0
				c1.1-0.2,2.2,0.5,2.4,1.7C1585.3,1177.6,1584.5,1178.7,1583.4,1178.9L1583.4,1178.9z"/>
			<linearGradient id="SVGID_77_" gradientUnits="userSpaceOnUse" x1="1568.7727" y1="1178.6965" x2="1575.7827" y2="1178.6965">
				<stop  offset="0" style="stop-color:#DAE3FE"/>
				<stop  offset="1" style="stop-color:#E9EFFD"/>
			</linearGradient>
			<path class="st83" d="M1574,1180.6l-2.8,0.4c-1.1,0.2-2.2-0.6-2.4-1.8c-0.2-1.1,0.6-2.2,1.8-2.4l0,0l2.8-0.4l0,0
				c1.1-0.2,2.2,0.6,2.4,1.8C1575.9,1179.3,1575.1,1180.4,1574,1180.6L1574,1180.6z"/>
			<linearGradient id="SVGID_78_" gradientUnits="userSpaceOnUse" x1="1559.416" y1="1179.981" x2="1566.4261" y2="1179.981">
				<stop  offset="0" style="stop-color:#DAE3FE"/>
				<stop  offset="1" style="stop-color:#E9EFFD"/>
			</linearGradient>
			<path class="st84" d="M1564.6,1181.9l-2.8,0.3c-1.1,0.1-2.2-0.7-2.3-1.8c-0.1-1.1,0.7-2.2,1.8-2.3l0,0l2.8-0.3l0,0
				c1.1-0.1,2.2,0.7,2.3,1.8C1566.6,1180.7,1565.7,1181.7,1564.6,1181.9L1564.6,1181.9z"/>
			<linearGradient id="SVGID_79_" gradientUnits="userSpaceOnUse" x1="1550.0249" y1="1180.9697" x2="1557.0325" y2="1180.9697">
				<stop  offset="0" style="stop-color:#DAE3FE"/>
				<stop  offset="1" style="stop-color:#E9EFFD"/>
			</linearGradient>
			<path class="st85" d="M1555.1,1182.9l-2.8,0.3c-1.1,0.1-2.2-0.7-2.3-1.9c-0.1-1.1,0.7-2.2,1.9-2.3l0,0l2.8-0.3l0,0
				c1.1-0.1,2.2,0.7,2.3,1.9C1557.1,1181.8,1556.3,1182.8,1555.1,1182.9L1555.1,1182.9z"/>
			<linearGradient id="SVGID_80_" gradientUnits="userSpaceOnUse" x1="1540.6083" y1="1181.658" x2="1547.6107" y2="1181.658">
				<stop  offset="0" style="stop-color:#DAE3FE"/>
				<stop  offset="1" style="stop-color:#E9EFFD"/>
			</linearGradient>
			<path class="st86" d="M1545.6,1183.7l-2.8,0.2c-1.1,0.1-2.1-0.8-2.2-2c-0.1-1.1,0.8-2.1,2-2.2l0,0l2.8-0.2l0,0
				c1.1-0.1,2.1,0.8,2.2,2C1547.7,1182.6,1546.8,1183.6,1545.6,1183.7L1545.6,1183.7z"/>
			<linearGradient id="SVGID_81_" gradientUnits="userSpaceOnUse" x1="1531.1757" y1="1182.04" x2="1538.17" y2="1182.04">
				<stop  offset="0" style="stop-color:#DAE3FE"/>
				<stop  offset="1" style="stop-color:#E9EFFD"/>
			</linearGradient>
			<path class="st87" d="M1536.1,1184.1l-2.9,0.1c-1.1,0-2.1-0.9-2.1-2c0-1.1,0.9-2.1,2-2.1l0,0l2.8-0.1l0,0c1.1,0,2.1,0.9,2.1,2
				S1537.3,1184,1536.1,1184.1L1536.1,1184.1z"/>
			<linearGradient id="SVGID_82_" gradientUnits="userSpaceOnUse" x1="1521.7371" y1="1182.1118" x2="1528.7205" y2="1182.1118">
				<stop  offset="0" style="stop-color:#DAE3FE"/>
				<stop  offset="1" style="stop-color:#E9EFFD"/>
			</linearGradient>
			<path class="st88" d="M1526.6,1184.2l-2.9,0c-1.1,0-2.1-0.9-2-2.1c0-1.1,0.9-2.1,2.1-2h0l2.8,0l0,0c1.1,0,2.1,0.9,2,2.1
				C1528.7,1183.3,1527.8,1184.2,1526.6,1184.2L1526.6,1184.2z"/>
			<linearGradient id="SVGID_83_" gradientUnits="userSpaceOnUse" x1="1512.3032" y1="1181.8629" x2="1519.2725" y2="1181.8629">
				<stop  offset="0" style="stop-color:#DAE3FE"/>
				<stop  offset="1" style="stop-color:#E9EFFD"/>
			</linearGradient>
			<path class="st89" d="M1517.1,1184l-2.9-0.1c-1.1-0.1-2-1-2-2.1c0.1-1.1,1-2,2.1-2l0,0l2.8,0.1l0,0c1.1,0,2,1,2,2.1
				C1519.2,1183.1,1518.3,1184,1517.1,1184L1517.1,1184z"/>
			<linearGradient id="SVGID_84_" gradientUnits="userSpaceOnUse" x1="1502.8937" y1="1181.2909" x2="1509.837" y2="1181.2909">
				<stop  offset="0" style="stop-color:#DAE3FE"/>
				<stop  offset="1" style="stop-color:#E9EFFD"/>
			</linearGradient>
			<path class="st90" d="M1507.6,1183.4l-2.8-0.2c-1.1-0.1-2-1.1-1.9-2.2c0.1-1.1,1.1-2,2.2-1.9l0,0l2.8,0.2l0,0
				c1.1,0.1,2,1.1,1.9,2.2S1508.8,1183.5,1507.6,1183.4L1507.6,1183.4z"/>
			<linearGradient id="SVGID_85_" gradientUnits="userSpaceOnUse" x1="1493.5114" y1="1180.3846" x2="1500.4136" y2="1180.3846">
				<stop  offset="0" style="stop-color:#DAE3FE"/>
				<stop  offset="1" style="stop-color:#E9EFFD"/>
			</linearGradient>
			<path class="st91" d="M1498.1,1182.6l-2.8-0.3c-1.1-0.1-1.9-1.1-1.8-2.2c0.1-1.1,1.1-1.9,2.2-1.8l0,0l2.8,0.3l0,0
				c1.1,0.1,1.9,1.1,1.8,2.2C1500.3,1181.9,1499.3,1182.7,1498.1,1182.6L1498.1,1182.6z"/>
			<linearGradient id="SVGID_86_" gradientUnits="userSpaceOnUse" x1="1484.1722" y1="1179.1395" x2="1491.0226" y2="1179.1395">
				<stop  offset="0" style="stop-color:#DAE3FE"/>
				<stop  offset="1" style="stop-color:#E9EFFD"/>
			</linearGradient>
			<path class="st92" d="M1488.7,1181.3l-2.8-0.4c-1.1-0.2-1.8-1.2-1.7-2.3c0.2-1.1,1.2-1.8,2.3-1.7l0,0l2.8,0.4l0,0
				c1.1,0.2,1.9,1.2,1.7,2.3C1490.8,1180.7,1489.8,1181.5,1488.7,1181.3L1488.7,1181.3z"/>
			<linearGradient id="SVGID_87_" gradientUnits="userSpaceOnUse" x1="1474.8877" y1="1177.5487" x2="1481.6824" y2="1177.5487">
				<stop  offset="0" style="stop-color:#DAE3FE"/>
				<stop  offset="1" style="stop-color:#E9EFFD"/>
			</linearGradient>
			<path class="st93" d="M1479.3,1179.8l-2.8-0.5c-1.1-0.2-1.8-1.3-1.6-2.3c0.2-1.1,1.3-1.8,2.3-1.6l0,0l2.8,0.5l0,0
				c1.1,0.2,1.8,1.2,1.6,2.3S1480.4,1180,1479.3,1179.8L1479.3,1179.8z"/>
			<linearGradient id="SVGID_88_" gradientUnits="userSpaceOnUse" x1="1465.6782" y1="1175.6074" x2="1472.4126" y2="1175.6074">
				<stop  offset="0" style="stop-color:#DAE3FE"/>
				<stop  offset="1" style="stop-color:#E9EFFD"/>
			</linearGradient>
			<path class="st94" d="M1470,1177.9l-2.8-0.6c-1.1-0.2-1.7-1.3-1.5-2.4c0.2-1.1,1.3-1.7,2.4-1.5l0,0l2.7,0.6l0,0
				c1.1,0.2,1.7,1.3,1.5,2.4C1472.1,1177.4,1471.1,1178.1,1470,1177.9L1470,1177.9z"/>
			<linearGradient id="SVGID_89_" gradientUnits="userSpaceOnUse" x1="1456.5529" y1="1173.3091" x2="1463.2228" y2="1173.3091">
				<stop  offset="0" style="stop-color:#DAE3FE"/>
				<stop  offset="1" style="stop-color:#E9EFFD"/>
			</linearGradient>
			<path class="st95" d="M1460.7,1175.6l-2.8-0.8c-1-0.3-1.7-1.4-1.4-2.4c0.3-1,1.4-1.7,2.4-1.4l0,0l2.7,0.7l0,0
				c1,0.3,1.7,1.4,1.4,2.4C1462.9,1175.2,1461.8,1175.9,1460.7,1175.6L1460.7,1175.6z"/>
			<linearGradient id="SVGID_90_" gradientUnits="userSpaceOnUse" x1="1447.5289" y1="1170.649" x2="1454.1304" y2="1170.649">
				<stop  offset="0" style="stop-color:#DAE3FE"/>
				<stop  offset="1" style="stop-color:#E9EFFD"/>
			</linearGradient>
			<path class="st96" d="M1451.6,1172.9l-2.7-0.9c-1-0.3-1.6-1.4-1.3-2.4c0.3-1,1.4-1.6,2.4-1.3l0,0l2.7,0.8l0,0
				c1,0.3,1.6,1.4,1.3,2.4C1453.7,1172.7,1452.6,1173.3,1451.6,1172.9L1451.6,1172.9z"/>
			<linearGradient id="SVGID_91_" gradientUnits="userSpaceOnUse" x1="1438.6232" y1="1167.6227" x2="1445.1511" y2="1167.6227">
				<stop  offset="0" style="stop-color:#DAE3FE"/>
				<stop  offset="1" style="stop-color:#E9EFFD"/>
			</linearGradient>
			<path class="st97" d="M1442.6,1169.9l-2.7-1c-1-0.4-1.5-1.5-1.1-2.5c0.4-1,1.5-1.5,2.5-1.1l0,0l2.6,0.9l0,0
				c1,0.4,1.5,1.5,1.2,2.5C1444.7,1169.8,1443.6,1170.3,1442.6,1169.9L1442.6,1169.9z"/>
			<linearGradient id="SVGID_92_" gradientUnits="userSpaceOnUse" x1="1429.8521" y1="1164.2269" x2="1436.3025" y2="1164.2269">
				<stop  offset="0" style="stop-color:#DAE3FE"/>
				<stop  offset="1" style="stop-color:#E9EFFD"/>
			</linearGradient>
			<path class="st98" d="M1433.7,1166.5l-2.6-1.1c-1-0.4-1.4-1.5-1-2.5c0.4-1,1.5-1.4,2.5-1l0,0l2.6,1.1l0,0c1,0.4,1.4,1.5,1,2.5
				C1435.8,1166.5,1434.7,1166.9,1433.7,1166.5L1433.7,1166.5z"/>
			<linearGradient id="SVGID_93_" gradientUnits="userSpaceOnUse" x1="1421.2301" y1="1160.4572" x2="1427.601" y2="1160.4572">
				<stop  offset="0" style="stop-color:#DAE3FE"/>
				<stop  offset="1" style="stop-color:#E9EFFD"/>
			</linearGradient>
			<path class="st99" d="M1424.9,1162.8l-2.6-1.2c-0.9-0.4-1.4-1.6-0.9-2.5c0.4-0.9,1.6-1.4,2.5-0.9l0,0l2.6,1.2l0,0
				c0.9,0.4,1.4,1.6,0.9,2.5C1427,1162.8,1425.9,1163.2,1424.9,1162.8L1424.9,1162.8z"/>
			<linearGradient id="SVGID_94_" gradientUnits="userSpaceOnUse" x1="1412.7958" y1="1156.3024" x2="1419.0688" y2="1156.3024">
				<stop  offset="0" style="stop-color:#DAE3FE"/>
				<stop  offset="1" style="stop-color:#E9EFFD"/>
			</linearGradient>
			<path class="st100" d="M1416.3,1158.6l-2.5-1.3c-0.9-0.5-1.3-1.6-0.8-2.5c0.5-0.9,1.6-1.3,2.5-0.8l0,0l2.5,1.3l0,0
				c0.9,0.5,1.3,1.6,0.8,2.5C1418.4,1158.7,1417.3,1159.1,1416.3,1158.6L1416.3,1158.6z"/>
			<linearGradient id="SVGID_95_" gradientUnits="userSpaceOnUse" x1="1404.561" y1="1151.7681" x2="1410.7351" y2="1151.7681">
				<stop  offset="0" style="stop-color:#DAE3FE"/>
				<stop  offset="1" style="stop-color:#E9EFFD"/>
			</linearGradient>
			<path class="st101" d="M1408,1154.1l-2.5-1.4c-0.9-0.5-1.2-1.6-0.7-2.5c0.5-0.9,1.6-1.2,2.5-0.7l0,0l2.4,1.4l0,0
				c0.9,0.5,1.2,1.6,0.7,2.5C1410,1154.3,1408.8,1154.6,1408,1154.1L1408,1154.1z"/>
			<linearGradient id="SVGID_96_" gradientUnits="userSpaceOnUse" x1="1396.5411" y1="1146.865" x2="1402.6119" y2="1146.865">
				<stop  offset="0" style="stop-color:#DAE3FE"/>
				<stop  offset="1" style="stop-color:#E9EFFD"/>
			</linearGradient>
			<path class="st102" d="M1399.8,1149.2l-2.4-1.5c-0.8-0.5-1.1-1.7-0.6-2.5s1.7-1.1,2.5-0.6l0,0l2.4,1.5l0,0
				c0.9,0.5,1.1,1.7,0.6,2.5C1401.8,1149.5,1400.6,1149.7,1399.8,1149.2L1399.8,1149.2z"/>
			<linearGradient id="SVGID_97_" gradientUnits="userSpaceOnUse" x1="1388.7522" y1="1141.6042" x2="1394.7147" y2="1141.6042">
				<stop  offset="0" style="stop-color:#DAE3FE"/>
				<stop  offset="1" style="stop-color:#E9EFFD"/>
			</linearGradient>
			<path class="st103" d="M1391.9,1143.9l-2.3-1.6c-0.8-0.6-1-1.7-0.4-2.5c0.6-0.8,1.7-1,2.5-0.4l0,0l2.3,1.6l0,0
				c0.8,0.6,1,1.7,0.4,2.5C1393.8,1144.3,1392.7,1144.5,1391.9,1143.9L1391.9,1143.9z"/>
			<linearGradient id="SVGID_98_" gradientUnits="userSpaceOnUse" x1="1381.21" y1="1135.9963" x2="1387.0596" y2="1135.9963">
				<stop  offset="0" style="stop-color:#DAE3FE"/>
				<stop  offset="1" style="stop-color:#E9EFFD"/>
			</linearGradient>
			<path class="st104" d="M1384.2,1138.3l-2.3-1.8c-0.8-0.6-0.9-1.7-0.3-2.5c0.6-0.8,1.7-0.9,2.5-0.3l0,0l2.2,1.7l0,0
				c0.8,0.6,0.9,1.7,0.3,2.5C1386.1,1138.8,1385,1138.9,1384.2,1138.3L1384.2,1138.3z"/>
			<linearGradient id="SVGID_99_" gradientUnits="userSpaceOnUse" x1="1373.9313" y1="1130.0509" x2="1379.663" y2="1130.0509">
				<stop  offset="0" style="stop-color:#DAE3FE"/>
				<stop  offset="1" style="stop-color:#E9EFFD"/>
			</linearGradient>
			<path class="st105" d="M1376.7,1132.3l-2.2-1.9c-0.7-0.6-0.8-1.8-0.2-2.5c0.6-0.7,1.8-0.8,2.5-0.2l0,0l2.1,1.8l0,0
				c0.8,0.6,0.8,1.8,0.2,2.5C1378.6,1132.9,1377.5,1133,1376.7,1132.3L1376.7,1132.3z"/>
			<linearGradient id="SVGID_100_" gradientUnits="userSpaceOnUse" x1="1366.9333" y1="1123.7777" x2="1372.5419" y2="1123.7777">
				<stop  offset="0" style="stop-color:#DAE3FE"/>
				<stop  offset="1" style="stop-color:#E9EFFD"/>
			</linearGradient>
			<path class="st106" d="M1369.6,1126l-2.1-2c-0.7-0.7-0.7-1.8-0.1-2.5c0.7-0.7,1.8-0.7,2.5-0.1l0,0l2.1,1.9l0,0
				c0.7,0.7,0.8,1.8,0.1,2.5C1371.4,1126.7,1370.3,1126.7,1369.6,1126L1369.6,1126z"/>
			<linearGradient id="SVGID_101_" gradientUnits="userSpaceOnUse" x1="1360.2343" y1="1117.1864" x2="1365.7141" y2="1117.1864">
				<stop  offset="0" style="stop-color:#DAE3FE"/>
				<stop  offset="1" style="stop-color:#E9EFFD"/>
			</linearGradient>
			<path class="st107" d="M1362.7,1119.4l-2-2c-0.7-0.7-0.7-1.8,0-2.5c0.7-0.7,1.8-0.7,2.5,0l0,0l2,2l0,0c0.7,0.7,0.7,1.8,0,2.5
				C1364.5,1120.1,1363.4,1120.1,1362.7,1119.4L1362.7,1119.4z"/>
			<linearGradient id="SVGID_102_" gradientUnits="userSpaceOnUse" x1="1353.8531" y1="1110.2866" x2="1359.1985" y2="1110.2866">
				<stop  offset="0" style="stop-color:#DAE3FE"/>
				<stop  offset="1" style="stop-color:#E9EFFD"/>
			</linearGradient>
			<path class="st108" d="M1356.2,1112.5l-1.9-2.1c-0.6-0.7-0.6-1.8,0.1-2.4s1.8-0.6,2.4,0.1l0,0l1.9,2.1l0,0
				c0.6,0.7,0.6,1.8-0.1,2.4S1356.8,1113.2,1356.2,1112.5L1356.2,1112.5z"/>
			<linearGradient id="SVGID_103_" gradientUnits="userSpaceOnUse" x1="1347.8098" y1="1103.0885" x2="1353.0148" y2="1103.0885">
				<stop  offset="0" style="stop-color:#DAE3FE"/>
				<stop  offset="1" style="stop-color:#E9EFFD"/>
			</linearGradient>
			<path class="st109" d="M1350,1105.3l-1.8-2.2c-0.6-0.7-0.5-1.8,0.3-2.4c0.7-0.6,1.8-0.5,2.4,0.3l0,0l1.8,2.2l0,0
				c0.6,0.7,0.5,1.8-0.2,2.4C1351.7,1106.1,1350.6,1106,1350,1105.3L1350,1105.3z"/>
			<linearGradient id="SVGID_104_" gradientUnits="userSpaceOnUse" x1="1342.123" y1="1095.6012" x2="1347.1835" y2="1095.6012">
				<stop  offset="0" style="stop-color:#DAE3FE"/>
				<stop  offset="1" style="stop-color:#E9EFFD"/>
			</linearGradient>
			<path class="st110" d="M1344.1,1097.7l-1.7-2.3c-0.5-0.8-0.4-1.8,0.4-2.4c0.8-0.5,1.8-0.4,2.4,0.4l0,0l1.7,2.3l0,0
				c0.6,0.8,0.4,1.8-0.4,2.4C1345.7,1098.7,1344.7,1098.5,1344.1,1097.7L1344.1,1097.7z"/>
			<linearGradient id="SVGID_105_" gradientUnits="userSpaceOnUse" x1="1336.8191" y1="1087.8381" x2="1341.724" y2="1087.8381">
				<stop  offset="0" style="stop-color:#DAE3FE"/>
				<stop  offset="1" style="stop-color:#E9EFFD"/>
			</linearGradient>
			<path class="st111" d="M1338.7,1089.9l-1.6-2.4c-0.5-0.8-0.3-1.8,0.5-2.3s1.8-0.3,2.3,0.5l0,0l1.5,2.3l0,0
				c0.5,0.8,0.3,1.8-0.5,2.3C1340.2,1090.9,1339.2,1090.7,1338.7,1089.9L1338.7,1089.9z"/>
			<linearGradient id="SVGID_106_" gradientUnits="userSpaceOnUse" x1="1331.921" y1="1079.8173" x2="1336.6641" y2="1079.8173">
				<stop  offset="0" style="stop-color:#DAE3FE"/>
				<stop  offset="1" style="stop-color:#E9EFFD"/>
			</linearGradient>
			<path class="st112" d="M1333.6,1081.9l-1.4-2.5c-0.5-0.8-0.2-1.8,0.6-2.3c0.8-0.5,1.8-0.2,2.3,0.6l0,0l1.4,2.4l0,0
				c0.5,0.8,0.2,1.8-0.6,2.3C1335.1,1082.9,1334.1,1082.7,1333.6,1081.9L1333.6,1081.9z"/>
			<linearGradient id="SVGID_107_" gradientUnits="userSpaceOnUse" x1="1327.4486" y1="1071.5494" x2="1332.0233" y2="1071.5494">
				<stop  offset="0" style="stop-color:#DAE3FE"/>
				<stop  offset="1" style="stop-color:#E9EFFD"/>
			</linearGradient>
			<path class="st113" d="M1328.9,1073.6l-1.3-2.5c-0.4-0.8-0.1-1.8,0.7-2.2c0.8-0.4,1.8-0.1,2.2,0.7l0,0l1.3,2.5l0,0
				c0.4,0.8,0.1,1.8-0.7,2.2C1330.3,1074.7,1329.4,1074.4,1328.9,1073.6L1328.9,1073.6z"/>
			<linearGradient id="SVGID_108_" gradientUnits="userSpaceOnUse" x1="1323.4231" y1="1063.0502" x2="1327.8256" y2="1063.0502">
				<stop  offset="0" style="stop-color:#DAE3FE"/>
				<stop  offset="1" style="stop-color:#E9EFFD"/>
			</linearGradient>
			<path class="st114" d="M1324.7,1065l-1.2-2.6c-0.4-0.8,0-1.8,0.8-2.1c0.8-0.4,1.8,0,2.1,0.8l0,0l1.2,2.6l0,0
				c0.4,0.8,0,1.8-0.8,2.1C1326.1,1066.2,1325.1,1065.8,1324.7,1065L1324.7,1065z"/>
			<linearGradient id="SVGID_109_" gradientUnits="userSpaceOnUse" x1="1319.8784" y1="1054.3424" x2="1324.0879" y2="1054.3424">
				<stop  offset="0" style="stop-color:#DAE3FE"/>
				<stop  offset="1" style="stop-color:#E9EFFD"/>
			</linearGradient>
			<path class="st115" d="M1321,1056.2l-1-2.7c-0.3-0.8,0.1-1.7,0.9-2c0.8-0.3,1.7,0.1,2,0.9l0,0l1,2.6l0,0c0.3,0.8-0.1,1.7-0.9,2.1
				C1322.3,1057.5,1321.3,1057.1,1321,1056.2L1321,1056.2z"/>
			<linearGradient id="SVGID_110_" gradientUnits="userSpaceOnUse" x1="1316.8335" y1="1045.4424" x2="1320.8258" y2="1045.4424">
				<stop  offset="0" style="stop-color:#DAE3FE"/>
				<stop  offset="1" style="stop-color:#E9EFFD"/>
			</linearGradient>
			<path class="st116" d="M1317.8,1047.3l-0.9-2.7c-0.3-0.8,0.2-1.7,1-2c0.8-0.3,1.7,0.2,1.9,1l0,0l0.9,2.7l0,0c0.3,0.8-0.2,1.7-1,2
				C1318.9,1048.5,1318,1048.1,1317.8,1047.3L1317.8,1047.3z"/>
			<linearGradient id="SVGID_111_" gradientUnits="userSpaceOnUse" x1="1314.3025" y1="1036.3777" x2="1318.0725" y2="1036.3777">
				<stop  offset="0" style="stop-color:#DAE3FE"/>
				<stop  offset="1" style="stop-color:#E9EFFD"/>
			</linearGradient>
			<path class="st117" d="M1315.1,1038.1l-0.7-2.8c-0.2-0.8,0.3-1.6,1.1-1.8c0.8-0.2,1.6,0.3,1.8,1.1l0,0l0.7,2.7l0,0
				c0.2,0.8-0.3,1.7-1.1,1.9C1316.1,1039.5,1315.3,1039,1315.1,1038.1L1315.1,1038.1z"/>
			<linearGradient id="SVGID_112_" gradientUnits="userSpaceOnUse" x1="1312.3286" y1="1027.1689" x2="1315.8618" y2="1027.1689">
				<stop  offset="0" style="stop-color:#DAE3FE"/>
				<stop  offset="1" style="stop-color:#E9EFFD"/>
			</linearGradient>
			<path class="st118" d="M1312.9,1028.8l-0.5-2.8c-0.2-0.8,0.4-1.6,1.2-1.7c0.8-0.2,1.6,0.4,1.7,1.2l0,0l0.5,2.8l0,0
				c0.2,0.8-0.4,1.6-1.2,1.8C1313.8,1030.2,1313.1,1029.7,1312.9,1028.8L1312.9,1028.8z"/>
			<linearGradient id="SVGID_113_" gradientUnits="userSpaceOnUse" x1="1310.9188" y1="1017.8495" x2="1314.2168" y2="1017.8495">
				<stop  offset="0" style="stop-color:#DAE3FE"/>
				<stop  offset="1" style="stop-color:#E9EFFD"/>
			</linearGradient>
			<path class="st119" d="M1311.3,1019.5l-0.4-2.8c-0.1-0.8,0.5-1.5,1.3-1.6c0.8-0.1,1.5,0.5,1.6,1.2l0,0l0.4,2.8l0,0
				c0.1,0.8-0.5,1.5-1.3,1.6C1312.1,1020.8,1311.4,1020.3,1311.3,1019.5L1311.3,1019.5z"/>
			<linearGradient id="SVGID_114_" gradientUnits="userSpaceOnUse" x1="1310.0676" y1="1008.4559" x2="1313.1322" y2="1008.4559">
				<stop  offset="0" style="stop-color:#DAE3FE"/>
				<stop  offset="1" style="stop-color:#E9EFFD"/>
			</linearGradient>
			<path class="st120" d="M1310.3,1010l-0.2-2.9c-0.1-0.8,0.5-1.5,1.3-1.5c0.8-0.1,1.5,0.5,1.5,1.3l0,0l0.2,2.8l0,0
				c0.1,0.8-0.5,1.5-1.3,1.5C1311,1011.4,1310.3,1010.8,1310.3,1010L1310.3,1010z"/>
			<linearGradient id="SVGID_115_" gradientUnits="userSpaceOnUse" x1="1309.7695" y1="999.0213" x2="1312.6025" y2="999.0213">
				<stop  offset="0" style="stop-color:#DAE3FE"/>
				<stop  offset="1" style="stop-color:#E9EFFD"/>
			</linearGradient>
			<path class="st121" d="M1309.8,1000.5l0-2.9c0-0.8,0.6-1.4,1.4-1.4c0.8,0,1.4,0.6,1.4,1.4l0,0l0.1,2.8l0,0c0,0.8-0.6,1.4-1.4,1.4
				C1310.5,1001.9,1309.8,1001.2,1309.8,1000.5L1309.8,1000.5z"/>
			<linearGradient id="SVGID_116_" gradientUnits="userSpaceOnUse" x1="1309.8864" y1="989.5786" x2="1312.7365" y2="989.5786">
				<stop  offset="0" style="stop-color:#DAE3FE"/>
				<stop  offset="1" style="stop-color:#E9EFFD"/>
			</linearGradient>
			<path class="st122" d="M1309.9,990.9l0.1-2.9c0-0.7,0.7-1.3,1.4-1.3c0.7,0,1.3,0.7,1.3,1.4l0,0l-0.1,2.8l0,0
				c0,0.8-0.7,1.3-1.4,1.3C1310.4,992.3,1309.9,991.7,1309.9,990.9L1309.9,990.9z"/>
			<linearGradient id="SVGID_117_" gradientUnits="userSpaceOnUse" x1="1310.5165" y1="980.1595" x2="1313.4664" y2="980.1595">
				<stop  offset="0" style="stop-color:#DAE3FE"/>
				<stop  offset="1" style="stop-color:#E9EFFD"/>
			</linearGradient>
			<path class="st123" d="M1310.5,981.4l0.3-2.8c0.1-0.7,0.7-1.3,1.5-1.2c0.7,0.1,1.3,0.7,1.2,1.4l0,0l-0.3,2.8l0,0
				c-0.1,0.7-0.7,1.3-1.5,1.2C1311,982.8,1310.5,982.2,1310.5,981.4L1310.5,981.4z"/>
			<linearGradient id="SVGID_118_" gradientUnits="userSpaceOnUse" x1="1311.6886" y1="970.7953" x2="1314.7373" y2="970.7953">
				<stop  offset="0" style="stop-color:#DAE3FE"/>
				<stop  offset="1" style="stop-color:#E9EFFD"/>
			</linearGradient>
			<path class="st124" d="M1311.7,972l0.5-2.8c0.1-0.7,0.8-1.2,1.5-1.1c0.7,0.1,1.2,0.8,1.1,1.5l0,0l-0.4,2.8l0,0
				c-0.1,0.7-0.8,1.2-1.5,1.1C1312.1,973.4,1311.6,972.7,1311.7,972L1311.7,972z"/>
			<linearGradient id="SVGID_119_" gradientUnits="userSpaceOnUse" x1="1313.4" y1="961.5172" x2="1316.5472" y2="961.5172">
				<stop  offset="0" style="stop-color:#DAE3FE"/>
				<stop  offset="1" style="stop-color:#E9EFFD"/>
			</linearGradient>
			<path class="st125" d="M1313.4,962.6l0.6-2.8c0.2-0.7,0.8-1.1,1.5-1c0.7,0.2,1.1,0.8,1,1.5l0,0l-0.6,2.7l0,0
				c-0.1,0.7-0.8,1.1-1.5,1S1313.3,963.3,1313.4,962.6L1313.4,962.6z"/>
			<linearGradient id="SVGID_120_" gradientUnits="userSpaceOnUse" x1="1315.6495" y1="952.3574" x2="1318.8947" y2="952.3574">
				<stop  offset="0" style="stop-color:#DAE3FE"/>
				<stop  offset="1" style="stop-color:#E9EFFD"/>
			</linearGradient>
			<path class="st126" d="M1315.7,953.4l0.8-2.7c0.2-0.7,0.9-1,1.5-0.8c0.6,0.2,1,0.9,0.8,1.5l0,0l-0.8,2.7l0,0
				c-0.2,0.7-0.9,1-1.5,0.9C1315.9,954.7,1315.5,954.1,1315.7,953.4L1315.7,953.4z"/>
			<linearGradient id="SVGID_121_" gradientUnits="userSpaceOnUse" x1="1318.4359" y1="943.3495" x2="1321.7787" y2="943.3495">
				<stop  offset="0" style="stop-color:#DAE3FE"/>
				<stop  offset="1" style="stop-color:#E9EFFD"/>
			</linearGradient>
			<path class="st127" d="M1318.5,944.3l0.9-2.7c0.2-0.6,0.9-1,1.5-0.7c0.6,0.2,0.9,0.9,0.7,1.5l0,0l-0.9,2.7l0,0
				c-0.2,0.6-0.9,1-1.5,0.7C1318.6,945.6,1318.3,944.9,1318.5,944.3L1318.5,944.3z"/>
			<linearGradient id="SVGID_122_" gradientUnits="userSpaceOnUse" x1="1321.7587" y1="934.5283" x2="1325.1989" y2="934.5283">
				<stop  offset="0" style="stop-color:#DAE3FE"/>
				<stop  offset="1" style="stop-color:#E9EFFD"/>
			</linearGradient>
			<path class="st128" d="M1321.9,935.4l1.1-2.6c0.2-0.6,0.9-0.9,1.5-0.6c0.6,0.2,0.9,0.9,0.6,1.5l0,0l-1.1,2.6l0,0
				c-0.2,0.6-0.9,0.9-1.5,0.6C1321.9,936.7,1321.6,936,1321.9,935.4L1321.9,935.4z"/>
			<linearGradient id="SVGID_123_" gradientUnits="userSpaceOnUse" x1="1325.6171" y1="925.93" x2="1329.1553" y2="925.93">
				<stop  offset="0" style="stop-color:#DAE3FE"/>
				<stop  offset="1" style="stop-color:#E9EFFD"/>
			</linearGradient>
			<path class="st129" d="M1325.7,926.7l1.3-2.6c0.3-0.6,1-0.8,1.5-0.5c0.6,0.3,0.8,1,0.5,1.5l0,0l-1.2,2.5l0,0
				c-0.3,0.6-1,0.8-1.5,0.5C1325.7,928,1325.5,927.3,1325.7,926.7L1325.7,926.7z"/>
			<linearGradient id="SVGID_124_" gradientUnits="userSpaceOnUse" x1="1330.0101" y1="917.5962" x2="1333.6421" y2="917.5962">
				<stop  offset="0" style="stop-color:#DAE3FE"/>
				<stop  offset="1" style="stop-color:#E9EFFD"/>
			</linearGradient>
			<path class="st130" d="M1330.2,918.3l1.4-2.5c0.3-0.5,1-0.7,1.5-0.4c0.5,0.3,0.7,1,0.4,1.5l0,0l-1.4,2.4l0,0
				c-0.3,0.5-1,0.7-1.5,0.4C1330,919.5,1329.9,918.8,1330.2,918.3L1330.2,918.3z"/>
			<linearGradient id="SVGID_125_" gradientUnits="userSpaceOnUse" x1="1334.9315" y1="909.5676" x2="1338.6594" y2="909.5676">
				<stop  offset="0" style="stop-color:#DAE3FE"/>
				<stop  offset="1" style="stop-color:#E9EFFD"/>
			</linearGradient>
			<path class="st131" d="M1335.1,910.2l1.6-2.4c0.3-0.5,1-0.6,1.5-0.3c0.5,0.3,0.6,1,0.3,1.5l0,0l-1.5,2.3l0,0
				c-0.3,0.5-1,0.6-1.5,0.3C1334.9,911.3,1334.8,910.7,1335.1,910.2L1335.1,910.2z"/>
			<linearGradient id="SVGID_126_" gradientUnits="userSpaceOnUse" x1="1340.3785" y1="901.8865" x2="1344.1985" y2="901.8865">
				<stop  offset="0" style="stop-color:#DAE3FE"/>
				<stop  offset="1" style="stop-color:#E9EFFD"/>
			</linearGradient>
			<path class="st132" d="M1340.6,902.4l1.7-2.3c0.3-0.5,1-0.5,1.5-0.2c0.5,0.3,0.5,1,0.2,1.4l0,0l-1.7,2.2l0,0
				c-0.4,0.5-1,0.5-1.5,0.2C1340.3,903.5,1340.2,902.8,1340.6,902.4L1340.6,902.4z"/>
			<linearGradient id="SVGID_127_" gradientUnits="userSpaceOnUse" x1="1346.3402" y1="894.5995" x2="1350.2483" y2="894.5995">
				<stop  offset="0" style="stop-color:#DAE3FE"/>
				<stop  offset="1" style="stop-color:#E9EFFD"/>
			</linearGradient>
			<path class="st133" d="M1346.6,895l1.9-2.1c0.4-0.4,1-0.5,1.4-0.1c0.4,0.4,0.5,1,0.1,1.4l0,0l-1.9,2.1l0,0
				c-0.4,0.4-1,0.5-1.4,0.1C1346.3,896.1,1346.2,895.4,1346.6,895L1346.6,895z"/>
			<linearGradient id="SVGID_128_" gradientUnits="userSpaceOnUse" x1="1352.8018" y1="887.7524" x2="1356.7926" y2="887.7524">
				<stop  offset="0" style="stop-color:#DAE3FE"/>
				<stop  offset="1" style="stop-color:#E9EFFD"/>
			</linearGradient>
			<path class="st134" d="M1353.1,888l2-2c0.4-0.4,1-0.4,1.4,0c0.4,0.4,0.4,1,0,1.4l0,0l-2,2l0,0c-0.4,0.4-1,0.4-1.4,0
				C1352.7,889.1,1352.7,888.4,1353.1,888L1353.1,888z"/>
			<linearGradient id="SVGID_129_" gradientUnits="userSpaceOnUse" x1="1359.7456" y1="881.8748" x2="1362.6506" y2="881.8748">
				<stop  offset="0" style="stop-color:#DAE3FE"/>
				<stop  offset="1" style="stop-color:#E9EFFD"/>
			</linearGradient>
			<path class="st135" d="M1360.1,881.6l1-0.9c0.4-0.3,1-0.3,1.3,0.1c0.3,0.4,0.3,1-0.1,1.3l0,0l-1,0.9l0,0c-0.4,0.3-1,0.3-1.3-0.1
				S1359.7,881.9,1360.1,881.6L1360.1,881.6z"/>
		</g>
		<g id="Layer_2_1_">
			<g id="Layer_1-2">
				<path id="corpo" class="st136" d="M1788.7,726.5c-92.7-150.1-172.1-194.2-197.3-211.4c-6.6-21.6-24.7-55.6-34.9-74.6
					c63.1-90-49-194.2-134.2-124.5c-92.2-45.5-200.4-45.5-292.2,0.4c-31.8-26-68-27.8-96.7-15c-3.5,1.8,3.5,19,0,21.2
					c-2.6,1.8-16.3-12.4-18.5-10.2c-36.2,27.4-52.5,79.9-18.5,128.4c-10.6,18.5-28.2,53-34.9,74.1c-25.6,17.2-105,61.3-197.7,211.4
					c-109.9,177.9-108.1,331-36.6,341.6c26-4.4,38.8-34.4,44.1-44.1c8.4-17.2,23.4-19,30.9,1.3c10.2,77.7,34,152.7,70.2,222.4
					c70.6,132.4,209.2,246.3,262.2,228.6c48.1-17.7,57.4-108.6,141.7-112.1c84.3,3.5,93.6,94.4,141.7,112.1
					c53,17.7,191.5-96.7,262.2-229.1c36.2-69.7,60-144.8,70.2-222.4c7.5-20.3,22.5-18.5,30.9-1.3c5.3,9.7,18.1,39.7,44.1,44.1
					C1896.4,1057.5,1898.6,904.8,1788.7,726.5z"/>
				<path id="barriga" class="st2" d="M1550,553.5c-33.1-150.9-182.3-246.7-333.2-213.6c-107.2,23.4-190.7,106.8-214,213.6
					C817.4,704.4,789.1,977.2,940.5,1163s423.7,213.6,609.5,62.2s213.6-423.7,62.2-609.5C1593.7,593.2,1572.5,572,1550,553.5z"/>
				<g id="gola">
					<path class="st137" d="M1220.3,734.9c-11.5-12.8-25.6-29.6-37.5-34c-11.9-4.4-19.4-6.2-30-11c-63.1-27.8-115.2-75-149.2-135
						c-0.4,2.2-8.4,6.6-8.8,8.8c-7.5,32.7-12.4,65.8-15,99.3c-2.6,38-2.2,75.9,1.3,113.9c26.5-21.6,55.6-39.7,86.9-54.3
						c34.4-15.4,81.2-23.4,103.3-17.2c19.4,5.3,31.8,24.7,42.8,36.2c18.5,19.4,35.3,39.7,51.2,61.3c1.3,2.2,2.6,4.9,3.1,7.5
						c0,0.4,4.4,462.5,4.9,511.9c0,1.3,8.8,1.3,8.8,0c-0.4-49.9-4.4-511.5-4.9-511.9c-0.9-4-2.6-7.9-4.4-11.5
						C1266.6,790,1229.6,745.5,1220.3,734.9z"/>
					<path class="st137" d="M1334.6,734.9c11.5-12.8,25.6-29.6,37.5-34s19.4-6.2,30-11c63.1-27.8,115.2-75,149.2-135
						c0.4,2.2,8.4,6.6,8.8,8.8c7.5,32.7,12.4,65.8,15,99.3c2.6,38,2.2,75.9-1.3,113.9c-26.5-21.6-55.6-39.7-86.9-54.3
						c-34.4-15.4-81.2-23.4-103.3-17.2c-19.4,5.3-31.8,24.7-42.8,36.2c-18.5,19.4-35.3,39.7-51.2,61.3c-1.3,2.2-2.6,4.9-3.1,7.5
						c0,0.4-4,462.5-4.9,511.9c0,1.3-8.8,1.3-8.8,0c0.4-49.9,4.4-511.5,4.9-511.9c0.9-4,2.6-7.9,4.4-11.5
						C1288.3,790,1325.3,745.5,1334.6,734.9z"/>
				</g>
				<path id="nariz" class="st137" d="M1302,513.3c0,9.7-19,23.4-26,23.4s-26-13.7-26-23.4c0-9.7,10.2-11.9,26-11.9
					S1302,503.6,1302,513.3z"/>
				<g>
					<g id="sorriso" class="st138">
						<path class="st139" d="M1271.9,713.3c-137.7,0-162.4-124.5-162.4-124.5h325.3C1434.4,588.8,1409.2,713.3,1271.9,713.3z"/>
						<g class="st140">
							<ellipse class="st141" cx="1271.5" cy="658.1" rx="74.1" ry="33.5"/>
							<g>
								<path class="st142" d="M1271.5,708.4c-76.4,0-126.7-53-131.5-60.9c-3.1-4.9-2.2-8.4-0.9-10.6c4-6.6,15.4-7.1,19-7.1h1.3
									l0.9,0.9c0.4,0.4,49.4,43.3,111.7,43.3c77.2,0,110.8-42.4,110.8-42.8l0.9-1.3h1.8c7.1,0,20.3,0,20.3,13.7v0.9l-0.4,0.9
									C1404.8,645.3,1366.4,708.4,1271.5,708.4L1271.5,708.4z"/>
								<path class="st137" d="M1385.4,632.5c9.3,0,16.8,0.9,16.8,10.6c0,0-36.2,61.8-130.2,61.8l0,0c-71.9,0-122.7-49.4-128.9-59.6
									c-5.7-9.7,5.7-12.8,15-12.8c0,0,49.4,44.1,113.9,44.1C1351.8,676.6,1385.4,632.5,1385.4,632.5 M1385.4,625.9h-3.5l-1.8,2.6
									c-0.4,0.9-33.1,41.5-108.1,41.5c-60.9,0-109-41.9-109.5-42.4l-1.8-1.8h-2.6c-4.9,0-17.2,0.9-22.1,8.8
									c-1.3,2.2-3.1,7.5,0.9,14.1c8.4,13.7,61.3,62.7,134.2,62.7c96.7,0,134.6-62.7,136.4-65.3l0.9-1.8v-1.8
									C1408.8,625.9,1391.5,625.9,1385.4,625.9L1385.4,625.9z"/>
							</g>
							<g>
								<path class="st142" d="M1269.7,640c-2.2,0.4-5.3,0.9-10.2,0.9h-6.2c-6.6-0.4-10.6-1.3-12.4-3.1c-2.2,0.4-5.7,1.3-11.5,1.3
									c-5.3,0-8.8-1.3-10.6-2.6c-4.9,2.6-6.6,2.6-7.5,2.6c-0.4,0-0.9,0-1.8-0.4l0.4,0.9l-6.6-0.9c-19.9-2.2-46.8-7.5-46.8-26
									c0-13.2,4.9-19.4,16.3-19.4h30v1.8c1.8-0.9,4-1.8,6.2-1.8c4.4,0,7.5,2.2,9.7,4.4l0.4-0.4l0.4,0.4c2.6-2.2,6.6-4.4,11.5-4.4
									c5.7,0,9.7,2.6,12.4,4.9c2.6-2.2,7.5-4.9,14.1-4.9s11.5,3.1,14.1,5.3c2.6-2.2,7.5-5.3,14.1-5.3c6.2,0,11,2.6,14.1,4.9
									c2.6-2.2,6.6-4.9,12.4-4.9c5.3,0,9.3,2.6,11.9,4.9c2.2-2.2,5.3-4.9,10.2-4.9c2.6,0,4.4,0.9,6.2,1.8v-1.8h33.5
									c8.4,0,13.2,3.1,13.2,19.4c0,18.5-26.9,23.8-47.2,26l-6.6,0.9l0.4-0.9c-0.9,0.4-1.8,0.4-1.8,0.4c-1.8,0-4.9-1.3-7.5-3.1
									c-1.8,1.3-5.3,3.1-10.6,3.1c-5.7,0-9.3-0.4-11.5-1.3c-1.3,1.3-4,2.6-12.4,3.1h-6.2c-4.9,0-8.4-0.4-10.6-0.9l-1.8,4.9
									L1269.7,640z"/>
								<path class="st137" d="M1373.9,596.7c5.7,0,10.2,0.9,10.2,16.3c0,13.7-17.7,19.9-44.6,22.5l4.4-7.5c0,0-10.2,7.9-11.9,7.9
									s-7.9-3.5-7.9-3.5v1.8v-2.6c0,0-0.4,4.4-10.2,4.4c-13.7,0-13.2-2.6-13.2-2.6l0,0l-0.4,2.6c-0.4,0.4-2.2,1.8-10.2,2.2
									c-1.8,0-4,0-5.7,0c-10.6,0-12.4-1.8-12.4-2.2l0,0l0,0l0,0l0,0c0,0.4-1.8,2.2-11.9,2.2c-2.2,0-4.4,0-6.2,0
									c-9.7-0.4-9.7-2.2-9.7-2.2l0,0l-0.4-2.2l0,0l0,0c0,0,0.4,2.6-13.2,2.6c-9.7,0-10.2-4.4-10.2-4.4v0.9
									c-1.3,0.9-5.7,3.5-7.5,3.5c-1.8,0-11.9-7.9-11.9-7.9l4.4,7.5c-26.5-3.1-43.7-9.3-43.7-22.5c0-14.1,5.7-16.3,12.8-16.3h26.9
									v6.2c0,0,3.5-6.2,9.7-6.2c5.3,0,8.8,5.3,9.7,6.2l0,0l0,0l0,0l0,0c0.4-0.9,5.3-6.2,11.9-6.2c7.5,0,12.4,6.2,12.4,6.2
									s5.3-6.2,14.1-6.2s14.1,6.2,14.1,6.2s5.3-6.2,14.1-6.2s14.1,6.2,14.1,6.2s4.9-6.2,12.4-6.2c7.5,0,12.4,6.2,12.4,6.2
									s3.5-6.2,9.7-6.2s9.7,6.2,9.7,6.2v-6.2h27.4C1372.1,596.7,1373,596.7,1373.9,596.7 M1373.9,590.1h-1.3h-1.3h-27.4h-6.6v0.4
									c-0.9,0-2.2-0.4-3.1-0.4c-4.4,0-7.5,1.8-10.2,3.5c-3.1-1.8-7.1-3.5-11.9-3.5c-5.3,0-9.7,2.2-12.4,4c-3.1-2.2-7.9-4-13.7-4
									c-6.2,0-11,2.2-14.1,4.4c-3.1-2.2-7.9-4.4-14.1-4.4c-5.7,0-10.6,2.2-13.7,4c-3.1-2.2-7.1-4-12.4-4c-4.4,0-7.9,1.3-10.6,3.1
									l-0.9-1.8l-1.3,1.3c-2.2-1.8-5.3-2.6-8.8-2.6c-0.9,0-2.2,0-3.1,0.4v-0.4h-6.6h-26.9c-13.2,0-19.4,7.5-19.4,22.9
									c0,21.2,28.2,26.9,49.9,29.1l12.8,1.3l-0.9-1.8c0.9-0.4,2.2-0.9,3.5-1.8c2.6,1.3,5.7,2.2,10.6,2.2c4.4,0,7.9-0.4,11-0.9
									c3.5,2.2,9.3,2.6,12.8,2.6l0,0l0,0c2.2,0,4,0,6.2,0c3.1,0,5.7-0.4,8.4-0.4l4,11l4-11c2.2,0.4,4.9,0.4,8.4,0.4
									c2.2,0,4,0,5.7,0c6.6-0.4,10.6-1.3,13.2-2.6c2.6,0.4,6.2,0.9,10.6,0.9c4.9,0,8.4-0.9,11-2.2c1.3,0.9,2.6,1.3,4,1.8l-0.9,1.8
									l12.8-1.3c21.6-2.2,50.3-7.9,50.3-29.1C1390.7,596.7,1385.8,590.1,1373.9,590.1L1373.9,590.1z"/>
							</g>
						</g>
						<g class="st140">
							<path class="st137" d="M1447.6,602.9c1.8,0,3.1-0.9,4-2.6c0.9-2.2,0-4.9-2.2-5.7c-3.1-1.3-11-5.3-13.7-7.5
								c-3.1-2.2-9.7-8.4-11.9-10.6c-1.8-1.8-4.4-1.8-6.2,0c-1.8,1.8-1.8,4.4,0,6.2c0.9,0.9,9.3,8.8,13.2,11.5
								c4,2.6,13.7,7.5,15,8.4C1446.3,602.5,1447.2,602.9,1447.6,602.9z"/>
						</g>
						<g class="st140">
							<path class="st137" d="M1098.9,602.9c-1.8,0-3.1-0.9-4-2.6c-0.9-2.2,0-4.9,2.2-5.7c3.1-1.3,11-5.3,13.7-7.5
								c3.1-2.2,9.7-8.4,11.9-10.6c1.8-1.8,4.4-1.8,6.2,0c1.8,1.8,1.8,4.4,0,6.2c-0.9,0.9-9.3,8.8-13.2,11.5c-4,2.6-13.7,7.5-15,8.4
								C1100.3,602.5,1099.4,602.9,1098.9,602.9z"/>
						</g>
					</g>
					<g id="boca" class="st138">
						<path class="st139" d="M1326.7,603.4c-22.5,0-35.7-7.1-41-10.6c-1.8-1.3-4.4-1.8-6.6-0.4c-10.6,4.9-41.5,17.7-67.1,7.1
							c-20.3-8.8-19-24.7-15.9-34.9c0.9-2.2,3.1-3.5,5.3-2.6c0.9,0.4,1.8,0.9,2.2,1.8c4.9,8.4,12.8,15,21.6,18.1
							c16.8,6.6,41,0.9,51.6-2.6c3.5-0.9,7.1-0.4,10.2,1.3c11.9,7.5,25.6,11,39.3,10.2c9.3-0.9,18.5-4,26.5-9.3
							c1.3-0.9,3.5-0.9,4.4,0.9c0.9,0.9,0.9,2.6,0,3.5C1351.8,596.7,1339.9,603.8,1326.7,603.4z"/>
					</g>
					<g id="boca2" class="st138">
						<path class="st139" d="M1148.4,636c-2.2,0-4.4-1.8-4.4-4.4c0-2.6,1.8-4.4,4.4-4.4l256-8.8c2.2,0,4.4,1.8,4.4,4.4
							c0,2.6-1.8,4.4-4.4,4.4L1148.4,636C1148.8,636,1148.8,636,1148.4,636z"/>
					</g>
					<path id="boca3" class="st143" d="M1374.3,616.2c0-0.4,0.4-0.4,0.4-0.9c0-0.4,0-0.4,0-0.9V614c0,0,0,0,0-0.4
						c0-0.4,0-0.4-0.4-0.9c0-0.4,0-0.4-0.4-0.9c0,0,0,0,0-0.4c0,0-9.7-15.9-14.6-34c-4.4-18.1-6.2-34.4-6.2-34.4
						c-0.4-1.8-1.8-4-4-3.5c-1.8,0.4-4,1.8-3.5,4c0,0.9,1.3,16.8,6.2,35.3c3.1,12.4,8.8,23.8,12.4,30.5l-94,4
						c-26.5,1.3-93.1,9.3-95.8,9.7c-1.8,0.4-3.5,2.2-3.5,4c0.4,1.8,1.8,3.5,4,3.5h0.4c0.9,0,69.3-8.4,94.9-9.7l100.6-4l0,0
						c0.4,0,0.9,0,1.3-0.4h0.4c0,0,0,0,0.4,0l0.4-0.4c0.4,0,0.4-0.4,0.9-0.4C1373.9,616.6,1373.9,616.2,1374.3,616.2z"/>
					<path id="boca4" class="st137" d="M1374.3,620.6c0-0.4,0.4-0.4,0.4-0.9c0-0.4,0-0.4,0-0.9v-0.4c0,0,0,0,0-0.4
						c0-0.4,0-0.4-0.4-0.9c0-0.4,0-0.4-0.4-0.9c0,0,0,0,0-0.4c0,0-9.7-15.9-14.6-34c-4.4-18.1-6.2-34.4-6.2-34.4
						c-0.4-1.8-1.8-4-4-3.5c-1.8,0.4-4,1.8-3.5,4c0,0.9,1.3,16.8,6.2,35.3c3.1,12.4,8.8,23.8,12.4,30.5c0,0-38.8,14.1-94,18.1
						c-55.2,4-93.1-9.7-95.8-9.3c-1.8,0.4-3.5,2.2-3.5,4c0.4,1.8,1.8,3.5,4,3.5c0,0,44.6,13.7,96.2,9.7c51.6-4,99.3-18.5,99.3-18.5
						l0,0c0.4,0,0.9,0,1.3-0.4h0.4c0,0,0,0,0.4,0l0.4-0.4c0.4,0,0.4-0.4,0.9-0.4S1373.9,620.6,1374.3,620.6z"/>
				</g>
				<path class="st144" d="M1296.2,462.1c-0.4-7.9-9.3-14.1-19.4-14.6c-11,0-20.3,5.7-20.3,14.6"/>
				<g>
					<g id="olhos">
						<path class="st137" d="M1159.4,545.1c-44.6-1.3-60.9-31.8-61.8-58.3c-0.9-21.6,4-52.5,30-61.8c22.9-7.9,91.4-15.4,113,13.2
							C1257.8,461.7,1207.5,546.4,1159.4,545.1z"/>
						<path class="st137" d="M1393.3,545.1c44.6-1.3,60.9-31.8,61.8-58.3c0.9-21.6-4.4-52.5-30-61.8c-22.9-7.9-91.4-15.4-113,13.2
							C1294.5,461.7,1345.2,546.4,1393.3,545.1z"/>
					</g>
					<g id="olhos_1_">
						<path class="st142" d="M1212.4,483.8c0,0-18.5-10.6-49.9-10.6c-31.3,0-52.5,10.6-52.5,10.6c-3.1,0-5.3-2.6-5.3-5.3l0,0
							c0-3.1,2.6-5.3,5.3-5.3c0,0,20.3-10.6,52.5-10.6s49.9,10.6,49.9,10.6c3.1,0,5.3,2.6,5.3,5.3l0,0
							C1217.7,481.1,1215.5,483.8,1212.4,483.8z"/>
						<path class="st142" d="M1442.7,483.8c0,0-18.5-10.6-49.9-10.6c-31.3,0-52.5,10.6-52.5,10.6c-3.1,0-5.3-2.6-5.3-5.3l0,0
							c0-3.1,2.6-5.3,5.3-5.3c0,0,20.3-10.6,52.5-10.6c32.2,0,49.9,10.6,49.9,10.6c3.1,0,5.3,2.6,5.3,5.3l0,0
							C1448,481.1,1445.4,483.8,1442.7,483.8z"/>
					</g>
					<g id="olhos3" class="st138">
						<path class="st145" d="M1210.6,458.2h-95.3c-2.2,0-4,1.8-4,4c0,2.2,1.8,4,4,4h91.4v18.1c0,2.2,1.8,4,4,4s4-1.8,4-4v-22.1
							C1214.6,459.9,1212.4,458.2,1210.6,458.2z"/>
						<path class="st145" d="M1421.6,458.2h-95.3c-2.2,0-4,1.8-4,4c0,2.2,1.8,4,4,4h91.4v18.1c0,2.2,1.8,4,4,4s4-1.8,4-4v-22.1
							C1425.1,459.9,1423.3,458.2,1421.6,458.2z"/>
					</g>
					<g id="olhos4" class="st138">
						<path class="st139" d="M1122.3,508.5h68.4c20.3-8.8,34-25.6,32.2-42.4c-0.9-7.5-4.4-14.1-10.2-19.4h-97.1
							c-11.5,9.3-17.7,21.2-16.8,33.5C1100.3,492.1,1109.1,502.3,1122.3,508.5z"/>
						<path class="st139" d="M1431.7,508.5h-68.4c-20.3-8.8-34-25.6-32.2-42.4c0.9-7.5,4.4-14.1,10.2-19.4h97.1
							c11.5,9.3,17.7,21.2,16.8,33.5C1453.3,492.1,1444.5,502.3,1431.7,508.5z"/>
					</g>
				</g>
			</g>
		</g>
		<g>
			<g>
				<g>
					<path class="st4" d="M852.4,1445.1l787.5,0v-157.6l-787.5,0C869.3,1287.5,869.3,1445.1,852.4,1445.1z"/>
					<path class="st146" d="M1639.9,1405.7v-72.1c0-25.4-15.6-46-34.8-46H855.8c-15.1,0-27.3-12.2-27.3-27.3v0
						c0-4.6,3.7-8.3,8.3-8.3h819.1c18.8,0,48.6,29.5,48.6,66v100.7c0,34.3-29,62.2-46.7,62.2H841c-7,0-12.6-5.6-12.6-12.6
						c0-12.7,10.3-23,23-23h758.7C1626.6,1445.1,1639.9,1427.4,1639.9,1405.7z"/>
				</g>
				<path class="st146" d="M1618.1,1320.8H879.7c-0.5,0-0.9-0.4-0.9-0.9c0-0.5,0.4-0.9,0.9-0.9h738.4c0.5,0,0.9,0.4,0.9,0.9
					C1619,1320.3,1618.6,1320.8,1618.1,1320.8z"/>
				<path class="st146" d="M1618.1,1344.2H879.7c-0.5,0-0.9-0.4-0.9-0.9s0.4-0.9,0.9-0.9h738.4c0.5,0,0.9,0.4,0.9,0.9
					S1618.6,1344.2,1618.1,1344.2z"/>
				<path class="st146" d="M1618.1,1367.6H879.7c-0.5,0-0.9-0.4-0.9-0.9s0.4-0.9,0.9-0.9h738.4c0.5,0,0.9,0.4,0.9,0.9
					S1618.6,1367.6,1618.1,1367.6z"/>
				<path class="st146" d="M1618.1,1391H879.7c-0.5,0-0.9-0.4-0.9-0.9c0-0.5,0.4-0.9,0.9-0.9h738.4c0.5,0,0.9,0.4,0.9,0.9
					C1619,1390.5,1618.6,1391,1618.1,1391z"/>
				<path class="st146" d="M1618.1,1414.4H879.7c-0.5,0-0.9-0.4-0.9-0.9s0.4-0.9,0.9-0.9h738.4c0.5,0,0.9,0.4,0.9,0.9
					S1618.6,1414.4,1618.1,1414.4z"/>
			</g>
			<g>
				<path class="st147" d="M949.2,1251.1h670.6c10.5,0,19-8.5,19-19v-133.1c0-10.5-8.5-19-19-19H949.2c-10.5,0-19,8.5-19,19v133.1
					C930.2,1242.6,938.7,1251.1,949.2,1251.1z"/>
				<path class="st148" d="M1482.3,1231.5h69.6c3.8,0,6.8-3.1,6.8-6.8v-118c0-3.8-3.1-6.8-6.8-6.8h-69.6c-3.8,0-6.8,3.1-6.8,6.8v118
					C1475.5,1228.4,1478.5,1231.5,1482.3,1231.5z"/>
				<path class="st148" d="M1435.5,1231.5h24.3c1.9,0,3.5-1.6,3.5-3.5v-124.8c0-1.9-1.6-3.5-3.5-3.5h-24.3c-1.9,0-3.5,1.6-3.5,3.5
					V1228C1432,1229.9,1433.6,1231.5,1435.5,1231.5z"/>
			</g>
		</g>
		<g>
			<path class="st136" d="M1475.1,359.9c0,0,5.5,65.8-9.5,64.8c-15-1-44.6-30-104.4-25.3c-59.7,4.7-132.9,17.8-177-60.4
				c-44.2-78.2,56.5-100.7,56.5-100.7L1475.1,359.9L1475.1,359.9z"/>
			<polygon class="st149" points="1348.1,355.1 1649.2,379.9 1655.4,366.5 1366.8,153.4 1075.2,119.4 1069.6,131.3 1348.1,355.1 			
				"/>
			<g>
				<path class="st148" d="M1553,581.9c-1.8-6.2-8.2-9.8-14.4-8c-6.2,1.8-9.8,8.2-8,14.4c1.8,6.2,8.2,9.8,14.4,8
					C1551.2,594.5,1554.7,588.1,1553,581.9L1553,581.9z"/>
				<path class="st148" d="M1542.9,585.1c12.1-0.9,14.9,108.9,14.9,108.9s-7.9,3.7-11.7,2.8c-3.9-0.9-5.8-15.7-5.8-15.7l-0.4,15.6
					c0,0-13.2,0.5-17.8-2.8C1522,694,1523.8,586.6,1542.9,585.1L1542.9,585.1z"/>
			</g>
			<polygon class="st148" points="1546.9,587.6 1544.7,347.5 1543.1,346.4 1385.9,230 1380.2,237.7 1535.9,352.8 1539.4,587.2 			
				"/>
		</g>
	</g>
</g>
</svg>
