<?xml version="1.0" encoding="utf-8"?>
<!-- Generator: Adobe Illustrator 25.3.0, SVG Export Plug-In . SVG Version: 6.00 Build 0)  -->
<svg version="1.1" id="Layer_1" xmlns="http://www.w3.org/2000/svg" xmlns:xlink="http://www.w3.org/1999/xlink" x="0px" y="0px"
	 viewBox="0 0 1611.6 2166.9" style="enable-background:new 0 0 1611.6 2166.9;" xml:space="preserve">
<style type="text/css">
	.st0{fill:#112233;}
	.st1{fill:#FFFFFF;}
	.st2{opacity:0.3;fill:#3E82D7;enable-background:new    ;}
	.st3{fill:#4385D8;}
	.st4{fill:#3E82D7;}
	.st5{fill:#ABB0B7;}
	.st6{fill:#8ABBFA;}
	.st7{fill:#FF912B;}
	.st8{opacity:0.95;}
	.st9{fill:#929497;}
	.st10{fill:#102132;}
	.st11{fill:#59595B;}
	.st12{fill:#E6E7E7;}
	.st13{display:none;}
	.st14{display:inline;fill:#112233;}
	.st15{display:inline;}
	.st16{fill:#58595B;}
	.st17{fill:#EDF3F8;}
	.st18{display:none;fill:#112233;}
	.st19{fill:#EDF3F8;stroke:#333333;stroke-width:0.5;stroke-linecap:round;stroke-miterlimit:10;}
	.st20{display:inline;fill:#EDF3F8;}
</style>
<g>
	<g>
		<g>
			<path class="st0" d="M1273,44.6H374.9c-67,0-121,54.2-121,121v1494.6v341c0,67.3,54.8,121,121,121H1273c66.8,0,121-54.2,121-121
				V506.7V165.8C1394,98.3,1339.1,44.6,1273,44.6z"/>
			<rect x="312.4" y="209.8" class="st1" width="1022.9" height="1747.5"/>
			<path class="st2" d="M1086.7,1228.9H198.3c-30.7,0-55.6,24.8-55.6,55.6v366.6c0,30.7,24.8,55.6,55.6,55.6h699.3
				c28.3,39.5,79.7,110.2,84.2,110.2c4.2,0-4-66.8-9.7-110.2h114.6c30.7,0,55.6-24.8,55.6-55.6v-366.6
				C1142.3,1253.8,1117.4,1228.9,1086.7,1228.9z"/>
			<path class="st2" d="M1404.6,398.4H458.9c-30.7,0-55.6,24.8-55.6,55.6v393.9c0,30.7,24.8,55.6,55.6,55.6h98.3
				c-5.7,43.4-13.1,105.6-9.1,105.6c4.4,0,52-65.4,80.8-105.6h775.8c30.7,0,55.6-24.8,55.6-55.6V453.9
				C1460.2,423.4,1435.3,398.4,1404.6,398.4z"/>
			<path class="st1" d="M1034.7,154.8H614.6c-4.9,0-8.7-4-8.7-8.7v-4.4c0-4.9,4-8.7,8.7-8.7h420.1c4.9,0,8.7,4,8.7,8.7v4.4
				C1043.4,150.8,1039.7,154.8,1034.7,154.8z"/>
			<path class="st3" d="M1049.9,1133.9H161.7c-30.7,0-55.6,24.8-55.6,55.6v366.6c0,30.7,24.8,55.6,55.6,55.6H861
				c28.3,39.5,79.7,110.2,84.2,110.2c4.2,0-4-66.8-9.7-110.2h114.6c30.7,0,55.6-24.8,55.6-55.6v-366.6
				C1105.5,1158.8,1080.6,1133.9,1049.9,1133.9z"/>
			<g>
				<path class="st2" d="M873.5,2041.5c0,27.7-22.6,50.3-50.3,50.3c-27.7,0-50.3-22.6-50.3-50.3c0-27.7,22.6-50.3,50.3-50.3
					C850.9,1991.2,873.5,2013.6,873.5,2041.5z"/>
				<g>
					<path class="st4" d="M838.2,2062.4h-30c-3.2,0-5.9-2.7-5.9-5.9v-30c0-3.2,2.7-5.9,5.9-5.9h30c3.2,0,5.9,2.7,5.9,5.9v30
						C844.1,2059.7,841.4,2062.4,838.2,2062.4z M808.3,2022.1c-2.5,0-4.4,1.9-4.4,4.4v30c0,2.5,1.9,4.4,4.4,4.4h30
						c2.5,0,4.4-1.9,4.4-4.4v-30c0-2.5-1.9-4.4-4.4-4.4H808.3z"/>
				</g>
			</g>
			<rect x="312.4" y="1853.9" class="st5" width="1022.9" height="103.4"/>
			<rect x="312.4" y="209.8" class="st6" width="1022.9" height="92.7"/>
			<path class="st1" d="M436.1,1372.7c0,77-62.4,139.2-139.2,139.2c-77,0-139.2-62.4-139.2-139.2c0-77,62.4-139.2,139.2-139.2
				C373.7,1233.5,436.1,1295.9,436.1,1372.7z"/>
			<g>
				<path class="st7" d="M1449.9,293.7H504.2c-30.7,0-55.6,24.8-55.6,55.6v393.9c0,30.7,24.8,55.6,55.6,55.6h98.3
					c-5.7,43.4-13.1,105.6-9.1,105.6c4.4,0,52-65.4,80.8-105.6h775.8c30.7,0,55.6-24.8,55.6-55.6V349.2
					C1505.5,318.5,1480.5,293.7,1449.9,293.7z"/>
				
					<ellipse transform="matrix(0.7071 -0.7071 0.7071 0.7071 -202.1749 607.1075)" class="st1" cx="631.8" cy="547.6" rx="139.2" ry="139.2"/>
				<path class="st1" d="M1361.7,431.4H830.4c-6.3,0-11.6-5.1-11.6-11.6v-1.1c0-6.3,5.1-11.6,11.6-11.6h531.3
					c6.3,0,11.6,5.1,11.6,11.6v1.1C1373.3,426.2,1368.2,431.4,1361.7,431.4z"/>
				<path class="st1" d="M938.4,495.3H830.4c-6.3,0-11.6-5.1-11.6-11.6v-1.1c0-6.3,5.1-11.6,11.6-11.6h107.9
					c6.3,0,11.6,5.1,11.6,11.6v1.1C949.7,490.2,944.6,495.3,938.4,495.3z"/>
				<path class="st1" d="M1361.7,495.3h-351.1c-6.3,0-11.6-5.1-11.6-11.6v-1.1c0-6.3,5.1-11.6,11.6-11.6h351.1
					c6.3,0,11.6,5.1,11.6,11.6v1.1C1373.3,490.2,1368.2,495.3,1361.7,495.3z"/>
				<path class="st1" d="M1093.7,559.2H830.4c-6.3,0-11.6-5.1-11.6-11.6v-1.1c0-6.3,5.1-11.6,11.6-11.6h263.5
					c6.3,0,11.6,5.1,11.6,11.6v1.1C1105.3,554.1,1100.2,559.2,1093.7,559.2z"/>
				<path class="st1" d="M1361.7,559.2h-203.1c-6.3,0-11.6-5.1-11.6-11.6v-1.1c0-6.3,5.1-11.6,11.6-11.6h203.1
					c6.3,0,11.6,5.1,11.6,11.6v1.1C1373.3,554.1,1368.2,559.2,1361.7,559.2z"/>
				<path class="st1" d="M1361.7,623.1H830.4c-6.3,0-11.6-5.1-11.6-11.6v-1.1c0-6.3,5.1-11.6,11.6-11.6h531.3
					c6.3,0,11.6,5.1,11.6,11.6v1.1C1373.3,617.8,1368.2,623.1,1361.7,623.1z"/>
			</g>
			<path class="st1" d="M638.3,1276.9H474.8c-6.3,0-11.6-5.1-11.6-11.6v-1.1c0-6.3,5.1-11.6,11.6-11.6h163.5
				c6.3,0,11.6,5.1,11.6,11.6v1.1C649.9,1271.8,644.6,1276.9,638.3,1276.9z"/>
			<path class="st1" d="M577.8,1340.8h-103c-6.3,0-11.6-5.1-11.6-11.6v-1.1c0-6.3,5.1-11.6,11.6-11.6h103c6.3,0,11.6,5.1,11.6,11.6
				v1.1C589.2,1335.7,584.1,1340.8,577.8,1340.8z"/>
			<path class="st1" d="M754.6,1340.8h-132c-6.3,0-11.6-5.1-11.6-11.6v-1.1c0-6.3,5.1-11.6,11.6-11.6h132c6.3,0,11.6,5.1,11.6,11.6
				v1.1C766.1,1335.7,760.8,1340.8,754.6,1340.8z"/>
			<path class="st1" d="M985.4,1340.8H799.3c-6.3,0-11.6-5.1-11.6-11.6v-1.1c0-6.3,5.1-11.6,11.6-11.6h186.1
				c6.3,0,11.6,5.1,11.6,11.6v1.1C997,1335.7,991.7,1340.8,985.4,1340.8z"/>
			<path class="st1" d="M985.4,1276.9H692.2c-6.3,0-11.6-5.1-11.6-11.6v-1.1c0-6.3,5.1-11.6,11.6-11.6h293.2
				c6.3,0,11.6,5.1,11.6,11.6v1.1C997,1271.8,991.7,1276.9,985.4,1276.9z"/>
			<path class="st1" d="M985.4,1466H474.6c-6.3,0-11.6-5.1-11.6-11.6v-1.1c0-6.4,5.1-11.6,11.6-11.6h510.6c6.3,0,11.6,5.1,11.6,11.6
				v1.1C997,1460.9,991.7,1466,985.4,1466z"/>
			<path class="st1" d="M727.5,1404.8H474.6c-6.3,0-11.6-5.1-11.6-11.6v-1.1c0-6.3,5.1-11.6,11.6-11.6h252.6
				c6.3,0,11.6,5.1,11.6,11.6v1.1C738.8,1399.4,733.7,1404.8,727.5,1404.8z"/>
			<path class="st1" d="M985.4,1404.8H790.8c-6.3,0-11.6-5.1-11.6-11.6v-1.1c0-6.3,5.1-11.6,11.6-11.6h194.6
				c6.3,0,11.6,5.1,11.6,11.6v1.1C997,1399.4,991.7,1404.8,985.4,1404.8z"/>
		</g>
	</g>
	<g class="st8">
		<path class="st9" d="M233,1391.7c0,8.2-4,15.2-8.2,19.2c-1.9,1.9-3.4,5.1-5.9,5.1c-5.1,0-16.9-18.8-16.1-25.8
			c1.5-11.9,4.7-21.8,9.9-21.8C220.1,1368.3,233,1379.7,233,1391.7z"/>
		<path class="st10" d="M218.9,1416.9c-1.7,0-4-1.5-6.6-4.6c-4.9-5.7-11.2-16.9-10.4-22.6c1.3-10.2,4.4-22.8,10.8-22.8
			c8,0,21.4,11.9,21.4,24.5c0,8.7-4.4,16.1-8.5,19.9c-0.6,0.6-0.9,1.1-1.5,1.9C222.5,1415.2,221,1416.9,218.9,1416.9z M212.9,1369.5
			c-3.8,0-7.2,7.8-8.7,20.7c-0.6,4.6,5.1,15.2,10.1,20.9c3,3.6,4.6,3.8,4.9,3.8c1.1,0,2.3-1.3,3.4-2.7c0.6-0.6,1.1-1.5,1.9-2.1
			c3.6-3.6,8-10.2,8-18.4C232,1380.3,219.7,1369.5,212.9,1369.5z"/>
		<path class="st9" d="M360.2,1391.7c0,8.2,4,15.2,8.2,19.2c1.9,1.9,3.4,5.1,5.9,5.1c5.1,0,16.9-18.8,16.1-25.8
			c-1.5-11.9-4.7-21.8-9.9-21.8C373.1,1368.3,360.2,1379.7,360.2,1391.7z"/>
		<path class="st10" d="M374.5,1416.9c-2.3,0-3.6-1.9-5.1-3.6c-0.6-0.6-0.9-1.3-1.5-1.9c-4.2-4-8.5-11.2-8.5-19.9
			c0-12.7,13.3-24.5,21.4-24.5c6.6,0,9.7,12.3,11,22.8c0.8,5.7-5.5,16.9-10.4,22.6C378.5,1415.4,376.2,1416.9,374.5,1416.9z
			 M380.5,1369.5c-7,0-19.2,11-19.2,22.2c0,8.2,4.4,14.8,8,18.4c0.6,0.6,1.3,1.3,1.9,2.1c1.1,1.5,2.3,2.7,3.4,2.7
			c0.4,0,1.9-0.2,4.9-3.8c5.1-5.7,10.6-16.3,10.1-20.9C387.7,1377.3,384.3,1369.5,380.5,1369.5z"/>
		<path class="st9" d="M361.8,1303.9c-14-22.2-41-36.4-65.1-36.4c-24.3,0-50.8,14-65.1,36.4c-10.6,16.9-11.8,38.3-11.8,61.6
			c0,23,2.7,57.3,15.6,73.4c16.5,20.9,41,39.8,61.5,39.8c20.5,0,44.8-19,61.5-39.8c12.9-16.1,15.6-50.5,15.6-73.4
			C373.5,1342.2,372.4,1320.7,361.8,1303.9z"/>
		<path class="st10" d="M296.5,1480.1c-22.4,0-47.6-21.8-62.4-40.2c-13.7-17.3-15.7-53.9-15.7-74.4c0-21.8,0.9-44.8,11.9-62.4
			c14-22.2,40.6-37,66.2-37c25.4,0,52.2,14.8,66.2,37c11.2,17.4,11.9,40.4,11.9,62.4c0,20.3-2.1,56.9-15.7,74.4
			C344.3,1458.4,318.9,1480.1,296.5,1480.1z M296.5,1268.8c-24.3,0-50.6,14.8-63.9,35.8c-10.8,16.9-11.6,39.5-11.6,61.1
			c0,19.9,1.9,56,15.4,72.6c14.4,18.2,38.9,39.5,60.3,39.5c21.4,0,45.9-21.2,60.3-39.5c13.3-16.7,15.4-52.7,15.4-72.6
			c0-21.4-0.9-44-11.6-61.1C347.2,1283.6,321,1268.8,296.5,1268.8z"/>
		<path class="st10" d="M241.9,1335.5l30.5-1.5c0.6,0,1.1-0.6,1.1-1.1v-11.6c0-0.8-0.6-1.3-1.5-1.1l-30.2,6.1
			c-0.6,0.2-0.9,0.6-0.9,0.9l-0.4,6.8C240.6,1335,241.3,1335.5,241.9,1335.5z"/>
		<path class="st10" d="M276.2,1334c-0.6,0-1.1-0.6-1.1-1.1v-11.8c0-0.6,0.6-1.1,1.1-1.1s1.1,0.6,1.1,1.1v11.8
			C277.4,1333.4,276.8,1334,276.2,1334z"/>
		<path class="st10" d="M279.8,1334c-0.6,0-1.1-0.6-1.1-1.1v-11.8c0-0.6,0.6-1.1,1.1-1.1s1.1,0.6,1.1,1.1v11.8
			C281,1333.4,280.4,1334,279.8,1334z"/>
		<path class="st10" d="M351.3,1334l-30.5-1.5c-0.6,0-1.1-0.6-1.1-1.1v-11.6c0-0.8,0.6-1.3,1.5-1.1l30.2,6.1
			c0.6,0.2,0.9,0.6,0.9,0.9l0.4,6.8C352.7,1333.3,351.9,1334,351.3,1334z"/>
		<path class="st10" d="M317.2,1332.3c0.6,0,1.1-0.6,1.1-1.1v-11.8c0-0.6-0.6-1.1-1.1-1.1s-1.1,0.6-1.1,1.1v11.8
			C315.9,1331.9,316.4,1332.3,317.2,1332.3z"/>
		<path class="st10" d="M313.6,1332.3c0.6,0,1.1-0.6,1.1-1.1v-11.8c0-0.6-0.6-1.1-1.1-1.1s-1.1,0.6-1.1,1.1v11.8
			C312.4,1331.9,312.8,1332.3,313.6,1332.3z"/>
		<path class="st10" d="M309.2,1371.9c-0.2,0-0.6-0.2-0.6-0.6c-0.2-0.4-2.8-9.3-11.9-9.3c-9.1,0-11.9,8.9-11.9,9.3
			c-0.2,0.4-0.6,0.6-0.8,0.4c-0.4-0.2-0.6-0.6-0.4-0.8c0-0.2,3-10.2,13.3-10.2c10.1,0,13.3,10.2,13.3,10.2
			C310,1371.4,309.6,1371.6,309.2,1371.9C309.4,1371.8,309.4,1371.9,309.2,1371.9z"/>
		<path class="st10" d="M280.4,1386.6c-0.9,0-3.4-0.4-4.7-4c-1.9-4.4,0.6-6.4,0.8-6.6c0.2-0.2,0.6-0.2,0.9,0.2
			c0.2,0.2,0.2,0.6,0,0.9c-0.2,0.2-1.9,1.7-0.6,5.1c1.5,3.4,3.8,3,3.8,3c0.4,0,0.6,0.2,0.8,0.6c0,0.4-0.2,0.6-0.6,0.8
			C280.8,1386.6,280.6,1386.6,280.4,1386.6z"/>
		<path class="st10" d="M289.9,1381.1l-0.8,0.4c-0.4-1.5-1.9-2.7-3.8-2.8c-2.3-0.2-4.4,0.9-4.7,2.7c-0.2,1.9,1.5,3.6,3.8,4
			c1.9,0.2,3.4-0.6,4.4-1.7C289.9,1382.4,289.9,1381.1,289.9,1381.1z"/>
		<path class="st10" d="M312.8,1386.6c-0.2,0-0.4,0-0.4,0c-0.4,0-0.6-0.4-0.6-0.8c0-0.4,0.4-0.6,0.8-0.6c0.2,0,2.5,0.2,3.8-3
			c1.5-3.6-0.4-5.1-0.6-5.1c-0.2-0.2-0.2-0.6-0.2-0.9c0.2-0.2,0.6-0.2,0.9-0.2c0.2,0.2,2.7,2.3,0.8,6.6
			C316.1,1386.2,313.6,1386.6,312.8,1386.6z"/>
		<path class="st10" d="M303.3,1381.1l0.8,0.4c0.4-1.5,1.9-2.7,3.8-2.8c2.3-0.2,4.4,0.9,4.7,2.7c0.2,1.9-1.5,3.6-3.8,4
			c-1.9,0.2-3.4-0.6-4.4-1.7C303.2,1382.4,303.3,1381.1,303.3,1381.1z"/>
		<path class="st10" d="M296.7,1445.7c-40.4,0-47.6-36.8-47.6-36.8h95.4C344.3,1409.1,336.9,1445.7,296.7,1445.7z"/>
		<path class="st11" d="M296.5,1439.5c11.9,0,21.8-4.4,21.8-9.9c0-5.5-9.7-9.9-21.8-9.9c-11.9,0-21.8,4.4-21.8,9.9
			C274.9,1434.9,284.6,1439.5,296.5,1439.5z"/>
		<path class="st12" d="M296.5,1444.4c-22.4,0-37.2-15.6-38.5-18c-0.9-1.5-0.6-2.5-0.2-3c1.1-1.9,4.6-2.1,5.5-2.1h0.4l0.2,0.2
			c0.2,0.2,14.4,12.7,32.8,12.7c22.6,0,32.4-12.5,32.4-12.7l0.2-0.4h0.6c2.1,0,5.9,0,5.9,4v0.2l-0.2,0.2
			C335.6,1425.6,324.4,1444.4,296.5,1444.4z"/>
		<path class="st10" d="M329.9,1422c2.7,0,4.9,0.2,4.9,3c0,0-10.6,18.2-38.1,18.2c-21.1,0-36-14.6-37.7-17.6
			c-1.7-2.8,1.7-3.8,4.4-3.8c0,0,14.4,13.1,33.4,13.1C320.2,1434.9,329.9,1422,329.9,1422z M329.9,1419.9H329l-0.6,0.8
			c-0.2,0.2-9.7,12.3-31.7,12.3c-17.8,0-32.1-12.3-32.1-12.5l-0.6-0.6h-0.8c-1.5,0-5.1,0.2-6.4,2.7c-0.4,0.6-0.9,2.3,0.2,4.2
			c2.5,4,18,18.6,39.5,18.6c28.5,0,39.5-18.6,40-19.3l0.2-0.6v-0.6C336.9,1419.9,331.8,1419.9,329.9,1419.9z"/>
		<path class="st12" d="M296.1,1424.1c-0.6,0.2-1.5,0.2-3,0.2h-1.9c-1.9-0.2-3-0.4-3.6-0.9c-0.6,0.2-1.7,0.4-3.4,0.4
			c-1.5,0-2.7-0.4-3-0.8c-1.5,0.8-1.9,0.8-2.3,0.8c-0.2,0-0.2,0-0.6-0.2l0.2,0.2l-1.9-0.2c-5.9-0.6-13.7-2.3-13.7-7.8
			c0-4,1.5-5.7,4.7-5.7h8.7v0.6c0.6-0.2,1.1-0.6,1.9-0.6c1.3,0,2.3,0.6,2.8,1.3l0.2-0.2l0.2,0.2c0.8-0.6,1.9-1.3,3.4-1.3
			c1.7,0,2.8,0.8,3.6,1.5c0.8-0.6,2.3-1.5,4.2-1.5s3.4,0.9,4.2,1.5c0.8-0.6,2.3-1.5,4.2-1.5s3.2,0.8,4.2,1.5
			c0.8-0.6,1.9-1.5,3.6-1.5c1.5,0,2.7,0.8,3.4,1.5c0.6-0.6,1.5-1.5,3-1.5c0.8,0,1.3,0.2,1.9,0.6v-0.6h9.9c2.5,0,3.8,0.9,3.8,5.7
			c0,5.5-8,7-13.8,7.8l-1.9,0.2l0.2-0.2c-0.2,0.2-0.6,0.2-0.6,0.2c-0.6,0-1.5-0.4-2.3-0.9c-0.6,0.4-1.5,0.9-3,0.9
			c-1.7,0-2.7-0.2-3.4-0.4c-0.4,0.4-1.1,0.8-3.6,0.9h-1.9c-1.5,0-2.5-0.2-3-0.2l-0.6,1.5L296.1,1424.1z"/>
		<path class="st10" d="M326.7,1411.4c1.7,0,3,0.2,3,4.7c0,4-5.1,5.9-13.1,6.6l1.3-2.3c0,0-3,2.3-3.4,2.3c-0.6,0-2.3-0.9-2.3-0.9
			v0.6v-0.8c0,0-0.2,1.3-3,1.3c-4,0-3.8-0.8-3.8-0.8l-0.2,0.8c-0.2,0.2-0.6,0.6-3,0.6c-0.6,0-1.1,0-1.7,0c-3,0-3.6-0.6-3.6-0.6
			c0,0.2-0.6,0.6-3.4,0.6c-0.6,0-1.3,0-1.9,0c-2.8-0.2-2.8-0.6-2.8-0.6l-0.2-0.6c0,0,0.2,0.8-3.8,0.8c-2.8,0-3-1.3-3-1.3v0.2
			c-0.4,0.2-1.7,0.9-2.3,0.9c-0.6,0-3.4-2.3-3.4-2.3l1.3,2.3c-7.8-0.9-12.9-2.7-12.9-6.6c0-4.2,1.7-4.7,3.8-4.7h8v1.9
			c0,0,0.9-1.9,2.8-1.9c1.5,0,2.7,1.5,2.8,1.9c0.2-0.2,1.5-1.9,3.4-1.9c2.3,0,3.6,1.9,3.6,1.9s1.5-1.9,4.2-1.9s4.2,1.9,4.2,1.9
			s1.5-1.9,4.2-1.9s4.2,1.9,4.2,1.9s1.5-1.9,3.6-1.9c2.1,0,3.6,1.9,3.6,1.9s0.9-1.9,2.8-1.9s2.8,1.9,2.8,1.9v-1.9h8
			C326.1,1411.4,326.3,1411.4,326.7,1411.4z M326.7,1409.5h-0.4h-0.4h-8h-1.9v0.2c-0.2,0-0.6-0.2-0.9-0.2c-1.3,0-2.3,0.6-3,0.9
			c-0.9-0.6-2.1-0.9-3.4-0.9c-1.5,0-2.8,0.6-3.6,1.1c-0.9-0.6-2.3-1.1-4-1.1c-1.9,0-3.2,0.6-4.2,1.3c-0.9-0.6-2.3-1.3-4.2-1.3
			c-1.7,0-3,0.6-4,1.1c-0.9-0.6-2.1-1.1-3.6-1.1c-1.3,0-2.3,0.4-3,0.9l-0.2-0.6l-0.4,0.4c-0.6-0.6-1.5-0.8-2.7-0.8
			c-0.2,0-0.6,0-0.9,0.2v-0.2H276h-8c-3.8,0-5.7,2.3-5.7,6.8c0,6.3,8.3,8,14.6,8.5l3.8,0.4l-0.2-0.6c0.2-0.2,0.6-0.2,0.9-0.6
			c0.8,0.4,1.7,0.6,3,0.6c1.3,0,2.3-0.2,3.2-0.2c0.9,0.6,2.7,0.8,3.8,0.8c0.6,0,1.1,0,1.9,0c0.9,0,1.7-0.2,2.5-0.2l1.1,3.2l1.1-3.2
			c0.6,0.2,1.5,0.2,2.5,0.2c0.6,0,1.1,0,1.7,0c1.9-0.2,3-0.4,3.8-0.8c0.8,0.2,1.9,0.2,3,0.2c1.5,0,2.5-0.2,3.2-0.6
			c0.4,0.2,0.8,0.4,1.1,0.6l-0.2,0.6l3.8-0.4c6.3-0.6,14.8-2.3,14.8-8.5C331.6,1411.4,330.1,1409.5,326.7,1409.5z"/>
		<path class="st10" d="M348.3,1413.3c0.6,0,0.9-0.2,1.1-0.8c0.2-0.6,0-1.5-0.6-1.7c-0.9-0.4-3.2-1.5-4-2.3c-0.9-0.6-2.8-2.5-3.4-3
			c-0.6-0.6-1.3-0.6-1.9,0c-0.6,0.6-0.6,1.3,0,1.9c0.2,0.2,2.7,2.7,3.8,3.4c1.1,0.8,4,2.3,4.4,2.5
			C347.9,1413.1,348.1,1413.3,348.3,1413.3z"/>
		<path class="st10" d="M245.9,1413.3c-0.6,0-0.9-0.2-1.1-0.8c-0.2-0.6,0-1.5,0.6-1.7c0.9-0.4,3.2-1.5,4-2.3c0.9-0.6,2.8-2.5,3.4-3
			c0.6-0.6,1.3-0.6,1.9,0c0.6,0.6,0.6,1.3,0,1.9c-0.2,0.2-2.7,2.7-3.8,3.4c-1.1,0.8-4,2.3-4.4,2.5
			C246.3,1413.1,246.1,1413.3,245.9,1413.3z"/>
		<path class="st10" d="M276.8,1351.3c0,0-5.7-3.2-15.4-3.2c-9.7,0-16.1,3.2-16.1,3.2c-0.9,0-1.7-0.8-1.7-1.7s0.8-1.7,1.7-1.7
			c0,0,6.3-3.2,16.1-3.2c9.9,0,15.4,3.2,15.4,3.2c0.9,0,1.7,0.8,1.7,1.7S277.7,1351.3,276.8,1351.3z"/>
		<path class="st10" d="M347.9,1351.3c0,0-5.7-3.2-15.4-3.2s-16.1,3.2-16.1,3.2c-0.9,0-1.7-0.8-1.7-1.7s0.8-1.7,1.7-1.7
			c0,0,6.3-3.2,16.1-3.2c10.1,0,15.4,3.2,15.4,3.2c0.9,0,1.7,0.8,1.7,1.7S348.9,1351.3,347.9,1351.3z"/>
	</g>
	<path id="nariz" class="st0" d="M647.6,549.9c0,5.5-10.8,13.5-15,13.5c-4.2,0-15-7.8-15-13.5c0-5.5,5.9-6.8,15-6.8
		S647.6,544.2,647.6,549.9z"/>
	<g>
		<g id="sorriso" class="st13">
			<path class="st14" d="M630.3,664.5c-78.9,0-93.1-71.3-93.1-71.3h186.4C723.5,593.2,709.1,664.5,630.3,664.5z"/>
			<g class="st15">
				<ellipse class="st16" cx="630.2" cy="632.8" rx="42.5" ry="19.2"/>
				<g>
					<path class="st17" d="M630.2,661.6c-43.8,0-72.6-30.3-75.5-34.9c-1.7-2.8-1.3-4.7-0.6-6.1c2.3-3.8,8.9-4,10.8-4h0.8l0.6,0.6
						c0.2,0.2,28.3,24.8,64.1,24.8c44.2,0,63.5-24.3,63.5-24.5l0.6-0.8h0.9c4,0,11.6,0,11.6,7.8v0.6l-0.2,0.6
						C706.4,625.6,684.4,661.6,630.2,661.6L630.2,661.6z"/>
					<path class="st0" d="M695.4,618.2c5.3,0,9.7,0.6,9.7,6.1c0,0-20.7,35.5-74.7,35.5l0,0c-41.2,0-70.4-28.3-74-34.1
						c-3.2-5.5,3.2-7.4,8.5-7.4c0,0,28.3,25.2,65.2,25.2C676.1,643.4,695.4,618.2,695.4,618.2 M695.4,614.4h-2.1l-0.9,1.5
						c-0.2,0.6-19,23.7-62,23.7c-34.9,0-62.6-24.1-62.8-24.3l-0.9-0.9h-1.5c-2.8,0-9.9,0.6-12.7,5.1c-0.8,1.3-1.7,4.4,0.6,8.2
						c4.7,7.8,35.1,35.8,77,35.8c55.4,0,77.2-35.8,78.1-37.4l0.6-0.9v-0.9C708.9,614.4,698.8,614.4,695.4,614.4L695.4,614.4z"/>
				</g>
				<g>
					<path class="st17" d="M629,622.5c-1.3,0.2-3,0.6-5.9,0.6h-3.6c-3.8-0.2-6.1-0.8-7-1.7c-1.3,0.2-3.2,0.8-6.6,0.8
						c-3,0-5.1-0.8-6.1-1.5c-2.8,1.5-3.8,1.5-4.4,1.5c-0.2,0-0.6,0-0.9-0.2l0.2,0.6l-3.8-0.6c-11.4-1.3-26.7-4.4-26.7-15
						c0-7.6,2.8-11.2,9.3-11.2h17.3v0.9c0.9-0.6,2.3-0.9,3.6-0.9c2.5,0,4.4,1.3,5.5,2.5l0.2-0.2l0.2,0.2c1.5-1.3,3.8-2.5,6.6-2.5
						c3.2,0,5.5,1.5,7,2.8c1.5-1.3,4.4-2.8,8.2-2.8s6.6,1.7,8.2,3c1.5-1.3,4.4-3,8.2-3c3.6,0,6.3,1.5,8.2,2.8c1.5-1.3,3.8-2.8,7-2.8
						c3,0,5.3,1.5,6.8,2.8c1.3-1.3,3-2.8,5.9-2.8c1.5,0,2.5,0.6,3.6,0.9v-0.9h19.2c4.7,0,7.6,1.7,7.6,11.2c0,10.6-15.4,13.7-27.1,15
						l-3.8,0.6l0.2-0.6c-0.6,0.2-0.9,0.2-0.9,0.2c-0.9,0-2.8-0.8-4.4-1.7c-0.9,0.8-3,1.7-6.1,1.7c-3.2,0-5.3-0.2-6.6-0.8
						c-0.8,0.8-2.3,1.5-7,1.7h-3.6c-2.8,0-4.7-0.2-6.1-0.6l-0.9,2.8L629,622.5z"/>
					<path class="st0" d="M688.8,597.7c3.2,0,5.9,0.6,5.9,9.3c0,7.8-10.1,11.4-25.6,12.9l2.5-4.4c0,0-5.9,4.6-6.8,4.6
						s-4.6-2.1-4.6-2.1v0.9v-1.5c0,0-0.2,2.5-5.9,2.5c-7.8,0-7.6-1.5-7.6-1.5l0,0l-0.2,1.5c-0.2,0.2-1.3,0.9-5.9,1.3
						c-0.9,0-2.3,0-3.2,0c-6.1,0-7-0.9-7-1.3l0,0l0,0l0,0l0,0c0,0.2-0.9,1.3-6.8,1.3c-1.3,0-2.5,0-3.6,0c-5.5-0.2-5.5-1.3-5.5-1.3
						l0,0l-0.2-0.9l0,0l0,0c0,0,0.2,1.5-7.6,1.5c-5.5,0-5.9-2.5-5.9-2.5v0.6c-0.8,0.6-3.2,2.1-4.4,2.1c-0.9,0-6.8-4.6-6.8-4.6
						l2.5,4.4c-15.2-1.7-25-5.3-25-12.9c0-8.2,3.2-9.3,7.4-9.3h15.4v3.6c0,0,2.1-3.6,5.5-3.6c3,0,5.1,3,5.5,3.6l0,0l0,0l0,0l0,0
						c0.2-0.6,3-3.6,6.8-3.6c4.4,0,7,3.6,7,3.6s3-3.6,8.2-3.6c5.1,0,8.2,3.6,8.2,3.6s3-3.6,8.2-3.6c5.1,0,8.2,3.6,8.2,3.6
						s2.8-3.6,7-3.6c4.2,0,7,3.6,7,3.6s2.1-3.6,5.5-3.6c3.6,0,5.5,3.6,5.5,3.6v-3.6H688C687.8,597.7,688.2,597.7,688.8,597.7
						 M688.8,593.9H688h-0.8h-15.7h-3.8v0.2c-0.6,0-1.3-0.2-1.7-0.2c-2.5,0-4.4,0.9-5.9,2.1c-1.7-0.9-4-2.1-6.8-2.1
						c-3,0-5.5,1.3-7,2.3c-1.7-1.3-4.6-2.3-7.8-2.3c-3.6,0-6.3,1.3-8.2,2.5c-1.7-1.3-4.6-2.5-8.2-2.5c-3.2,0-6.1,1.3-7.8,2.3
						c-1.7-1.3-4-2.3-7-2.3c-2.5,0-4.6,0.8-6.1,1.7l-0.6-0.9l-0.8,0.8c-1.3-0.9-3-1.5-5.1-1.5c-0.6,0-1.3,0-1.7,0.2v-0.2h-3.8H574
						c-7.6,0-11.2,4.4-11.2,13.1c0,12.1,16.1,15.4,28.6,16.7l7.4,0.8l-0.6-0.9c0.6-0.2,1.3-0.6,2.1-0.9c1.5,0.8,3.2,1.3,6.1,1.3
						c2.5,0,4.6-0.2,6.3-0.6c2.1,1.3,5.3,1.5,7.4,1.5l0,0l0,0c1.3,0,2.3,0,3.6,0c1.7,0,3.2-0.2,4.7-0.2l2.3,6.3l2.3-6.3
						c1.3,0.2,2.8,0.2,4.7,0.2c1.3,0,2.3,0,3.2,0c3.8-0.2,6.1-0.8,7.6-1.5c1.5,0.2,3.6,0.6,6.1,0.6c2.8,0,4.7-0.6,6.3-1.3
						c0.8,0.6,1.5,0.8,2.3,0.9l-0.6,0.9l7.4-0.8c12.3-1.3,28.8-4.6,28.8-16.7C698.4,597.7,695.6,593.9,688.8,593.9L688.8,593.9z"/>
				</g>
			</g>
			<g class="st15">
				<path class="st0" d="M731.1,601.1c0.9,0,1.7-0.6,2.3-1.5c0.6-1.3,0-2.8-1.3-3.2c-1.7-0.8-6.3-3-7.8-4.4
					c-1.7-1.3-5.5-4.7-6.8-6.1c-0.9-0.9-2.5-0.9-3.6,0c-0.9,0.9-0.9,2.5,0,3.6c0.6,0.6,5.3,5.1,7.6,6.6c2.3,1.5,7.8,4.4,8.5,4.7
					C730.3,600.9,730.9,601.1,731.1,601.1z"/>
			</g>
			<g class="st15">
				<path class="st0" d="M531.1,601.1c-0.9,0-1.7-0.6-2.3-1.5c-0.6-1.3,0-2.8,1.3-3.2c1.7-0.8,6.3-3,7.8-4.4
					c1.7-1.3,5.5-4.7,6.8-6.1c0.9-0.9,2.5-0.9,3.6,0c0.9,0.9,0.9,2.5,0,3.6c-0.6,0.6-5.3,5.1-7.6,6.6c-2.3,1.5-7.8,4.4-8.5,4.7
					C531.9,600.9,531.3,601.1,531.1,601.1z"/>
			</g>
		</g>
		<g id="boca">
			<path class="st0" d="M661.6,601.5c-12.9,0-20.5-4-23.5-6.1c-0.9-0.8-2.5-0.9-3.8-0.2c-6.1,2.8-23.7,10.1-38.5,4
				c-11.6-5.1-10.8-14.2-9.1-19.9c0.6-1.3,1.7-2.1,3-1.5c0.6,0.2,0.9,0.6,1.3,0.9c2.8,4.7,7.4,8.5,12.3,10.4
				c9.7,3.8,23.5,0.6,29.6-1.5c2.1-0.6,4-0.2,5.9,0.8c6.8,4.4,14.6,6.3,22.6,5.9c5.3-0.6,10.6-2.3,15.2-5.3c0.8-0.6,2.1-0.6,2.5,0.6
				c0.6,0.6,0.6,1.5,0,2.1C676.1,597.7,669.2,601.7,661.6,601.5z"/>
		</g>
		<g id="boca2" class="st13">
			<path class="st14" d="M559.4,620.3c-1.3,0-2.5-0.9-2.5-2.5c0-1.5,0.9-2.5,2.5-2.5l146.8-5.1c1.3,0,2.5,0.9,2.5,2.5
				c0,1.5-0.9,2.5-2.5,2.5L559.4,620.3C559.8,620.3,559.8,620.3,559.4,620.3z"/>
		</g>
		<path id="boca3" class="st18" d="M688.9,608.7c0-0.2,0.2-0.2,0.2-0.6c0-0.2,0-0.2,0-0.6l0,0c0,0,0,0,0-0.2c0-0.2,0-0.2-0.2-0.6
			c0-0.2,0-0.2-0.2-0.6c0,0,0,0,0-0.2c0,0-5.5-9.1-8.3-19.5c-2.5-10.4-3.6-19.7-3.6-19.7c-0.2-0.9-0.9-2.3-2.3-2.1
			c-0.9,0.2-2.3,0.9-2.1,2.3c0,0.6,0.8,9.7,3.6,20.3c1.7,7,5.1,13.7,7,17.4l-53.9,2.3c-15.2,0.8-53.5,5.3-55,5.5
			c-0.9,0.2-2.1,1.3-2.1,2.3c0.2,0.9,0.9,2.1,2.3,2.1h0.2c0.6,0,39.6-4.7,54.4-5.5l57.7-2.3l0,0c0.2,0,0.6,0,0.8-0.2h0.2
			c0,0,0,0,0.2,0l0.2-0.2c0.2,0,0.2-0.2,0.6-0.2C688.8,609.1,688.8,608.7,688.9,608.7z"/>
		<path id="boca4" class="st18" d="M688.9,611.4c0-0.2,0.2-0.2,0.2-0.6c0-0.4,0-0.2,0-0.6V610c0,0,0,0,0-0.2s0-0.2-0.2-0.6
			c0-0.2,0-0.2-0.2-0.6c0,0,0,0,0-0.2c0,0-5.5-9.1-8.3-19.5c-2.5-10.4-3.6-19.7-3.6-19.7c-0.2-0.9-0.9-2.3-2.3-2.1
			c-0.9,0.2-2.3,0.9-2.1,2.3c0,0.6,0.8,9.7,3.6,20.3c1.7,7,5.1,13.7,7,17.4c0,0-22.2,8.2-53.9,10.4c-31.7,2.3-53.5-5.5-55-5.3
			c-0.9,0.2-2.1,1.3-2.1,2.3c0.2,0.9,0.9,2.1,2.3,2.1c0,0,25.6,7.8,55.2,5.5c29.6-2.3,56.9-10.6,56.9-10.6l0,0c0.2,0,0.6,0,0.8-0.2
			h0.2c0,0,0,0,0.2,0l0.2-0.2c0.2,0,0.2-0.2,0.6-0.2C688.9,610.8,688.8,611.4,688.9,611.4z"/>
	</g>
	<path class="st19" d="M644.2,520.5c-0.2-4.6-5.3-8.2-11.2-8.3c-6.3,0-11.6,3.2-11.6,8.3"/>
	<g>
		<g id="olhos">
			<path class="st0" d="M565.9,568.1c-25.6-0.8-34.9-18.2-35.5-33.4c-0.6-12.3,2.3-30.2,17.3-35.5c13.1-4.6,52.3-8.9,64.9,7.6
				C622.2,520.3,593.4,568.9,565.9,568.1z"/>
			<path class="st0" d="M699.9,568.1c25.6-0.8,34.9-18.2,35.5-33.4c0.6-12.3-2.5-30.2-17.3-35.5c-13.1-4.6-52.3-8.9-64.9,7.6
				C643.2,520.3,672.3,568.9,699.9,568.1z"/>
		</g>
		<g id="olhos_1_" class="st13">
			<path class="st20" d="M596.2,532.8c0,0-10.6-6.1-28.6-6.1c-18,0-30.2,6.1-30.2,6.1c-1.7,0-3-1.5-3-3l0,0c0-1.7,1.5-3,3-3
				c0,0,11.6-6.1,30.2-6.1c18.4,0,28.6,6.1,28.6,6.1c1.7,0,3,1.5,3,3l0,0C599.2,531.3,597.9,532.8,596.2,532.8z"/>
			<path class="st20" d="M728.2,532.8c0,0-10.6-6.1-28.6-6.1c-18,0-30.2,6.1-30.2,6.1c-1.7,0-3-1.5-3-3l0,0c0-1.7,1.5-3,3-3
				c0,0,11.6-6.1,30.2-6.1c18.4,0,28.6,6.1,28.6,6.1c1.7,0,3,1.5,3,3l0,0C731.2,531.3,729.7,532.8,728.2,532.8z"/>
		</g>
		<g id="olhos3" class="st13">
			<path class="st20" d="M595.1,518.2h-54.6c-1.3,0-2.3,0.9-2.3,2.3c0,1.3,0.9,2.3,2.3,2.3h52.3v10.4c0,1.3,0.9,2.3,2.3,2.3
				c1.3,0,2.3-0.9,2.3-2.3v-12.7C597.3,519.2,596.2,518.2,595.1,518.2z"/>
			<path class="st20" d="M716.1,518.2h-54.6c-1.3,0-2.3,0.9-2.3,2.3c0,1.3,0.9,2.3,2.3,2.3h52.3v10.4c0,1.3,0.9,2.3,2.3,2.3
				s2.3-0.9,2.3-2.3v-12.7C718.2,519.2,717.2,518.2,716.1,518.2z"/>
		</g>
		<g id="olhos4" class="st13">
			<path class="st14" d="M544.6,547.1h39.3c11.6-5.1,19.5-14.6,18.4-24.3c-0.6-4.4-2.5-8.2-5.9-11.2h-55.8
				c-6.6,5.3-10.1,12.1-9.7,19.2C531.9,537.8,537,543.5,544.6,547.1z"/>
			<path class="st14" d="M722,547.1h-39.3c-11.6-5.1-19.5-14.6-18.4-24.3c0.6-4.4,2.5-8.2,5.9-11.2h55.8c6.6,5.3,10.1,12.1,9.7,19.2
				C734.3,537.8,729.3,543.5,722,547.1z"/>
		</g>
	</g>
</g>
</svg>
